<svg xmlns="http://www.w3.org/2000/svg" viewBox="0 0 39.11 50.94"><g id="Layer_2" data-name="Layer 2"><g id="incidents"><ellipse cx="23.3" cy="3.11" rx="13.59" ry="3.11" fill="#109ed9"/><ellipse cx="23.3" cy="41.4" rx="13.59" ry="3.11" fill="#109ed9"/><rect x="9.95" y="3.59" width="26.7" height="37.57" fill="#ca9e43"/><ellipse cx="23.3" cy="3.59" rx="13.35" ry="2.95" fill="#ca9e43"/><ellipse cx="23.3" cy="41.08" rx="13.35" ry="2.95" fill="#ca9e43"/><path d="M23.38,32.66a109.1,109.1,0,0,1-13.47-.84.25.25,0,0,1,.07-.49,107.94,107.94,0,0,0,26.64,0,.25.25,0,0,1,.28.21.24.24,0,0,1-.22.28A105.08,105.08,0,0,1,23.38,32.66Z" fill="#109ed9"/><path d="M23.38,10.38a109.08,109.08,0,0,0-13.47.83.25.25,0,0,0-.21.28.24.24,0,0,0,.28.22,107,107,0,0,1,26.64,0,.25.25,0,0,0,.06-.5A107,107,0,0,0,23.38,10.38Z" fill="#109ed9"/><circle cx="23.75" cy="21.79" r="9.88" fill="#fff"/><circle cx="23.81" cy="21.55" r="1.85" fill="#ca9e43"/><path d="M22.43,23.81a2.58,2.58,0,0,0,1.38.39,2.72,2.72,0,0,0,1.27-.32l3,5.16a.63.63,0,0,1-.27.88,9,9,0,0,1-8.06-.12.63.63,0,0,1-.25-.88Z" fill="#ca9e43"/><path d="M21.16,21.55H15.55a.63.63,0,0,1-.63-.7,9,9,0,0,1,3.89-6.49.61.61,0,0,1,.89.21l2.73,4.72A2.64,2.64,0,0,0,21.16,21.55Z" fill="#ca9e43"/><path d="M32.21,21.55H26.46a2.66,2.66,0,0,0-1.38-2.33l2.77-4.79a.63.63,0,0,1,.88-.22,8.93,8.93,0,0,1,2.95,3.09,9,9,0,0,1,1.16,3.56A.63.63,0,0,1,32.21,21.55Z" fill="#ca9e43"/><polygon points="12.55 25.48 11.18 28.15 11.56 29.47 13.49 31.21 14.71 29 15.65 28.86 14.19 26.28 12.55 25.48" fill="#27aae1"/><polygon points="11.84 28.04 11.37 23.81 10.31 22.82 11.18 23.41 12.56 18.68 11.81 21.79 12.75 22.06 11.81 22.12 11.53 23.81 11.84 28.04" fill="#109ed9"/><polygon points="13.49 31.21 14.63 32.06 17.77 31.21 15.65 31.32 14.92 31.16 13.89 29.69 13.49 31.21" fill="#27aae1"/><polygon points="12.33 29.69 14.67 31.8 18.01 31.16 15.65 31.32 16.26 29.89 14.92 31.5 13.87 30.04 12.33 29.69" fill="#109ed9"/><polygon points="12.62 25.48 11.37 27.94 11.72 29.14 13.48 30.74 14.61 28.71 15.47 28.58 14.13 26.22 12.62 25.48" fill="#109ed9"/><path d="M39.08,50.52c.56.86-5.16.15-7.73.08a15.35,15.35,0,0,1-5.11-.79c-1-.37-1.86-.91-2.85-1.26-2-.69-4,.27-5.94.85a28.28,28.28,0,0,1-15.69.12c-2.2-.63-1.38-.65,0-1.26S2.46,47,1.2,45.92-.38,44.48.8,43.76C1.67,43.24-.35,43,.05,42c.92-2.18,3.4-.47,5.78-3.41,1.7-2.1,1.64-4.72,2.63-7a6.48,6.48,0,0,1,2.18-2.76,5.33,5.33,0,0,1,3.78-1.06,6.11,6.11,0,0,0-3.42,5c-.06,1.25.17,3.34,1.13,4.24,1.74,1.64,4.7,1.93,7,2.25,1.69.22,6.43.11,6.44,2.42A10.54,10.54,0,0,1,25.38,43c-.23,1.95,2,3.4,4,3.84,2.93.64-1,.14,7.51,1.5C37.93,48.45,39.08,50.52,39.08,50.52Z" fill="#109ed9"/></g></g></svg>