<svg xmlns="http://www.w3.org/2000/svg" viewBox="0 0 54.92 53.93"><g id="Layer_2" data-name="Layer 2"><g id="Nuclearmaterial"><rect x="2.24" y="1.8" width="50.44" height="51.12" fill="#fff" stroke="#109ed9" stroke-miterlimit="10" stroke-width="2"/><rect x="2.24" y="1.8" width="50.52" height="11.27" fill="#fff" stroke="#109ed9" stroke-miterlimit="10" stroke-width="2"/><rect x="1" y="1" width="52.92" height="9.06" fill="#fff" stroke="#109ed9" stroke-miterlimit="10" stroke-width="2"/><path d="M41.57,32.54a14.11,14.11,0,0,1-28.19.81c0-.27,0-.54,0-.81a14.1,14.1,0,0,1,27-5.7A13.9,13.9,0,0,1,41.57,32.54Z" fill="#ca9e43"/><path d="M27.46,45.46A12.92,12.92,0,1,1,40.38,32.54,12.93,12.93,0,0,1,27.46,45.46Zm0-24.75A11.84,11.84,0,1,0,39.3,32.54,11.86,11.86,0,0,0,27.46,20.71Z" fill="#fff"/><path d="M29.49,32.54a2,2,0,1,1-2-2A2,2,0,0,1,29.49,32.54Z" fill="#fff"/><path d="M25.92,29.93l-3.55-6a10,10,0,0,0-4.95,8.64h7A3,3,0,0,1,25.92,29.93Z" fill="#fff"/><path d="M26,35.18l-3.45,6.1a10,10,0,0,0,10,0L29,35.17A3,3,0,0,1,26,35.18Z" fill="#fff"/><path d="M30.49,32.52l7-.07a10,10,0,0,0-5-8.6L29,29.92A3,3,0,0,1,30.49,32.52Z" fill="#fff"/></g></g></svg>