<svg xmlns="http://www.w3.org/2000/svg" viewBox="0 0 69.55 51.86"><g id="Layer_2" data-name="Layer 2"><g id="radiationgenerator"><path d="M9.52,0C7.78,0,3.51.58,2,1.63.76,7.4,0,18,0,26.76c0,15.29.77,22,1,25.09H37.88V0Z" fill="#ca9e43"/><path d="M19.67,7.91c.11-.91.22-1.79.34-2.62h-11c-.12.83-.23,1.71-.34,2.62Z" fill="#109ed9"/><path d="M19.73,7.53c.1-.92.22-1.8.34-2.62h-11c-.12.82-.24,1.7-.35,2.62Z" fill="#b8ccdb"/><path d="M19.47,7.53c.11-.92.22-1.8.34-2.62H8.86c-.12.82-.23,1.7-.34,2.62Z" fill="#fff"/><path d="M.79,10.14H29.16V9.69H.83C.82,9.84.8,10,.79,10.14Z" fill="#109ed9"/><rect x="48.35" y="29.93" width="13.89" height="21.92" fill="#d8ab5b"/><path d="M46.05,51.85c.2-3.11.35-25.08.35-27.8a112.77,112.77,0,0,0-2-22.42C42.89.58,38.62,0,36.88,0s-6,.58-7.53,1.63c-1.23,5.77-2,16.39-2,25.13,0,15.29.77,22,1,25.09Z" fill="#dbaf61"/><path d="M.66,47.65H37.88V47.2H.66Z" fill="#109ed9"/><polygon points="36.29 18.16 28.08 10.14 27.84 10.14 27.84 9.69 28.27 9.69 36.61 17.84 36.29 18.16" fill="#109ed9"/><polygon points="37.88 0.04 37.88 0.04 37.88 0.04 37.88 0.04" fill="#ca9e43"/><path d="M9.52,0C7.78,0,3.51.58,2,1.63H29.35C30.64.74,33.91.19,35.93,0Z" fill="#ca9e43"/><path d="M49.64,8V51.85h-4c-7,0-12.61-9.79-12.61-21.92S38.69,8,45.66,8Z" fill="#fff" stroke="#109ed9" stroke-miterlimit="10" stroke-width="0.01"/><path d="M62.25,29.93c0,12.13-5.65,21.92-12.61,21.92S37,42.06,37,29.93,42.68,8,49.64,8,62.25,17.8,62.25,29.93Z" fill="#109ed9"/><path d="M59.83,30.26c0,10-4.4,18.15-9.82,18.15s-9.83-8.12-9.83-18.15S44.58,12.11,50,12.11,59.83,20.23,59.83,30.26Z" fill="#fff"/><path d="M59.41,30.26c0,9.73-4.21,17.62-9.4,17.62s-9.4-7.89-9.4-17.62S44.82,12.64,50,12.64,59.41,20.53,59.41,30.26Z" fill="#ca9e43"/><path d="M57.08,30.26c0,7.22-3.17,13.07-7.07,13.07s-7.08-5.85-7.08-13.07S46.1,17.19,50,17.19,57.08,23,57.08,30.26Z" fill="#fff"/><path d="M56.65,30.26c0,6.88-3,12.46-6.64,12.46s-6.65-5.58-6.65-12.46S46.34,17.8,50,17.8,56.65,23.38,56.65,30.26Z" fill="#109ed9"/><path d="M54.13,30.26c0,4.21-1.84,7.63-4.12,7.63s-4.13-3.42-4.13-7.63,1.85-7.62,4.13-7.62S54.13,26.05,54.13,30.26Z" fill="#fff"/><path d="M53.7,30.26c0,3.82-1.65,6.92-3.69,6.92s-3.69-3.1-3.69-6.92S48,23.34,50,23.34,53.7,26.44,53.7,30.26Z" fill="#ca9e43"/><path d="M47.35,15.69v-.3c0-.38-.17-.69-.38-.69s-.38.31-.38.69v.3c0,.39.17.7.38.7s.38-.31.38-.7Z" fill="#fff"/><path d="M44.78,19.61c.16,0,.3-.24.3-.54s-.13-.53-.3-.53h-.47c-.16,0-.29.24-.29.53s.13.54.29.54Z" fill="#fff"/><path d="M45.78,18c.16,0,.29-.24.29-.54s-.13-.53-.29-.53h-.47c-.17,0-.3.24-.3.53s.13.54.29.54Z" fill="#fff"/><path d="M43.92,21.22c.16,0,.29-.24.29-.54s-.13-.53-.29-.53h-.47c-.17,0-.3.24-.3.53s.13.54.29.54Z" fill="#fff"/><path d="M54.33,15.92c.11,0,.21-.17.21-.38s-.1-.37-.21-.37H54c-.11,0-.21.17-.21.37s.1.38.21.38Z" fill="#fff"/><path d="M55.12,18.37c.11,0,.21-.16.21-.37s-.1-.38-.21-.38h-.33c-.11,0-.21.17-.21.38s.1.37.21.37Z" fill="#fff"/><path d="M53.46,17.53c.12,0,.21-.17.21-.38s-.09-.37-.2-.37h-.33c-.12,0-.21.17-.21.37s.09.38.2.38Z" fill="#fff"/><path d="M49.88,16.26c.15,0,.26-.21.26-.48s-.11-.47-.26-.47-.26.21-.26.47.12.48.26.48Z" fill="#fff"/><path d="M48.8,14.05c0,.26.11.47.26.47s.26-.21.26-.47-.12-.48-.26-.48-.26.21-.26.48Z" fill="#fff"/><path d="M50.71,14.52c.14,0,.26-.21.26-.47s-.12-.48-.26-.48-.26.21-.26.48.11.47.26.47Z" fill="#fff"/><path d="M48.23,16.74c.14,0,.26-.21.26-.47s-.11-.48-.26-.48S48,16,48,16.27s.12.47.26.47Z" fill="#fff"/><path d="M51.53,16.74c.15,0,.27-.21.27-.47s-.12-.48-.26-.48-.27.22-.27.48.12.47.26.47Z" fill="#fff"/><rect x="48.28" y="34.52" width="2.35" height="8.03" fill="#728896"/><rect x="48.64" y="34.52" width="1.77" height="8.2" fill="#516571"/><rect x="61.88" y="38.62" width="2.91" height="1.95" fill="#d1d3d4"/><rect x="48.79" y="38.62" width="13.09" height="1.95" fill="#d1d3d4"/><rect x="63.96" y="35.37" width="3.37" height="3.25" fill="#a7a9ac"/><rect x="48.79" y="35.37" width="15.17" height="3.25" fill="#a7a9ac"/><rect x="63.64" y="33.79" width="5.92" height="2.43" fill="#e6e7e8"/><path d="M63.8,33.79H46.9a4.42,4.42,0,0,0,.94,2.43h16Z" fill="#e6e7e8"/><path d="M10.4,28.54c0-.11,0-.22,0-.33a2.32,2.32,0,0,0-.46,0,2.6,2.6,0,0,0-.4,0c0,.11,0,.22,0,.34a4.64,4.64,0,0,0,2.65,4.18A2.77,2.77,0,0,0,12.6,32,3.78,3.78,0,0,1,10.4,28.54Zm8.38-.34a2.69,2.69,0,0,0-.4,0,2.32,2.32,0,0,0-.46,0c0,.11,0,.22,0,.33A3.79,3.79,0,0,1,15.73,32a2.77,2.77,0,0,0,.42.75,4.62,4.62,0,0,0,2.65-4.18C18.8,28.42,18.79,28.31,18.78,28.2Zm-2-3.48a4.66,4.66,0,0,0-5.25,0,2.93,2.93,0,0,0,.43.75,3.79,3.79,0,0,1,2.2-.7,3.73,3.73,0,0,1,2.18.7A2.84,2.84,0,0,0,16.79,24.72Z" fill="#fff"/><path d="M20.76,33.19a3.25,3.25,0,0,1-5.38-3.46l-.44-.25a1.18,1.18,0,0,1-.77.28,1.2,1.2,0,0,1-.81-.31l-.42.24a3.25,3.25,0,0,1-5.37,3.5l-.33.19a4.23,4.23,0,0,0,6.93-.59,4.22,4.22,0,0,0,6.92.59Z" fill="#fff"/><path d="M8.33,28.17a3.25,3.25,0,0,1,4.19.82l.44-.25a1.5,1.5,0,0,1,0-.2,1.22,1.22,0,0,1,.84-1.16v-.46a3.25,3.25,0,0,1-.33-6.39v-.38a4.23,4.23,0,0,0-2.95,6.29,4.23,4.23,0,0,0-4,5.7L6.86,32A3.25,3.25,0,0,1,8.33,28.17Z" fill="#fff"/><path d="M20,27a4.19,4.19,0,0,0-2.12-.57,4.23,4.23,0,0,0-2.95-6.29v.38a3.25,3.25,0,0,1-.28,6.39v.48a1.21,1.21,0,0,1,.79,1.14,1,1,0,0,1,0,.24l.42.25A3.24,3.24,0,0,1,21.47,32l.34.19A4.23,4.23,0,0,0,20,27Z" fill="#fff"/></g></g></svg>