<svg xmlns="http://www.w3.org/2000/svg" xmlns:xlink="http://www.w3.org/1999/xlink" viewBox="0 0 52.66 44.82"><defs><linearGradient id="linear-gradient" x1="26.33" y1="37.16" x2="26.33" y2="0.05" gradientUnits="userSpaceOnUse"><stop offset="0" stop-color="#ebeaeb"/><stop offset="0.51" stop-color="#acacb0"/><stop offset="0.66" stop-color="#c6c6c9"/><stop offset="1" stop-color="#fff"/></linearGradient></defs><g id="Layer_2" data-name="Layer 2"><g id="relateditems"><polygon points="20.82 37.15 33.88 37.15 35.01 43.79 19.63 43.79 20.82 37.15" fill="#e6e7e8" stroke="#109ed9" stroke-miterlimit="10" stroke-width="0.1"/><path d="M36.88,44.15,35,43.79H19.63l-1.86.36a.12.12,0,0,0-.1.13v.4a.09.09,0,0,0,.08.09H36.89a.09.09,0,0,0,.09-.09v-.4A.12.12,0,0,0,36.88,44.15Z" fill="#f7f5f5" stroke="#109ed9" stroke-miterlimit="10" stroke-width="0.1"/><path d="M36.88,44.15l-.17,0H17.94l-.17,0a.12.12,0,0,0-.1.13v.4a.09.09,0,0,0,.08.09H36.89a.09.09,0,0,0,.09-.09v-.4A.12.12,0,0,0,36.88,44.15Z" fill="#f7f5f5" stroke="#109ed9" stroke-miterlimit="10" stroke-width="0.1"/><path d="M51.13.05H1.53A1.61,1.61,0,0,0,.05,1.77V35.44a1.61,1.61,0,0,0,1.48,1.72h49.6a1.62,1.62,0,0,0,1.48-1.72V1.77A1.62,1.62,0,0,0,51.13.05Z" stroke="#109ed9" stroke-miterlimit="10" stroke-width="0.1" fill="url(#linear-gradient)"/><ellipse cx="26.88" cy="1.2" rx="0.48" ry="0.51" fill="none" stroke="#212121" stroke-miterlimit="10" stroke-width="0.01"/><rect x="1.39" y="1.71" width="49.8" height="34.03" fill="#ca9e43"/><path d="M18.48,20.83a5.12,5.12,0,0,1,0-.69,6.22,6.22,0,0,0-1-.08,5.83,5.83,0,0,0-.84.06c0,.24,0,.47,0,.71a9.62,9.62,0,0,0,5.51,8.7A6,6,0,0,0,23.07,28,7.82,7.82,0,0,1,18.48,20.83Zm17.46-.71a6,6,0,0,0-.85-.06,6.09,6.09,0,0,0-1,.08q0,.33,0,.69A7.84,7.84,0,0,1,29.59,28a5.65,5.65,0,0,0,.88,1.57,9.63,9.63,0,0,0,5.5-8.7C36,20.59,36,20.36,35.94,20.12Zm-4.15-7.24a9.66,9.66,0,0,0-10.93,0,6,6,0,0,0,.91,1.56,7.81,7.81,0,0,1,9.11,0A5.8,5.8,0,0,0,31.79,12.88Z" fill="#fff"/><path d="M40,30.51a6.75,6.75,0,0,1-11.19-7.19l-.91-.53a2.54,2.54,0,0,1-1.61.58,2.58,2.58,0,0,1-1.69-.64l-.87.5a6.76,6.76,0,0,1-11.16,7.28l-.69.4a8.82,8.82,0,0,0,11.18,2,8.73,8.73,0,0,0,3.23-3.24,8.79,8.79,0,0,0,14.4,1.24Z" fill="#fff"/><path d="M14.19,20.07a6.76,6.76,0,0,1,8.71,1.7l.92-.53a2.85,2.85,0,0,1,0-.41,2.55,2.55,0,0,1,1.74-2.42v-.94a6.76,6.76,0,0,1-.69-13.3v-.8a8.81,8.81,0,0,0-6.13,13.1,8.78,8.78,0,0,0-8.27,11.85l.69-.4A6.74,6.74,0,0,1,14.19,20.07Z" fill="#fff"/><path d="M38.37,17.64A8.74,8.74,0,0,0,34,16.47a8.81,8.81,0,0,0-6.13-13.1v.8a6.75,6.75,0,0,1-.6,13.28v1a2.53,2.53,0,0,1,1.65,2.38,2.94,2.94,0,0,1-.05.51l.88.5a6.76,6.76,0,0,1,11.84,6.08l.69.4A8.81,8.81,0,0,0,38.37,17.64Z" fill="#fff"/></g></g></svg>