<svg xmlns="http://www.w3.org/2000/svg" viewBox="0 0 48.59 53.38"><g id="Layer_2" data-name="Layer 2"><g id="sealedsource"><path d="M24.3,0S28,3.76,37,4c7.6.21,10.33-1.71,10.33-1.71S51.72,32,44,40.92c-6.9,8-18.53,12.22-19.73,12.46-1.2-.24-12.83-4.48-19.74-12.46C-3.13,32,1.23,2.31,1.23,2.31S4,4.23,11.57,4C20.62,3.76,24.3,0,24.3,0Z" fill="#ca9e43"/><path d="M20.35,26.68a4,4,0,1,1,3.93,4A4,4,0,0,1,20.35,26.68Z" fill="#fff" stroke="#fff" stroke-miterlimit="10" stroke-width="1.22"/><path d="M24.26,25.18a.95.95,0,1,1-.94-.95A1,1,0,0,1,24.26,25.18Z" fill="#fff" stroke="#fff" stroke-miterlimit="10" opacity="0.8"/><path d="M30.43,37c-1.27,5.89-3.58,9.83-6.2,9.82-4,0-7.15-9-7.11-20.19S20.4,6.5,24.36,6.52s7.16,9.05,7.12,20.19A49.68,49.68,0,0,1,30.43,37" fill="none" stroke="#fff" stroke-miterlimit="10" stroke-width="1.42"/><path d="M7.29,15.46C10,12.81,18.85,14.68,27.91,20c9.63,5.6,15.82,12.92,13.83,16.35a2.55,2.55,0,0,1-.43.55c-2.68,2.66-11.56.79-20.62-4.48C11.06,26.76,4.87,19.44,6.86,16a2.82,2.82,0,0,1,.43-.55m-1-1h0a3.51,3.51,0,0,0-.65.84c-.92,1.57-1.19,4.4,2.69,9A45.59,45.59,0,0,0,20,33.59,47.24,47.24,0,0,0,33.09,39c4.36.94,7.54.55,9.22-1.11A4.39,4.39,0,0,0,43,37c.91-1.57,1.19-4.4-2.69-9a45.67,45.67,0,0,0-11.65-9.31A47.24,47.24,0,0,0,15.5,13.34c-4.35-.93-7.53-.55-9.21,1.12Z" fill="#fff" stroke="#fff" stroke-miterlimit="10" stroke-width="0.5"/><path d="M10.93,27.82a47.6,47.6,0,0,1,9.8-7.27c9.66-5.54,19.1-7.24,21.07-3.8,1.17,2-.54,5.42-4.13,9A48.16,48.16,0,0,1,27.87,33c-9.67,5.54-19.1,7.24-21.08,3.8-1.16-2,.55-5.42,4.14-9m-1-1,1,1-1-1C5.61,31.1,4.06,34.9,5.56,37.51c.9,1.58,3.22,3.23,9.14,2.16a45.38,45.38,0,0,0,13.87-5.43,48.66,48.66,0,0,0,10.1-7.5C43,22.46,44.53,18.66,43,16.05c-.9-1.58-3.22-3.23-9.13-2.16A45.33,45.33,0,0,0,20,19.32,49.19,49.19,0,0,0,9.93,26.81Z" fill="#fff" stroke="#fff" stroke-miterlimit="10" stroke-width="0.5"/><path d="M34.35,14.62a2,2,0,1,1,2,2A2,2,0,0,1,34.35,14.62Z" fill="#fff" stroke="#fff" stroke-miterlimit="10" stroke-width="0.86"/><path d="M36.16,14.44a.66.66,0,0,1-.91,0,.6.6,0,0,1,0-.88.66.66,0,0,1,.91,0A.61.61,0,0,1,36.16,14.44Z" fill="#fff" stroke="#fff" stroke-miterlimit="10" opacity="0.8"/><path d="M5.62,30.63a2,2,0,1,1,2,2A2,2,0,0,1,5.62,30.63Z" fill="#fff" stroke="#fff" stroke-miterlimit="10" stroke-width="0.86"/><path d="M36.37,38.38a2,2,0,1,1,2,2A2,2,0,0,1,36.37,38.38Z" fill="#fff" stroke="#fff" stroke-miterlimit="10" stroke-width="0.86"/><path d="M38.55,38.33a.67.67,0,0,1-.92,0,.61.61,0,0,1,0-.88.67.67,0,0,1,.92,0A.62.62,0,0,1,38.55,38.33Z" fill="#fff" stroke="#fff" stroke-miterlimit="10" opacity="0.8"/></g></g></svg>