<svg xmlns="http://www.w3.org/2000/svg" viewBox="0 0 54.83 48.48"><g id="Layer_2" data-name="Layer 2"><g id="unsealedsource"><path d="M39.37,48.48c-2.62,0-6.27-2.69-10.55-7.78l-.27-.31L30,38.54l.41.45c3.54,3.88,6.57,6.11,8.3,6.11a1.39,1.39,0,0,0,.73-.19c.48-.3,2.58-2.5-3-15.94l0-.06v-.12l.68-1.4.5-.89.42.91c2.47,5.29,7.71,17.91,3,20.65A3.16,3.16,0,0,1,39.37,48.48Zm-24.09-.13a3.3,3.3,0,0,1-1.7-.45c-2.59-1.49-2.49-6.54.28-14.22L14,33.3l2.31.3-.19.58C14.28,40,14,44.19,15.51,45a1.32,1.32,0,0,0,.59.12A5.54,5.54,0,0,0,19,43.82l.27-.19.15.28a3.23,3.23,0,0,0,1.2,1.23l.1,0,.37.2-.32.27C18.64,47.45,16.79,48.35,15.28,48.35Zm9.78-7.6A3.16,3.16,0,0,0,24,39.61l-.29-.18.23-.26c1.22-1.37,2.53-3,3.91-4.75l0-.05.11-.06,1.55-.11,1,0L30,35c-1,1.45-2.6,3.62-4.43,5.79l-.27.32Zm-.57-5.85C23.22,33.06,21.91,31,20.7,29l0-.07v-.12l.56-1.41.43-.87.48.83c1.29,2.24,2.59,4.3,3.87,6.14l.21.3-1.32,1.72Zm1.84-4.46h1c2.65,0,5-.09,7.26-.28l.37,0,.82,2-.69,0c-2.27.19-4.7.3-7,.31h-.27Zm-7,1.39C13.55,31.33,0,29.55,0,24.08c0-3,4.42-5.42,12.46-6.86l.4-.07.9,2.15-.6.13c-5.92,1.29-9.71,3.2-9.64,4.86,0,.56.88,3.48,15.29,5.4h.06l.1.06.88,1.29.52.87Zm21.71-2.65.6-.13c5.92-1.3,9.7-3.21,9.63-4.86,0-.37-.31-1.35-2.74-2.46l-.29-.14.17-.27a3.19,3.19,0,0,0,.46-1.65v-.34l.35-.07,0,0c3.68,1.34,5.54,3.06,5.54,5.11,0,3-4.42,5.43-12.45,6.87l-.41.07Zm-8.49-1.66C33.88,25.3,35,23.14,36,21.1l.16-.34,2.15.29-.29.62c-1,2.09-2.12,4.25-3.27,6.27l0,0-.09.07a7.39,7.39,0,0,1-1.54.22l-1,.06Zm-16,.21.3-.62c1-2.1,2.12-4.26,3.27-6.26l0-.05.08-.07a6.85,6.85,0,0,1,1.54-.23l.95-.06-.48.82c-1.29,2.24-2.43,4.4-3.38,6.43L18.7,28Zm16.17-6.25c-1.29-2.24-2.59-4.3-3.87-6.15l-.22-.3L30,13.31l.4.57c1.32,1.91,2.63,4,3.79,6l0,.06V20l-.57,1.4-.43.87Zm-15.9-.41C16.07,19.48,15,17,14,14.33l-.14-.39h.42a3.16,3.16,0,0,0,1.52-.36l.3-.16.11.33c.57,1.74,1.3,3.67,2.16,5.76l0,.06v.12l-.68,1.4-.49.89Zm25.27-1.28c-1.8-.37-3.84-.71-6.06-1H36l-.1-.07L35,17.43l-.53-.88,1,.09c1.76.16,4.45.45,7.23.95l.42.07-.22.36a3.32,3.32,0,0,0-.45,1.5v.34Zm-23-3.13.69-.06c2.21-.18,4.65-.29,7.06-.3h.07l.11.06L28,17.54l.55.82H27.45c-2.59,0-4.93.09-7.16.28l-.37,0Zm19.43-1.78.19-.58c1.84-5.78,2.08-10,.61-10.78a1.2,1.2,0,0,0-.59-.13c-1.32,0-4.59,1.39-11.73,10.67l0,0-.11.05-1.55.12h-1l.58-.82C27.67,9.46,34.72.13,39.56.13a3.39,3.39,0,0,1,1.7.44c2.59,1.5,2.49,6.55-.28,14.22l-.15.39ZM24.45,9.48c-3.53-3.88-6.56-6.1-8.3-6.1a1.27,1.27,0,0,0-.72.19c-.31.19-1,.94-.76,3.6l0,.32h-.33a3.25,3.25,0,0,0-1.66.42l-.28.17-.24-.27v0c-.67-3.85-.11-6.33,1.66-7.35A3.19,3.19,0,0,1,15.47,0C18.08,0,21.73,2.69,26,7.77l.26.32L24.86,9.94Z" fill="#ca9e43"/><circle cx="45.67" cy="19.67" r="2.84" fill="#109ed9"/><path d="M17.17,10.72a2.84,2.84,0,1,0-2.84,2.83A2.84,2.84,0,0,0,17.17,10.72Z" fill="#109ed9"/><path d="M25.09,42.33a2.84,2.84,0,1,0-2.84,2.84A2.84,2.84,0,0,0,25.09,42.33Z" fill="#109ed9"/><path d="M31.78,24.24a4.36,4.36,0,1,0-4.36,4.36A4.36,4.36,0,0,0,31.78,24.24Z" fill="#109ed9"/></g></g></svg>