<svg xmlns="http://www.w3.org/2000/svg" viewBox="0 0 56.4 50.7"><g id="Layer_2" data-name="Layer 2"><g id="variableunsealed"><path d="M33.31,41c-2.21,0-5.3-2.28-8.93-6.58l-.22-.27,1.2-1.56.34.38c3,3.28,5.56,5.17,7,5.17a1.15,1.15,0,0,0,.61-.16c.41-.26,2.19-2.12-2.51-13.49l0-.05v-.1l.57-1.19.42-.75.36.77c2.09,4.48,6.52,15.16,2.51,17.47A2.64,2.64,0,0,1,33.31,41Zm-20.38-.11a2.82,2.82,0,0,1-1.44-.38c-2.2-1.26-2.11-5.54.23-12l.12-.33,2,.26-.16.49c-1.55,4.89-1.76,8.47-.52,9.12a1.12,1.12,0,0,0,.5.11,4.81,4.81,0,0,0,2.47-1.08l.22-.16.13.24a2.66,2.66,0,0,0,1,1l.09,0,.32.17-.28.24C15.78,40.14,14.21,40.91,12.93,40.91Zm8.28-6.43a2.82,2.82,0,0,0-.91-1l-.25-.15.19-.22c1-1.15,2.15-2.51,3.31-4l0,0,.09,0L25,28.94l.86,0-.49.7c-.85,1.22-2.2,3.06-3.75,4.9l-.23.27Zm-.49-4.95c-1.08-1.56-2.19-3.3-3.21-5l0,0v-.11L18,23.14l.36-.74.41.7c1.09,1.9,2.19,3.65,3.27,5.2l.18.26L21.05,30Zm1.56-3.78h.81c2.24,0,4.25-.07,6.14-.23l.32,0,.69,1.69-.58.05c-1.92.16-4,.25-6,.26h-.22Zm-5.89,1.18C11.46,26.5,0,25,0,20.38c0-2.53,3.74-4.6,10.54-5.81l.34-.06.76,1.82-.51.11c-5,1.1-8.21,2.71-8.15,4.11,0,.48.74,2.95,12.93,4.57H16l.08.05.74,1.09.45.74Zm18.36-2.24.51-.11c5-1.1,8.21-2.71,8.16-4.11,0-.32-.27-1.14-2.32-2.09l-.25-.11L41,18a2.72,2.72,0,0,0,.39-1.4v-.28l.29-.06h0c3.11,1.14,4.68,2.59,4.68,4.33,0,2.53-3.74,4.59-10.54,5.81l-.34.06Zm-7.18-1.4c1.09-1.88,2.06-3.71,2.87-5.44l.13-.28,1.82.24-.25.53c-.84,1.76-1.79,3.59-2.76,5.3l0,0-.07.06a7.12,7.12,0,0,1-1.31.19l-.8.05ZM14,23.47l.25-.53c.84-1.78,1.79-3.61,2.76-5.3l0,0,.08-.06a5.71,5.71,0,0,1,1.3-.2l.8-.05-.4.7c-1.09,1.89-2.06,3.72-2.86,5.44l-.14.28Zm13.67-5.3c-1.09-1.89-2.19-3.64-3.27-5.2l-.18-.25,1.11-1.46.34.49c1.11,1.61,2.22,3.36,3.21,5l0,.05V17l-.48,1.18-.37.74Zm-13.45-.34c-.63-1.35-1.55-3.44-2.37-5.7l-.12-.34h.36a2.7,2.7,0,0,0,1.29-.31l.25-.13.09.27c.49,1.47,1.1,3.11,1.83,4.88l0,0v.1L15,17.84l-.41.76Zm21.39-1.08c-1.53-.32-3.26-.61-5.14-.86h-.05l-.09-.06-.74-1.09L29.16,14l.84.08c1.49.13,3.77.38,6.12.8l.35.06-.18.31a2.72,2.72,0,0,0-.38,1.27v.29ZM16.15,14.09l.59,0c1.86-.16,3.93-.25,6-.26h.06l.09,0,.79,1,.47.7h-.89c-2.2,0-4.18.07-6.07.23l-.31,0Zm16.45-1.5.15-.5c1.56-4.88,1.76-8.46.52-9.11a1,1,0,0,0-.5-.11c-1.11,0-3.89,1.17-9.93,9l0,0-.09,0-1.31.1h-.86L21,11.4C23.41,8,29.38.11,33.47.11a2.83,2.83,0,0,1,1.44.37C37.1,1.75,37,6,34.67,12.52l-.12.32ZM20.69,8c-3-3.28-5.55-5.16-7-5.16a1.09,1.09,0,0,0-.61.16c-.26.17-.85.8-.64,3.05l0,.27h-.27a2.76,2.76,0,0,0-1.41.35l-.24.15-.2-.23v0c-.57-3.27-.1-5.36,1.4-6.23A2.77,2.77,0,0,1,13.09,0C15.3,0,18.38,2.27,22,6.58l.23.26L21,8.41Z" fill="#ca9e43"/><circle cx="38.64" cy="16.64" r="2.4" fill="#109ed9"/><path d="M14.53,9.07a2.41,2.41,0,1,0-2.41,2.4A2.41,2.41,0,0,0,14.53,9.07Z" fill="#109ed9"/><path d="M21.23,35.82a2.41,2.41,0,1,0-2.4,2.4A2.4,2.4,0,0,0,21.23,35.82Z" fill="#109ed9"/><path d="M26.89,20.51A3.69,3.69,0,1,0,23.2,24.2,3.69,3.69,0,0,0,26.89,20.51Z" fill="#109ed9"/><path d="M43.83,28.94v.36a.7.7,0,0,1-.7.7H43V44.61a1.88,1.88,0,0,1-1.89,1.88h-.65a1.8,1.8,0,0,1-1.81-1.8V30h-.17a.71.71,0,0,1-.71-.7v-.36a.71.71,0,0,1,.71-.7h4.7A.7.7,0,0,1,43.83,28.94Z" fill="#ca9e43"/><path d="M52.81,29v.35a.71.71,0,0,1-.71.71h-.17v14.6A1.89,1.89,0,0,1,50,46.5h-.66a1.81,1.81,0,0,1-1.8-1.8V30H47.4a.7.7,0,0,1-.7-.71V29a.7.7,0,0,1,.7-.7h4.7A.7.7,0,0,1,52.81,29Z" fill="#ca9e43"/><path d="M56.4,49.67a1,1,0,0,1,0,.25,1.2,1.2,0,0,1-.27.48,1.07,1.07,0,0,1-.73.3H35.42a1,1,0,0,1-1-.78,1,1,0,0,1,0-.25,1,1,0,0,1,.31-.73,1,1,0,0,1,.72-.3H55.37A1,1,0,0,1,56.4,49.67Z" fill="#109ed9"/><rect x="44.67" y="23.07" width="1.03" height="17.65" transform="translate(13.3 77.09) rotate(-90)" fill="#109ed9"/><rect x="44.75" y="29.9" width="1.02" height="18.76" fill="#109ed9"/><path d="M56.4,49.67a1,1,0,0,1,0,.25H34.43a1,1,0,0,1,0-.25,1,1,0,0,1,.31-.73,1,1,0,0,1,.72-.3H55.37A1,1,0,0,1,56.4,49.67Z" fill="#109ed9"/></g></g></svg>