<svg xmlns="http://www.w3.org/2000/svg" viewBox="0 0 53.3 53.3"><g id="Layer_2" data-name="Layer 2"><g id="workerdosesblock"><g id="Layer_9" data-name="Layer 9"><ellipse cx="26.75" cy="28.01" rx="19.59" ry="24.09" fill="#fff"/></g><path d="M25.59,21.9c0-2.33-2.94-3.16-5.27-3.16S16.1,19.79,16.1,23a4.22,4.22,0,0,0,4.22,4.22C22.65,27.18,25.59,24.23,25.59,21.9ZM33,18.74c-2.33,0-5.28.83-5.28,3.16s2.95,5.28,5.28,5.28A4.22,4.22,0,0,0,37.2,23C37.2,19.79,35.31,18.74,33,18.74ZM26.65,31.4a3.17,3.17,0,1,0,3.17,3.16A3.16,3.16,0,0,0,26.65,31.4Zm-1.32,5a1.06,1.06,0,1,1,1.06-1.06A1.05,1.05,0,0,1,25.33,36.41Zm.26-3.17a1.06,1.06,0,1,1,1.06,1.06A1.06,1.06,0,0,1,25.59,33.24ZM28,36.41a1.06,1.06,0,1,1,0-2.11,1.06,1.06,0,0,1,0,2.11ZM26.65,0A26.65,26.65,0,1,0,53.3,26.65,26.65,26.65,0,0,0,26.65,0ZM44.41,35.94l-5.82,8.8a1.05,1.05,0,0,1-1.46.3l-4.4-2.91a1.05,1.05,0,0,1-.3-1.46l1.16-1.76-1.1-.73a8.55,8.55,0,0,1-5.84,2.71,8.55,8.55,0,0,1-5.84-2.71l-1.1.73,1.16,1.76a1.05,1.05,0,0,1-.3,1.46L16.17,45a1.05,1.05,0,0,1-1.46-.3l-5.82-8.8a1.05,1.05,0,0,1,.3-1.46l4.4-2.91a1,1,0,0,1,1.46.3l1.16,1.76.92-.61a29.44,29.44,0,0,1-2.67-8h-1A1.06,1.06,0,0,1,12.41,24V19.79a1,1,0,0,1,1.05-1.05h.6c.49-5.81,4-9.33,9.42-10.28v-.8a1.06,1.06,0,0,1,1.06-1h4.22a1.06,1.06,0,0,1,1.06,1v.8c5.47.95,8.93,4.47,9.43,10.28h.59a1,1,0,0,1,1,1.05V24a1.06,1.06,0,0,1-1,1.06h-1a29.1,29.1,0,0,1-2.67,8l.92.61,1.16-1.76a1.05,1.05,0,0,1,1.46-.3l4.4,2.91A1.05,1.05,0,0,1,44.41,35.94Z" fill="#ca9e43"/></g></g></svg>