<svg xmlns="http://www.w3.org/2000/svg" viewBox="0 0 54.3 54.3"><g id="Layer_2" data-name="Layer 2"><g id="Layer_7" data-name="Layer 7"><path d="M26.09,22.4c0-2.33-2.94-3.16-5.27-3.16s-4.22,1.05-4.22,4.22a4.22,4.22,0,0,0,4.22,4.22C23.15,27.68,26.09,24.73,26.09,22.4Zm7.39-3.16c-2.33,0-5.28.83-5.28,3.16s2.95,5.28,5.28,5.28a4.22,4.22,0,0,0,4.22-4.22C37.7,20.29,35.81,19.24,33.48,19.24ZM27.15,31.9a3.17,3.17,0,1,0,3.17,3.16A3.16,3.16,0,0,0,27.15,31.9Zm-1.32,5a1.06,1.06,0,1,1,1.06-1.06A1.05,1.05,0,0,1,25.83,36.91Zm.26-3.17a1.06,1.06,0,1,1,1.06,1.06A1.06,1.06,0,0,1,26.09,33.74Zm2.38,3.17a1.06,1.06,0,1,1,0-2.11,1.06,1.06,0,0,1,0,2.11ZM27.15.5A26.65,26.65,0,1,0,53.8,27.15,26.65,26.65,0,0,0,27.15.5ZM44.91,36.44l-5.82,8.8a1.05,1.05,0,0,1-1.46.3l-4.4-2.91a1.05,1.05,0,0,1-.3-1.46l1.16-1.76L33,38.68a8.55,8.55,0,0,1-5.84,2.71,8.55,8.55,0,0,1-5.84-2.71l-1.1.73,1.16,1.76a1.05,1.05,0,0,1-.3,1.46l-4.4,2.91a1.05,1.05,0,0,1-1.46-.3l-5.82-8.8A1.05,1.05,0,0,1,9.69,35l4.4-2.91a1,1,0,0,1,1.46.3l1.16,1.76.92-.61a29.44,29.44,0,0,1-2.67-8H14a1.06,1.06,0,0,1-1.05-1.06V20.29A1,1,0,0,1,14,19.24h.6c.49-5.81,4-9.33,9.42-10.28v-.8a1.06,1.06,0,0,1,1.06-1h4.22a1.06,1.06,0,0,1,1.06,1V9c5.47.95,8.93,4.47,9.43,10.28h.59a1,1,0,0,1,1,1.05v4.22a1.06,1.06,0,0,1-1,1.06h-1a29.1,29.1,0,0,1-2.67,8l.92.61,1.16-1.76a1.05,1.05,0,0,1,1.46-.3L44.61,35A1.05,1.05,0,0,1,44.91,36.44Z" fill="#fff" stroke="#ca9e43" stroke-miterlimit="10"/></g></g></svg>