<svg xmlns="http://www.w3.org/2000/svg" width="91" height="62" viewBox="0 0 91 62">
  <g id="_2030" data-name="2030" transform="translate(0 0.5)">
    <rect id="base" width="91" height="62" transform="translate(0 -0.5)" fill="none"/>
    <path id="Path_99" data-name="Path 99" d="M211.634,182.309q-.581.265-1.177.493.292.613.619,1.205.619-.3,1.223-.639-.348-.518-.664-1.059Z" transform="translate(-181.266 -142.387)" fill="#e9d700" fill-rule="evenodd"/>
    <path id="Path_100" data-name="Path 100" d="M186.012,168.852l-3.541-2.86s3.309-5.3,9.348-4.733c0,0,5.1.267,6.673,4.381,0,0,1.771,5.488-2.3,9.117,0,0-6.45,5.669-9.036,7.087l3.069-1.314h8.967v4.426H182.158v-4.184l9.45-7.64c2-1.614,3.473-4.858,1.034-6.857a2.889,2.889,0,0,0-2.4-.593c-1.71.3-3.3,2.1-4.23,3.166Z" transform="translate(-181.833 -142.81)" fill="#8c8c8e" fill-rule="evenodd"/>
    <path id="Path_101" data-name="Path 101" d="M229.652,165.789l0-4.252h15.547v3.8l-5.84,5.735s4.886.491,6.076,5.076c1.339,5.166-3.225,9.513-8.68,9.125a11.172,11.172,0,0,1-8.377-4.087l3.239-3.191s2.4,3.135,5.864,2.687c0,0,3.027,0,3.179-2.667.2-3.515-3.964-3.645-6.641-3.324l-.782-3.135,7.483-7.5-2.959,1.736Z" transform="translate(-180.906 -142.804)" fill="#8c8c8e" fill-rule="evenodd"/>
    <path id="Path_102" data-name="Path 102" d="M259.256,161a12.164,12.164,0,1,1-12.208,12.164A12.15,12.15,0,0,1,259.256,161Zm0,4.641a7.54,7.54,0,1,1-7.024,7.523A7.3,7.3,0,0,1,259.256,165.639Z" transform="translate(-180.532 -142.814)" fill="#8c8c8e" fill-rule="evenodd"/>
    <path id="Path_103" data-name="Path 103" d="M214.518,163.03q.434-.424.9-.819-.433-.5-.9-.97-.469.469-.9.97Q214.085,162.607,214.518,163.03Z" transform="translate(-181.202 -142.809)" fill="#e9d700" fill-rule="evenodd"/>
    <path id="Path_104" data-name="Path 104" d="M214.555,159.678q.594-.607,1.241-1.164-.592-.729-1.241-1.4-.647.671-1.241,1.4.645.557,1.241,1.164Z" transform="translate(-181.208 -142.892)" fill="#8bbb2a" fill-rule="evenodd"/>
    <path id="Path_105" data-name="Path 105" d="M216.2,161.6q.578-.433,1.2-.824-.407-.655-.857-1.277-.637.477-1.229,1,.464.534.89,1.1Z" transform="translate(-181.168 -142.845)" fill="#8c8c8e" fill-rule="evenodd"/>
    <path id="Path_106" data-name="Path 106" d="M218.567,165.423q-.211-.479-.445-.945.546-.2,1.106-.365.216.523.406,1.061-.541.106-1.067.25Z" transform="translate(-181.112 -142.752)" fill="#46bbc6" fill-rule="evenodd"/>
    <path id="Path_107" data-name="Path 107" d="M217.033,165.926q-.241-.388-.508-.767c.295-.144.593-.281.9-.407q.25.427.475.866-.438.141-.863.308Z" transform="translate(-181.144 -142.739)" fill="#8bbb2a" fill-rule="evenodd"/>
    <path id="Path_108" data-name="Path 108" d="M217.618,163.549q-.32-.554-.675-1.086.594-.33,1.2-.621.331.6.627,1.231-.585.219-1.154.477Z" transform="translate(-181.136 -142.798)" fill="#8bbb2a" fill-rule="evenodd"/>
    <path id="Path_109" data-name="Path 109" d="M215.947,164.4q-.356-.441-.747-.86.481-.327.974-.628c.248.32.485.649.709.983Q216.409,164.134,215.947,164.4Z" transform="translate(-181.171 -142.776)" fill="#46bbc6" fill-rule="evenodd"/>
    <path id="Path_110" data-name="Path 110" d="M212.877,161.624q.423-.564.886-1.1-.589-.524-1.225-1-.446.621-.851,1.274.616.392,1.192.825Z" transform="translate(-181.241 -142.844)" fill="#003980" fill-rule="evenodd"/>
    <path id="Path_111" data-name="Path 111" d="M214.518,182.819q.434.423.9.819-.433.5-.9.97-.469-.47-.9-.97Q214.085,183.243,214.518,182.819Z" transform="translate(-181.202 -142.377)" fill="#00abe7" fill-rule="evenodd"/>
    <path id="Path_112" data-name="Path 112" d="M214.555,186.189q.594.607,1.241,1.164-.592.729-1.241,1.4-.647-.672-1.241-1.4.645-.556,1.241-1.164Z" transform="translate(-181.208 -142.309)" fill="#e9d700" fill-rule="evenodd"/>
    <path id="Path_113" data-name="Path 113" d="M216.2,184.259q.578.432,1.2.823-.407.654-.857,1.277-.637-.477-1.229-1Q215.777,184.824,216.2,184.259Z" transform="translate(-181.168 -142.348)" fill="#46bbc6" fill-rule="evenodd"/>
    <path id="Path_114" data-name="Path 114" d="M212.877,184.232q.423.565.886,1.1-.589.525-1.225,1-.446-.621-.851-1.275.616-.391,1.192-.826Z" transform="translate(-181.241 -142.349)" fill="#8bbb2a" fill-rule="evenodd"/>
    <path id="Path_115" data-name="Path 115" d="M220.26,164.81q.6-.093,1.209-.144-.063-.66-.173-1.314-.654.109-1.3.266.152.594.26,1.191Z" transform="translate(-181.074 -142.767)" fill="#e9d700" fill-rule="evenodd"/>
    <path id="Path_116" data-name="Path 116" d="M222.234,162.1q.836-.148,1.684-.226-.061-.938-.2-1.862-.916.171-1.822.419.2.827.337,1.668Z" transform="translate(-181.036 -142.834)" fill="#00abe7" fill-rule="evenodd"/>
    <path id="Path_117" data-name="Path 117" d="M222.461,164.617q.72-.016,1.451.025.047-.77.041-1.538-.8.017-1.581.1.069.7.089,1.413Z" transform="translate(-181.027 -142.772)" fill="#46bbc6" fill-rule="evenodd"/>
    <path id="Path_118" data-name="Path 118" d="M222.482,167.035c.039-.425.066-.851.077-1.276q.674.077,1.339.192-.08.684-.2,1.367-.6-.161-1.216-.283Z" transform="translate(-181.025 -142.719)" fill="#8c8c8e" fill-rule="evenodd"/>
    <path id="Path_119" data-name="Path 119" d="M220.628,166.756q-.035-.567-.111-1.135.58.013,1.157.055.026.608.009,1.214-.525-.081-1.055-.134Z" transform="translate(-181.064 -142.722)" fill="#8bbb2a" fill-rule="evenodd"/>
    <path id="Path_120" data-name="Path 120" d="M219,166.755q-.124-.442-.275-.878c.323-.057.647-.105.973-.143q.123.478.216.964c-.306.009-.611.029-.914.057Z" transform="translate(-181.1 -142.719)" fill="#8c8c8e" fill-rule="evenodd"/>
    <path id="Path_121" data-name="Path 121" d="M219.74,162.71q.672-.213,1.357-.379-.176-.769-.418-1.528-.723.245-1.432.543.276.677.493,1.366Z" transform="translate(-181.089 -142.818)" fill="#003980" fill-rule="evenodd"/>
    <path id="Path_122" data-name="Path 122" d="M208.806,180.928q.108.6.26,1.192-.641.155-1.3.265-.111-.655-.173-1.314.61-.051,1.209-.144Z" transform="translate(-181.323 -142.415)" fill="#e9d700" fill-rule="evenodd"/>
    <path id="Path_123" data-name="Path 123" d="M208.578,179.083q.035.568.111,1.136-.58-.013-1.157-.055-.026-.607-.008-1.214.524.082,1.055.134Z" transform="translate(-181.325 -142.455)" fill="#00abe7" fill-rule="evenodd"/>
    <path id="Path_124" data-name="Path 124" d="M206.889,183.688q.132.84.337,1.668-.9.25-1.822.419c-.092-.616-.16-1.237-.2-1.862q.848-.077,1.685-.226Z" transform="translate(-181.371 -142.36)" fill="#00abe7" fill-rule="evenodd"/>
    <path id="Path_125" data-name="Path 125" d="M209.346,183.08q.219.688.5,1.366-.711.3-1.437.541-.243-.759-.422-1.53Q208.672,183.294,209.346,183.08Z" transform="translate(-181.315 -142.372)" fill="#46bbc6" fill-rule="evenodd"/>
    <path id="Path_126" data-name="Path 126" d="M213.493,181.33c-.3.179-.6.349-.91.511q.329.482.69.941.478-.3.944-.628-.378-.4-.725-.825Z" transform="translate(-181.223 -142.407)" fill="#8c8c8e" fill-rule="evenodd"/>
    <path id="Path_127" data-name="Path 127" d="M212.535,180.025q-.422.177-.857.33.234.432.493.854.45-.2.888-.429-.275-.37-.524-.753Z" transform="translate(-181.241 -142.433)" fill="#8c8c8e" fill-rule="evenodd"/>
    <path id="Path_128" data-name="Path 128" d="M210.764,180.642q-.546.152-1.106.266.2.545.43,1.078.581-.174,1.148-.388-.248-.471-.471-.955Z" transform="translate(-181.282 -142.421)" fill="#003980" fill-rule="evenodd"/>
    <path id="Path_129" data-name="Path 129" d="M210.228,179.094q-.457.027-.918.026.078.487.184.97c.327-.027.654-.065.979-.111-.091-.293-.172-.588-.245-.884Z" transform="translate(-181.289 -142.452)" fill="#8bbb2a" fill-rule="evenodd"/>
    <path id="Path_130" data-name="Path 130" d="M206.652,181.12q.017.705.086,1.41-.782.084-1.577.1-.005-.765.043-1.534Q205.932,181.138,206.652,181.12Z" transform="translate(-181.372 -142.411)" fill="#8bbb2a" fill-rule="evenodd"/>
    <path id="Path_131" data-name="Path 131" d="M223.943,169.706q.538.278,1.061.6.336-.569.632-1.164-.593-.3-1.2-.55Q224.206,169.16,223.943,169.706Z" transform="translate(-180.995 -142.662)" fill="#e9d700" fill-rule="evenodd"/>
    <path id="Path_132" data-name="Path 132" d="M220.45,168.4q.445.106.887.24.065-.488.1-.98c-.322-.069-.645-.127-.97-.178q0,.46-.019.918Z" transform="translate(-181.065 -142.685)" fill="#8bbb2a" fill-rule="evenodd"/>
    <path id="Path_133" data-name="Path 133" d="M222.247,168.95q.531.2,1.05.439.158-.56.286-1.125-.572-.2-1.155-.364Q222.35,168.427,222.247,168.95Z" transform="translate(-181.029 -142.676)" fill="#00abe7" fill-rule="evenodd"/>
    <path id="Path_134" data-name="Path 134" d="M227.139,168.676q.762.373,1.493.812.5-.794.933-1.623c-.561-.268-1.133-.516-1.718-.737q-.322.79-.708,1.548Z" transform="translate(-180.931 -142.692)" fill="#003980" fill-rule="evenodd"/>
    <path id="Path_135" data-name="Path 135" d="M225.839,170.852q.592.413,1.158.877.491-.6.937-1.219-.652-.455-1.336-.853-.358.61-.759,1.194Z" transform="translate(-180.957 -142.641)" fill="#8bbb2a" fill-rule="evenodd"/>
    <path id="Path_136" data-name="Path 136" d="M224.758,167.7q.668.224,1.32.495.309-.727.56-1.482-.729-.228-1.476-.407-.175.71-.4,1.394Z" transform="translate(-180.979 -142.708)" fill="#46bbc6" fill-rule="evenodd"/>
    <path id="Path_137" data-name="Path 137" d="M205.217,175.97q-.264.546-.49,1.116-.61-.253-1.2-.55.3-.595.633-1.164.522.32,1.061.6Z" transform="translate(-181.405 -142.526)" fill="#46bbc6" fill-rule="evenodd"/>
    <path id="Path_138" data-name="Path 138" d="M207.219,172.826q-.293.353-.565.726-.344-.352-.669-.722.324-.372.669-.726.271.371.565.722Z" transform="translate(-181.355 -142.592)" fill="#8bbb2a" fill-rule="evenodd"/>
    <path id="Path_139" data-name="Path 139" d="M206.116,174.349q-.3.478-.577.983-.462-.354-.9-.727.337-.506.706-.987.376.375.774.731Z" transform="translate(-181.382 -142.562)" fill="#e9d700" fill-rule="evenodd"/>
    <path id="Path_140" data-name="Path 140" d="M202.053,177.07q-.387.757-.709,1.548-.877-.333-1.718-.737.431-.828.933-1.624.731.438,1.494.812Z" transform="translate(-181.483 -142.508)" fill="#46bbc6" fill-rule="evenodd"/>
    <path id="Path_141" data-name="Path 141" d="M204.39,178.026q-.226.685-.4,1.4-.748-.18-1.48-.411.25-.757.558-1.486.653.271,1.322.5Z" transform="translate(-181.425 -142.483)" fill="#e9d700" fill-rule="evenodd"/>
    <path id="Path_142" data-name="Path 142" d="M208.753,177.441q-.445-.106-.887-.24-.064.488-.1.98.482.1.97.177c0-.307,0-.613.019-.918Z" transform="translate(-181.32 -142.49)" fill="#8c8c8e" fill-rule="evenodd"/>
    <path id="Path_143" data-name="Path 143" d="M206.687,178.751q-.625-.129-1.241-.3-.124.669-.209,1.34.677.124,1.363.206c.015-.417.045-.833.086-1.248Z" transform="translate(-181.37 -142.465)" fill="#8c8c8e" fill-rule="evenodd"/>
    <path id="Path_144" data-name="Path 144" d="M206.963,176.9q-.531-.2-1.05-.439-.157.56-.286,1.125.572.2,1.156.364.077-.526.181-1.05Z" transform="translate(-181.362 -142.505)" fill="#8bbb2a" fill-rule="evenodd"/>
    <path id="Path_145" data-name="Path 145" d="M207.439,175.33q-.387-.248-.757-.521c-.149.293-.29.59-.421.892q.42.257.856.489.147-.436.322-.86Z" transform="translate(-181.35 -142.538)" fill="#003980" fill-rule="evenodd"/>
    <path id="Path_146" data-name="Path 146" d="M203.367,174.856q-.4.581-.759,1.189-.683-.394-1.336-.848.446-.62.936-1.214.565.463,1.158.872Z" transform="translate(-181.45 -142.554)" fill="#00abe7" fill-rule="evenodd"/>
    <path id="Path_147" data-name="Path 147" d="M224.039,175.845q.271.543.5,1.11.607-.261,1.2-.566-.3-.591-.648-1.155-.518.325-1.053.611Z" transform="translate(-180.993 -142.529)" fill="#003980" fill-rule="evenodd"/>
    <path id="Path_148" data-name="Path 148" d="M222.935,171.421q.391.346.763.712.357-.461.684-.946-.431-.365-.884-.71-.266.484-.562.944Z" transform="translate(-181.016 -142.624)" fill="#8c8c8e" fill-rule="evenodd"/>
    <path id="Path_149" data-name="Path 149" d="M221.987,172.728q.3.349.574.718c.226-.238.447-.481.658-.731q-.329-.368-.679-.717-.267.375-.556.73Z" transform="translate(-181.035 -142.594)" fill="#46bbc6" fill-rule="evenodd"/>
    <path id="Path_150" data-name="Path 150" d="M224.433,172.9q.429.473.827.974.493-.466.957-.958-.474-.5-.98-.973-.387.491-.8.957Z" transform="translate(-180.985 -142.595)" fill="#e9d700" fill-rule="evenodd"/>
    <path id="Path_151" data-name="Path 151" d="M223.113,174.235q.31.474.59.975.457-.359.893-.739-.343-.5-.719-.977-.371.38-.764.741Z" transform="translate(-181.012 -142.564)" fill="#003980" fill-rule="evenodd"/>
    <path id="Path_152" data-name="Path 152" d="M227.231,176.9q.4.752.728,1.538.873-.344,1.709-.759-.442-.822-.954-1.611-.726.447-1.483.832Z" transform="translate(-180.929 -142.512)" fill="#00abe7" fill-rule="evenodd"/>
    <path id="Path_153" data-name="Path 153" d="M221.7,170.573c.264.153.526.314.781.483q.2-.45.377-.911-.433-.237-.879-.447Q221.855,170.141,221.7,170.573Z" transform="translate(-181.04 -142.64)" fill="#8bbb2a" fill-rule="evenodd"/>
    <path id="Path_154" data-name="Path 154" d="M224.9,177.89q.236.683.419,1.393.746-.191,1.474-.431-.259-.754-.577-1.479Q225.564,177.655,224.9,177.89Z" transform="translate(-180.976 -142.486)" fill="#46bbc6" fill-rule="evenodd"/>
    <path id="Path_155" data-name="Path 155" d="M225.883,174.707q.408.576.774,1.18.678-.4,1.324-.865-.453-.615-.952-1.2-.559.47-1.147.887Z" transform="translate(-180.956 -142.557)" fill="#46bbc6" fill-rule="evenodd"/>
    <path id="Path_156" data-name="Path 156" d="M205.232,169.83q-.534.285-1.053.611-.344-.564-.647-1.156.589-.305,1.2-.566.233.567.5,1.11Z" transform="translate(-181.404 -142.66)" fill="#00abe7" fill-rule="evenodd"/>
    <path id="Path_157" data-name="Path 157" d="M202.038,168.842q-.758.384-1.483.832-.513-.787-.954-1.611.835-.414,1.709-.76.333.786.729,1.539Z" transform="translate(-181.483 -142.688)" fill="#46bbc6" fill-rule="evenodd"/>
    <path id="Path_158" data-name="Path 158" d="M203.36,171q-.586.42-1.146.892-.5-.59-.953-1.207.647-.466,1.325-.87.366.605.774,1.184Z" transform="translate(-181.45 -142.638)" fill="#8bbb2a" fill-rule="evenodd"/>
    <path id="Path_159" data-name="Path 159" d="M204.785,172.949q-.429-.473-.827-.974-.494.465-.957.958.474.5.98.973.387-.492.8-.957Z" transform="translate(-181.415 -142.594)" fill="#003980" fill-rule="evenodd"/>
    <path id="Path_160" data-name="Path 160" d="M206.1,171.612q-.309-.474-.59-.975-.457.36-.893.739.342.5.719.977.37-.381.764-.741Z" transform="translate(-181.383 -142.621)" fill="#46bbc6" fill-rule="evenodd"/>
    <path id="Path_161" data-name="Path 161" d="M204.394,167.833q-.665.233-1.313.512-.319-.722-.581-1.474.726-.237,1.471-.427.185.708.422,1.389Z" transform="translate(-181.425 -142.705)" fill="#003980" fill-rule="evenodd"/>
    <path id="Path_162" data-name="Path 162" d="M220.513,180.841q-.1.6-.245,1.2.643.147,1.3.249.1-.657.154-1.316-.611-.043-1.21-.128Z" transform="translate(-181.069 -142.417)" fill="#8bbb2a" fill-rule="evenodd"/>
    <path id="Path_163" data-name="Path 163" d="M222.22,176.617q.113.511.2,1.027.558-.161,1.108-.361-.135-.55-.3-1.1-.5.233-1.009.43Z" transform="translate(-181.03 -142.51)" fill="#e9d700" fill-rule="evenodd"/>
    <path id="Path_164" data-name="Path 164" d="M220.684,177.113q.034.458.042.92c.322-.058.644-.124.963-.2q-.049-.492-.127-.98-.435.144-.878.261Z" transform="translate(-181.061 -142.497)" fill="#46bbc6" fill-rule="evenodd"/>
    <path id="Path_165" data-name="Path 165" d="M222.56,178.7q.068.636.1,1.275.674-.085,1.336-.209-.089-.684-.22-1.365c-.4.113-.8.211-1.212.3Z" transform="translate(-181.023 -142.466)" fill="#8bbb2a" fill-rule="evenodd"/>
    <path id="Path_166" data-name="Path 166" d="M220.709,179q-.028.567-.1,1.136.581-.02,1.156-.07.018-.608-.007-1.214-.524.088-1.053.147Z" transform="translate(-181.062 -142.457)" fill="#8c8c8e" fill-rule="evenodd"/>
    <path id="Path_167" data-name="Path 167" d="M222.475,183.576q-.122.842-.316,1.673.907.237,1.827.4c.084-.616.144-1.239.176-1.865q-.849-.067-1.687-.2Z" transform="translate(-181.031 -142.362)" fill="#8bbb2a" fill-rule="evenodd"/>
    <path id="Path_168" data-name="Path 168" d="M221.722,175.207q.186.42.348.854.426-.244.84-.512-.211-.447-.448-.881-.362.283-.74.543Z" transform="translate(-181.04 -142.54)" fill="#8c8c8e" fill-rule="evenodd"/>
    <path id="Path_169" data-name="Path 169" d="M220.007,183q-.211.69-.48,1.373.715.286,1.443.523.233-.761.4-1.535Q220.683,183.205,220.007,183Z" transform="translate(-181.084 -142.373)" fill="#46bbc6" fill-rule="evenodd"/>
    <path id="Path_170" data-name="Path 170" d="M215.834,181.3q.452.263.916.5-.323.485-.678.95-.482-.3-.952-.615.373-.407.715-.834Z" transform="translate(-181.172 -142.407)" fill="#e9d700" fill-rule="evenodd"/>
    <path id="Path_171" data-name="Path 171" d="M216.769,179.987q.426.172.861.318-.228.436-.483.859-.453-.2-.894-.418.271-.372.515-.76Z" transform="translate(-181.149 -142.434)" fill="#8c8c8e" fill-rule="evenodd"/>
    <path id="Path_172" data-name="Path 172" d="M217.709,182.259q.583.257,1.184.477-.285.617-.6,1.213-.623-.292-1.231-.623Q217.4,182.8,217.709,182.259Z" transform="translate(-181.133 -142.388)" fill="#8c8c8e" fill-rule="evenodd"/>
    <path id="Path_173" data-name="Path 173" d="M218.552,180.58q.548.145,1.11.251-.194.548-.417,1.084-.582-.167-1.153-.374.242-.474.459-.961Z" transform="translate(-181.113 -142.422)" fill="#8bbb2a" fill-rule="evenodd"/>
    <path id="Path_174" data-name="Path 174" d="M214.641,180.4q.342.3.7.589-.361.334-.741.648-.362-.337-.7-.694c.253-.173.5-.355.739-.543Z" transform="translate(-181.197 -142.425)" fill="#003980" fill-rule="evenodd"/>
    <path id="Path_175" data-name="Path 175" d="M219.061,179.026q.457.02.918.014c-.048.325-.1.649-.171.97-.328-.022-.655-.056-.981-.1.088-.294.164-.59.232-.887Z" transform="translate(-181.098 -142.453)" fill="#8c8c8e" fill-rule="evenodd"/>
    <path id="Path_176" data-name="Path 176" d="M222.67,181.007q-.009.706-.067,1.411.784.075,1.579.083-.006-.764-.063-1.534-.729.049-1.449.039Z" transform="translate(-181.022 -142.414)" fill="#003980" fill-rule="evenodd"/>
    <path id="Path_177" data-name="Path 177" d="M208.852,164.872q-.6-.086-1.21-.128.055-.66.154-1.316.655.1,1.3.249-.144.6-.245,1.194Z" transform="translate(-181.322 -142.766)" fill="#e9d700" fill-rule="evenodd"/>
    <path id="Path_178" data-name="Path 178" d="M213.389,164.516q-.451-.262-.916-.5.322-.486.678-.95.483.3.953.615-.373.407-.715.834Z" transform="translate(-181.225 -142.773)" fill="#e9d700" fill-rule="evenodd"/>
    <path id="Path_179" data-name="Path 179" d="M212.449,165.828q-.426-.172-.862-.319.229-.436.483-.859.453.2.894.419-.271.372-.514.759Z" transform="translate(-181.243 -142.741)" fill="#8c8c8e" fill-rule="evenodd"/>
    <path id="Path_180" data-name="Path 180" d="M211.517,163.567q-.584-.258-1.184-.477.284-.617.6-1.213.623.292,1.231.623Q211.825,163.022,211.517,163.567Z" transform="translate(-181.268 -142.797)" fill="#00abe7" fill-rule="evenodd"/>
    <path id="Path_181" data-name="Path 181" d="M210.668,165.238q-.548-.145-1.109-.251.193-.549.416-1.084.583.166,1.153.374-.242.473-.459.961Z" transform="translate(-181.284 -142.756)" fill="#8bbb2a" fill-rule="evenodd"/>
    <path id="Path_182" data-name="Path 182" d="M206.855,162.184q-.837-.138-1.687-.2.048-.939.176-1.865.918.159,1.827.4-.194.832-.316,1.674Z" transform="translate(-181.372 -142.832)" fill="#8bbb2a" fill-rule="evenodd"/>
    <path id="Path_183" data-name="Path 183" d="M214.578,165.415q-.343-.3-.705-.589.361-.335.742-.648.362.337.7.694-.379.261-.738.543Z" transform="translate(-181.197 -142.751)" fill="#8bbb2a" fill-rule="evenodd"/>
    <path id="Path_184" data-name="Path 184" d="M206.651,164.708q-.72-.008-1.451.043-.056-.769-.06-1.537.8.007,1.582.078-.06.706-.07,1.414Z" transform="translate(-181.372 -142.77)" fill="#8c8c8e" fill-rule="evenodd"/>
    <path id="Path_185" data-name="Path 185" d="M207,169.2q-.113-.511-.2-1.027-.56.162-1.109.361.135.55.3,1.1.5-.233,1.009-.43Z" transform="translate(-181.361 -142.671)" fill="#e9d700" fill-rule="evenodd"/>
    <path id="Path_186" data-name="Path 186" d="M208.528,168.7q-.035-.457-.043-.919-.484.087-.963.2c.033.328.077.655.127.98q.436-.145.878-.261Z" transform="translate(-181.324 -142.678)" fill="#8bbb2a" fill-rule="evenodd"/>
    <path id="Path_187" data-name="Path 187" d="M206.659,167.128q-.069-.637-.1-1.276-.673.086-1.336.209.089.684.22,1.365c.4-.113.8-.211,1.212-.3Z" transform="translate(-181.37 -142.717)" fill="#8bbb2a" fill-rule="evenodd"/>
    <path id="Path_188" data-name="Path 188" d="M208.5,166.824q.027-.567.1-1.136-.581.019-1.156.069-.017.608.007,1.214Q207.974,166.883,208.5,166.824Z" transform="translate(-181.326 -142.72)" fill="#46bbc6" fill-rule="evenodd"/>
    <path id="Path_189" data-name="Path 189" d="M207.492,170.613q-.185-.42-.348-.854-.426.245-.84.512.21.447.447.881.362-.283.74-.543Z" transform="translate(-181.349 -142.639)" fill="#8c8c8e" fill-rule="evenodd"/>
    <path id="Path_190" data-name="Path 190" d="M210.133,166.8q.118-.443.264-.881-.485-.08-.975-.13c-.077.32-.145.643-.2.966.306.005.611.022.915.045Z" transform="translate(-181.29 -142.718)" fill="#003980" fill-rule="evenodd"/>
    <path id="Path_191" data-name="Path 191" d="M209.354,162.765q-.674-.2-1.362-.362.166-.772.4-1.533.726.236,1.439.523-.267.681-.475,1.371Z" transform="translate(-181.315 -142.817)" fill="#46bbc6" fill-rule="evenodd"/>
    <path id="Path_192" data-name="Path 192" d="M182.308,203.186v-4.718h.624v2.339l2.337-2.339h.844l-1.974,1.911,2.061,2.807h-.822L183.7,200.8l-.771.753v1.635Zm85.007,0,1.808-4.718h.671l1.927,4.718h-.71l-.549-1.429h-1.968l-.516,1.429Zm1.358-1.938h1.6l-.492-1.307q-.224-.6-.333-.979a6.027,6.027,0,0,1-.254.9Zm-2.561,1.938v-4.718h.623v4.718Zm-4.519,0v-4.718h1.767a2.192,2.192,0,0,1,.865.142,1.11,1.11,0,0,1,.51.442,1.165,1.165,0,0,1,.185.623,1.065,1.065,0,0,1-.164.569,1.174,1.174,0,0,1-.494.432,1.225,1.225,0,0,1,.658.427,1.148,1.148,0,0,1,.233.715,1.384,1.384,0,0,1-.14.616,1.2,1.2,0,0,1-.346.439,1.438,1.438,0,0,1-.515.233,3.105,3.105,0,0,1-.759.078Zm.623-2.735h1.018a2.278,2.278,0,0,0,.594-.055.657.657,0,0,0,.357-.235.679.679,0,0,0,.121-.412.763.763,0,0,0-.112-.413.573.573,0,0,0-.321-.245,2.69,2.69,0,0,0-.717-.066h-.94v1.426Zm0,2.179h1.171a2.741,2.741,0,0,0,.426-.022,1.02,1.02,0,0,0,.36-.13.683.683,0,0,0,.238-.261.829.829,0,0,0,.093-.4.79.79,0,0,0-.135-.459.712.712,0,0,0-.375-.274,2.355,2.355,0,0,0-.688-.078h-1.088v1.621Zm-5.5.557,1.809-4.718h.671l1.927,4.718h-.71l-.549-1.429H257.9l-.516,1.429Zm1.358-1.938h1.6l-.492-1.307q-.224-.595-.333-.979a6.024,6.024,0,0,1-.254.9Zm-5.579,1.938v-4.718h2.087a2.769,2.769,0,0,1,.957.127,1.051,1.051,0,0,1,.524.448,1.348,1.348,0,0,1,.193.712,1.183,1.183,0,0,1-.324.846,1.638,1.638,0,0,1-1,.438,1.574,1.574,0,0,1,.376.235,3.306,3.306,0,0,1,.517.627l.819,1.284h-.783l-.623-.982c-.182-.282-.332-.5-.45-.649a1.391,1.391,0,0,0-.315-.315.934.934,0,0,0-.284-.126,1.977,1.977,0,0,0-.348-.022h-.722v2.095Zm.623-2.635h1.339a1.985,1.985,0,0,0,.668-.089.708.708,0,0,0,.366-.283.768.768,0,0,0,.125-.423.7.7,0,0,0-.242-.55,1.128,1.128,0,0,0-.766-.216h-1.491v1.561Zm-5.534,2.635,1.808-4.718h.671l1.927,4.718h-.711l-.549-1.429h-1.968l-.516,1.429Zm1.358-1.938h1.6l-.492-1.307q-.224-.595-.333-.979a6.027,6.027,0,0,1-.254.9Zm-4.025,1.938v-4.718h.623v4.718Zm-4.855,0v-4.718h1.621a3.925,3.925,0,0,1,.838.068,1.59,1.59,0,0,1,.69.337,1.928,1.928,0,0,1,.557.806,3.165,3.165,0,0,1,.185,1.122,3.273,3.273,0,0,1-.126.952,2.279,2.279,0,0,1-.321.688,1.687,1.687,0,0,1-.429.427,1.721,1.721,0,0,1-.561.237,3.2,3.2,0,0,1-.756.08Zm.623-.557h1.006a2.421,2.421,0,0,0,.731-.087,1.05,1.05,0,0,0,.422-.245,1.48,1.48,0,0,0,.345-.6,2.93,2.93,0,0,0,.124-.91,2.2,2.2,0,0,0-.243-1.137,1.217,1.217,0,0,0-.589-.533,2.409,2.409,0,0,0-.806-.1h-.99v3.6Zm-2.283-4.162h.623v2.727a3.223,3.223,0,0,1-.161,1.13,1.374,1.374,0,0,1-.581.68,2.038,2.038,0,0,1-1.1.262,2.248,2.248,0,0,1-1.084-.228,1.3,1.3,0,0,1-.6-.66,3.143,3.143,0,0,1-.18-1.182V198.47h.623v2.723a2.652,2.652,0,0,0,.114.905.87.87,0,0,0,.391.449,1.354,1.354,0,0,0,.68.159,1.3,1.3,0,0,0,.98-.313,1.8,1.8,0,0,0,.291-1.2V198.47Zm-7.992,4.718,1.808-4.718h.671l1.927,4.718h-.71l-.549-1.429h-1.968l-.516,1.429Zm1.358-1.938h1.6l-.492-1.307c-.149-.4-.261-.723-.333-.979a6.029,6.029,0,0,1-.254.9Zm-5.438.421.587-.051a1.3,1.3,0,0,0,.193.582,1.062,1.062,0,0,0,.474.367,1.8,1.8,0,0,0,.722.139,1.739,1.739,0,0,0,.629-.106.879.879,0,0,0,.406-.291.679.679,0,0,0,.133-.4.607.607,0,0,0-.129-.388.942.942,0,0,0-.423-.278,8.253,8.253,0,0,0-.839-.23,4.275,4.275,0,0,1-.908-.295,1.278,1.278,0,0,1-.5-.44,1.083,1.083,0,0,1-.164-.588,1.2,1.2,0,0,1,.2-.667,1.259,1.259,0,0,1,.591-.472,2.254,2.254,0,0,1,.863-.16,2.353,2.353,0,0,1,.924.169,1.327,1.327,0,0,1,.615.5,1.434,1.434,0,0,1,.232.743l-.6.045a.973.973,0,0,0-.327-.676,1.264,1.264,0,0,0-.82-.228,1.315,1.315,0,0,0-.824.208.624.624,0,0,0-.259.5.536.536,0,0,0,.183.419,2.459,2.459,0,0,0,.939.337,6.248,6.248,0,0,1,1.042.3,1.437,1.437,0,0,1,.607.481,1.176,1.176,0,0,1,.194.671,1.286,1.286,0,0,1-.215.71,1.423,1.423,0,0,1-.619.518,2.15,2.15,0,0,1-.906.185,2.686,2.686,0,0,1-1.071-.186,1.5,1.5,0,0,1-.678-.562,1.589,1.589,0,0,1-.257-.848Zm-5.6,1.516v-4.718H223.9v.557h-2.554v1.461h2.208v.557h-2.208v2.143Zm-5.336-2.3a2.564,2.564,0,0,1,.629-1.839,2.141,2.141,0,0,1,1.625-.665,2.261,2.261,0,0,1,1.175.31,2.041,2.041,0,0,1,.8.872,2.827,2.827,0,0,1,.274,1.266,2.783,2.783,0,0,1-.288,1.285,1.977,1.977,0,0,1-.819.858,2.332,2.332,0,0,1-1.143.291,2.215,2.215,0,0,1-1.188-.322,2.068,2.068,0,0,1-.793-.879,2.665,2.665,0,0,1-.271-1.178Zm.642.01a1.893,1.893,0,0,0,.457,1.344,1.594,1.594,0,0,0,2.258.043l.048-.048a2.011,2.011,0,0,0,.455-1.407,2.425,2.425,0,0,0-.193-1.006,1.5,1.5,0,0,0-.568-.667,1.545,1.545,0,0,0-.839-.236,1.588,1.588,0,0,0-1.139.456,2.037,2.037,0,0,0-.477,1.52Zm-7.779,2.289v-4.718h.938l1.113,3.341c.1.31.179.543.225.7q.081-.257.251-.757l1.127-3.283h.839v4.718h-.6v-3.949l-1.368,3.949h-.562l-1.361-4.016v4.016Zm-5.285-2.3a2.568,2.568,0,0,1,.629-1.839,2.141,2.141,0,0,1,1.625-.665,2.261,2.261,0,0,1,1.175.31,2.047,2.047,0,0,1,.8.872,2.825,2.825,0,0,1,.274,1.265,2.781,2.781,0,0,1-.288,1.285,1.98,1.98,0,0,1-.819.858,2.338,2.338,0,0,1-1.143.291,2.215,2.215,0,0,1-1.188-.322,2.067,2.067,0,0,1-.793-.879,2.666,2.666,0,0,1-.271-1.178Zm.642.01a1.891,1.891,0,0,0,.457,1.344,1.594,1.594,0,0,0,2.258.044l.048-.048a2.013,2.013,0,0,0,.455-1.407,2.432,2.432,0,0,0-.194-1.005,1.5,1.5,0,0,0-.568-.667,1.544,1.544,0,0,0-.839-.236,1.588,1.588,0,0,0-1.139.456,2.036,2.036,0,0,0-.477,1.52Zm-5.2,2.289v-4.718h1.621a3.929,3.929,0,0,1,.839.068,1.591,1.591,0,0,1,.69.337,1.925,1.925,0,0,1,.557.806,3.165,3.165,0,0,1,.185,1.122,3.271,3.271,0,0,1-.126.952,2.28,2.28,0,0,1-.321.688,1.674,1.674,0,0,1-.429.427,1.721,1.721,0,0,1-.561.237,3.2,3.2,0,0,1-.756.08Zm.623-.557h1.006a2.424,2.424,0,0,0,.731-.087,1.049,1.049,0,0,0,.422-.245,1.48,1.48,0,0,0,.345-.6,2.917,2.917,0,0,0,.124-.91,2.2,2.2,0,0,0-.242-1.137,1.217,1.217,0,0,0-.59-.533,2.408,2.408,0,0,0-.806-.1h-.99v3.6Zm-3.535-1.294v-.552l1.993,0v1.75a3.514,3.514,0,0,1-.947.552,2.816,2.816,0,0,1-1,.185,2.666,2.666,0,0,1-1.26-.3,1.97,1.97,0,0,1-.856-.86,2.713,2.713,0,0,1-.289-1.259,2.918,2.918,0,0,1,.288-1.285,1.907,1.907,0,0,1,.826-.888,2.592,2.592,0,0,1,1.243-.289,2.437,2.437,0,0,1,.923.166,1.515,1.515,0,0,1,.647.461,2.064,2.064,0,0,1,.358.772l-.562.155a1.783,1.783,0,0,0-.263-.567,1.085,1.085,0,0,0-.451-.329,1.642,1.642,0,0,0-.648-.125,1.906,1.906,0,0,0-.738.131,1.376,1.376,0,0,0-.5.343,1.643,1.643,0,0,0-.3.466,2.469,2.469,0,0,0-.18.949,2.3,2.3,0,0,0,.217,1.056,1.389,1.389,0,0,0,.631.63,1.942,1.942,0,0,0,.879.207,2.071,2.071,0,0,0,.79-.157,1.984,1.984,0,0,0,.584-.333v-.879Zm-6.958,1.851v-4.718h.639l2.473,3.7v-3.7h.6v4.718h-.639l-2.473-3.708v3.708Zm-1.714,0v-4.718h.623v4.718Z" transform="translate(-181.83 -142.065)" fill="#8c8c8e" fill-rule="evenodd"/>
    <path id="Path_193" data-name="Path 193" d="M214.7,166.558a2.05,2.05,0,0,1,.3,1.028s.636-1.044,1.956-.175c0,0-1.122-.151-1.389.429,0,0,1.724-.452,2.094,1.149,0,0-.8-.892-1.528-.731a1.874,1.874,0,0,1,1.192,2.285s-.139-1.531-1.25-1.717a2.546,2.546,0,0,1,.637,2.552,2.512,2.512,0,0,0-.787-1.868,2.7,2.7,0,0,1-.336,2.494s.451-1.52-.278-2.077c0,0-.3-.185-.289.371,0,0-.086,3.188.071,4.743,0,0,3.184-2.7,5.909-.906,0,0-2.7-1.319-5.805,1.588l2.074,1.826a.52.52,0,0,1,.962.275c0,.7-.983.651-1.342.231l-2.179-2.007L214.7,176l-.016.048-2.179,2.007c-.359.421-1.343.471-1.343-.231a.52.52,0,0,1,.962-.275l2.074-1.826c-3.106-2.91-5.805-1.588-5.805-1.588,2.725-1.8,5.909.906,5.909.906.158-1.555.071-4.743.071-4.743.012-.557-.289-.371-.289-.371-.729.557-.278,2.077-.278,2.077a2.7,2.7,0,0,1-.336-2.494,2.513,2.513,0,0,0-.787,1.868,2.544,2.544,0,0,1,.637-2.552c-1.111.185-1.25,1.717-1.25,1.717a1.872,1.872,0,0,1,1.192-2.285c-.729-.162-1.528.731-1.528.731.37-1.6,2.094-1.149,2.094-1.149-.266-.58-1.389-.429-1.389-.429,1.319-.87,1.956.175,1.956.175a2.054,2.054,0,0,1,.3-1.028Z" transform="translate(-181.307 -142.703)" fill="#8c8c8e" fill-rule="evenodd"/>
    <path id="Path_194" data-name="Path 194" d="M186.608,196.695h.606v-.607h-.606Zm-1.419-6.586h-.606v.607h.606Zm2.438,6.586h.606v-.607h-.606Zm-3.46-6.586h-.606v.607h.606Zm7.75,1.806a1.483,1.483,0,0,0-.526-.383,1.572,1.572,0,0,0-.7-.128h-.446v.576h.526a.858.858,0,0,1,.4.1.989.989,0,0,1,.319.24,1.128,1.128,0,0,1,.176.336,1.831,1.831,0,0,1,.048.447v1.711h-2.759v.591h3.35v-2.318a2.176,2.176,0,0,0-.1-.656,1.337,1.337,0,0,0-.287-.512ZM214.69,195.4h.59v-5.291h-.59Zm-2.3-.591h-.973a1.951,1.951,0,0,1-.813-.144,1.134,1.134,0,0,1-.464-.448,1.932,1.932,0,0,0,.064-.559v-1.887h-.59v1.982a1.164,1.164,0,0,1-.271.815,1.058,1.058,0,0,1-.829.3,1.158,1.158,0,0,1-.478-.08,1.384,1.384,0,0,1-.367-.208,1.292,1.292,0,0,1-.239-.336.872.872,0,0,1-.1-.4V191.77h-.59v2.03a1.264,1.264,0,0,1-.08.464.716.716,0,0,1-.223.3.767.767,0,0,1-.319.176.926.926,0,0,1-.367.064h-1.148V191.77h-.59v3.038h-3.077l1.02-2.462a6.125,6.125,0,0,0-.495-.4,4.588,4.588,0,0,0-.541-.3,2.854,2.854,0,0,0-.574-.224,2.043,2.043,0,0,0-1.132,0,4.194,4.194,0,0,0-.574.208,3.746,3.746,0,0,0-.542.32,4.216,4.216,0,0,0-.494.4l1.036,2.462h-2.041v-3.4h-.941a3.212,3.212,0,0,0-.989.144,2.526,2.526,0,0,0-.766.431,1.806,1.806,0,0,0-.51.639,1.883,1.883,0,0,0-.176.8,1.729,1.729,0,0,0,.207.9,1.618,1.618,0,0,0,.526.607,2.36,2.36,0,0,0,.782.368,4.341,4.341,0,0,0,.925.112h.351v.16a.8.8,0,0,1-.255.672,1.272,1.272,0,0,1-.75.192,2.353,2.353,0,0,1-.494-.048,3.094,3.094,0,0,1-.495-.176l-.175.559a4.139,4.139,0,0,0,.59.192,1.972,1.972,0,0,0,.526.064,1.707,1.707,0,0,0,1.26-.416,1.533,1.533,0,0,0,.383-1.086V195.4h9.153a1.511,1.511,0,0,0,.765-.192,1.62,1.62,0,0,0,.542-.5,1.386,1.386,0,0,0,.574.559,1.874,1.874,0,0,0,.878.192,2.12,2.12,0,0,0,.892-.176,1.253,1.253,0,0,0,.574-.576.97.97,0,0,0,.192.256.933.933,0,0,0,.271.208,1.314,1.314,0,0,0,.4.16,1.79,1.79,0,0,0,.431.048v.016h1.706v-5.291h-.59v4.7Zm14.233,1.9h.606V196.1h-.606Zm5.757-1.887-.909-2.269a2.079,2.079,0,0,1,.686-.416,2,2,0,0,1,.749-.128,1.893,1.893,0,0,1,.781.16,1.934,1.934,0,0,1,.669.384l-.925,2.269Zm4.18,0h-2.5l1.036-2.477c-.159-.128-.335-.256-.51-.384a6,6,0,0,0-.542-.32,3.9,3.9,0,0,0-.558-.208,2.1,2.1,0,0,0-1.148,0,4.148,4.148,0,0,0-.574.208,3.669,3.669,0,0,0-.541.32c-.175.128-.335.255-.495.384l1.052,2.477h-2.2V191.4h-.59v4.124a1.722,1.722,0,0,1-.032.432.61.61,0,0,1-.08.272.343.343,0,0,1-.176.161.639.639,0,0,1-.271.048.446.446,0,0,1-.144-.016.971.971,0,0,1-.159-.032l-.159.575a2.839,2.839,0,0,0,.479.064,1.091,1.091,0,0,0,.542-.113.874.874,0,0,0,.351-.288,1.676,1.676,0,0,0,.191-.479,3.543,3.543,0,0,0,.048-.623V195.4h7.575v-5.276h-.59v4.7Zm-12.088,1.887h.606V196.1h-.606Zm-3.572-1.887h-.59a2.111,2.111,0,0,1-.622-.1,1.393,1.393,0,0,1-.495-.288,1.166,1.166,0,0,1-.351-.432,1.455,1.455,0,0,1-.128-.591,1.2,1.2,0,0,1,.144-.592,1.91,1.91,0,0,1,.351-.448,2.751,2.751,0,0,1,.526-.287,1.785,1.785,0,0,1,.574-.1h.59v2.829Zm6.331-3.421h-.59v3.421h-2.217V191.4h-.59v3.421h-2.344V191.4h-.924a3.311,3.311,0,0,0-1.007.16,2.2,2.2,0,0,0-.765.415,1.928,1.928,0,0,0-.494.64,1.9,1.9,0,0,0-.175.8,2,2,0,0,0,.207.895,1.973,1.973,0,0,0,.526.624,2.355,2.355,0,0,0,.781.352,3.429,3.429,0,0,0,.925.112h6.666v-4Zm-3.779,5.308h.606V196.1h-.606Zm-1.962-6.586h-.606v.608h.606Zm-1.036,0h-.606v.608h.606Zm18.4,5.276h.59v-5.276h-.589V195.4Zm26.326-.515a1.512,1.512,0,0,1-.335.5,1.683,1.683,0,0,1-.478.32,1.6,1.6,0,0,1-.622.112,1.29,1.29,0,0,1-.606-.128,1.913,1.913,0,0,1-.478-.32,1.431,1.431,0,0,1-.3-.5,1.513,1.513,0,0,1-.128-.592,1.594,1.594,0,0,1,.128-.608,1.439,1.439,0,0,1,.3-.5,1.829,1.829,0,0,1,.478-.336,1.469,1.469,0,0,1,.606-.112,1.594,1.594,0,0,1,.622.112,1.776,1.776,0,0,1,.495.32,1.261,1.261,0,0,1,.319.5,1.607,1.607,0,0,1,.128.623,1.528,1.528,0,0,1-.128.608Zm-5.709,0a1.5,1.5,0,0,1-.335.5,1.569,1.569,0,0,1-.494.32,1.463,1.463,0,0,1-.606.112,1.289,1.289,0,0,1-.606-.128,1.916,1.916,0,0,1-.478-.32,1.763,1.763,0,0,1-.319-.5,1.848,1.848,0,0,1-.111-.592,1.948,1.948,0,0,1,.111-.608,1.775,1.775,0,0,1,.319-.5,1.822,1.822,0,0,1,.478-.336,1.474,1.474,0,0,1,.606-.112,1.6,1.6,0,0,1,.622.112,1.774,1.774,0,0,1,.494.32,1.468,1.468,0,0,1,.319.5,1.607,1.607,0,0,1,.128.623,1.528,1.528,0,0,1-.128.608Zm-14.319.272h-.574a1.946,1.946,0,0,1-.622-.1,1.46,1.46,0,0,1-.51-.288,1.128,1.128,0,0,1-.335-.431,1.237,1.237,0,0,1-.128-.592,1.4,1.4,0,0,1,.128-.591,1.605,1.605,0,0,1,.367-.447,2.23,2.23,0,0,1,.51-.289,1.849,1.849,0,0,1,.59-.1h.574Zm22.581,0h-2.025a2.025,2.025,0,0,0,.192-.879,2.178,2.178,0,0,0-.175-.847,2.219,2.219,0,0,0-.446-.687,2.045,2.045,0,0,0-.686-.448,2.106,2.106,0,0,0-.846-.16,2.077,2.077,0,0,0-.829.16,1.948,1.948,0,0,0-.654.466,1.828,1.828,0,0,0-.446.687,2.082,2.082,0,0,0-.176.831,1.98,1.98,0,0,0,.191.879H260a2.031,2.031,0,0,0,.192-.879,2.175,2.175,0,0,0-.176-.847,2.22,2.22,0,0,0-.447-.687,2.035,2.035,0,0,0-.685-.448,2.091,2.091,0,0,0-.845-.16,2.016,2.016,0,0,0-.829.16,2.187,2.187,0,0,0-.67.466,2.323,2.323,0,0,0-.446.687,2.408,2.408,0,0,0-.16.831,2.2,2.2,0,0,0,.048.464,4.119,4.119,0,0,0,.128.416h-1.866v-4.706h-.59v4.7h-1.866v-.911a2.134,2.134,0,0,0-.1-.639,1.383,1.383,0,0,0-.271-.528,2.016,2.016,0,0,0-.526-.383,1.868,1.868,0,0,0-.717-.112h-2.615l1.116-2.126h-.638l-1.132,2.11a1.757,1.757,0,0,0,.08.336,1.489,1.489,0,0,0,.176.256h3.014a1.171,1.171,0,0,1,.478.1.768.768,0,0,1,.319.224.682.682,0,0,1,.176.336,1.786,1.786,0,0,1,.048.432v.911h-5.454v-3.421h-.924a3.3,3.3,0,0,0-1.007.16,2.367,2.367,0,0,0-.765.416,1.88,1.88,0,0,0-.478.639,1.685,1.685,0,0,0-.176.8,2,2,0,0,0,.191.9,2.493,2.493,0,0,0,.526.623,2.323,2.323,0,0,0,.781.351,3.477,3.477,0,0,0,.925.112h11.673a2.1,2.1,0,0,0,.686.5,1.971,1.971,0,0,0,.861.176,1.994,1.994,0,0,0,.877-.176,1.816,1.816,0,0,0,.7-.5h2.6a2.037,2.037,0,0,0,.67.5,1.972,1.972,0,0,0,.861.176,2,2,0,0,0,.877-.176,1.821,1.821,0,0,0,.7-.5h3v-5.276h-.59v4.7Zm2.313.575h.59v-5.276h-.59Zm-25.34-5.276H244.1v.608h.606Zm1.036,0h-.606v.608h.606Zm-57.622.949h-.59v3.405h-2.344V191.4h-.925a3.327,3.327,0,0,0-1.007.144,2.529,2.529,0,0,0-.765.416,1.91,1.91,0,0,0-.654,1.438,1.956,1.956,0,0,0,.192.9,1.875,1.875,0,0,0,.541.623,2.257,2.257,0,0,0,.766.352,3.615,3.615,0,0,0,.925.128h3.859v-4ZM184.6,194.81h-.574a1.957,1.957,0,0,1-.622-.1,1.744,1.744,0,0,1-.51-.272,1.334,1.334,0,0,1-.335-.448,1.2,1.2,0,0,1-.127-.591,1.387,1.387,0,0,1,.127-.575,1.583,1.583,0,0,1,.877-.737,1.826,1.826,0,0,1,.59-.112h.574v2.832Zm11.417,0h-.59a1.958,1.958,0,0,1-.622-.1,1.436,1.436,0,0,1-.51-.272,1.173,1.173,0,0,1-.351-.432,1.4,1.4,0,0,1-.128-.591,1.189,1.189,0,0,1,.144-.575,1.417,1.417,0,0,1,.351-.448,2.054,2.054,0,0,1,.51-.3,1.973,1.973,0,0,1,.606-.1h.59v2.814Zm3.253,0-.925-2.27a2.452,2.452,0,0,1,.7-.416,2.306,2.306,0,0,1,.75-.128,1.954,1.954,0,0,1,.781.16,2.357,2.357,0,0,1,.654.384l-.909,2.27Z" transform="translate(-181.839 -142.231)" fill="#8c8c8e" fill-rule="evenodd"/>
    <path id="Path_195" data-name="Path 195" d="M253.619,156.943h1.018v1.021h-1.018Zm2.038,0h1.019v1.021h-1.019Zm-20.1-11.617h-1.019V144.3h1.019Zm24.389,7.106a4.287,4.287,0,0,0,1.338.616,6.588,6.588,0,0,0,1.613.192h.255l.361-.724v1a1.357,1.357,0,0,1-.467,1.149,2.021,2.021,0,0,1-1.274.34,3.474,3.474,0,0,1-.849-.085,5.278,5.278,0,0,1-.87-.3l-.319.979a7.732,7.732,0,0,0,1.04.319,4.428,4.428,0,0,0,.913.106,2.88,2.88,0,0,0,2.165-.7,2.638,2.638,0,0,0,.658-1.894v-7.086h-1.613a5.419,5.419,0,0,0-1.719.255,4.138,4.138,0,0,0-1.316.723,3.4,3.4,0,0,0-.829,4.043,2.953,2.953,0,0,0,.913,1.064Zm0-3.6a2.242,2.242,0,0,1,.615-.787,2.919,2.919,0,0,1,1.889-.681h1.634l-.573.3v4.553h-1.04a3.371,3.371,0,0,1-1.062-.149,2.969,2.969,0,0,1-.89-.468,2.487,2.487,0,0,1-.594-.745,2.256,2.256,0,0,1-.212-1.021,1.986,1.986,0,0,1,.232-1Zm-22.373-3.511h-1V144.3h1Zm29.526,10.7a3.7,3.7,0,0,1-.828-.106l.255-.979a1.823,1.823,0,0,1,.276.064h.255a1.018,1.018,0,0,0,.467-.085.505.505,0,0,0,.3-.256,1.335,1.335,0,0,0,.149-.49,3.683,3.683,0,0,0,.043-.724v-7.107h1.018v7.108a5.386,5.386,0,0,1-.085,1.064,2.078,2.078,0,0,1-.339.83,1.552,1.552,0,0,1-.594.511,2.327,2.327,0,0,1-.913.17Zm-32.285-.128h2.1v-.767a.478.478,0,0,1,.064.106,1.619,1.619,0,0,0,.616.511,2.257,2.257,0,0,0,.913.17h18.53v-9.575h-1.019V154.9H238.549a1.586,1.586,0,0,1-.488-.064.69.69,0,0,1-.276-.276,1.313,1.313,0,0,1-.17-.49,6.267,6.267,0,0,1-.043-.724v-7h-2.738a4.662,4.662,0,0,0-4.713,4.611c0,.052,0,.1,0,.155v.021a4.632,4.632,0,0,0,4.5,4.765c.065,0,.13,0,.2,0ZM231.2,151.09a3.611,3.611,0,0,1,3.608-3.788h2.377l-.615.3v5.745a5.272,5.272,0,0,0,.085,1.064,2.9,2.9,0,0,0,.149.511h-1.974a3.659,3.659,0,0,1-3.63-3.808v-.022Zm32.17-7.918h.831v.749h-.762a.3.3,0,0,0-.3.3v.3h1.3v.81H262.3V144.25a1.08,1.08,0,0,1,1.075-1.077Z" transform="translate(-180.871 -143.172)" fill="#8c8c8e" fill-rule="evenodd"/>
    <path id="Path_196" data-name="Path 196" d="M225.779,146.219h1.039v9.521h-.848l-6.763-8.565.594,1.382v7.184h-1.039V146.22h1l6.446,8.2-.426-1.169v-7.035ZM186.2,155.826l-4.092-9.606h1.187l.594,1.424,2.8,6.78.275.66-.105-1.042,3.244-7.821h1.145l-4.092,9.606Zm18.15-9.606h1.081v9.521h-1.084v-9.521ZM215.879,151a3.742,3.742,0,0,1-3.732,3.91,3.792,3.792,0,0,1-3.754-3.932v-.021a3.747,3.747,0,1,1,7.486.021Zm-3.732-4.952a4.832,4.832,0,0,0-4.855,4.808c0,.041,0,.081,0,.122V151a4.773,4.773,0,0,0,4.632,4.908q.1,0,.2,0A4.825,4.825,0,0,0,217,151.139c0-.053,0-.106,0-.159v-.021a4.79,4.79,0,0,0-4.668-4.908c-.062,0-.125,0-.187,0Zm-9.562,7.12v.021c0,1.636-1.378,2.7-3.265,2.7a5.565,5.565,0,0,1-3.88-1.531l.658-.786a4.566,4.566,0,0,0,3.265,1.339c1.293,0,2.12-.68,2.12-1.615v-.022c0-.892-.467-1.4-2.48-1.806-2.184-.49-3.18-1.19-3.18-2.763v-.022c0-1.509,1.315-2.614,3.117-2.614a4.894,4.894,0,0,1,3.35,1.19l-.615.829a4.223,4.223,0,0,0-2.756-1.042c-1.23,0-2.036.68-2.036,1.53v.042c0,.892.488,1.4,2.587,1.849,2.12.467,3.117,1.233,3.117,2.7Zm-8.8,2.572h-1.081v-9.521h1.081Z" transform="translate(-181.834 -143.114)" fill="#8c8c8e" fill-rule="evenodd"/>
  </g>
</svg>
