<svg xmlns="http://www.w3.org/2000/svg" xmlns:xlink="http://www.w3.org/1999/xlink" viewBox="0 0 144.03 48.63"><defs><linearGradient id="linear-gradient" x1="-253.28" y1="414.57" x2="-256.82" y2="410.2" gradientTransform="matrix(9.15, 0, 0, -10.63, 2363.56, 4409.98)" gradientUnits="userSpaceOnUse"><stop offset="0" stop-color="#a5ce3a"/><stop offset="0.5" stop-color="#02b586"/><stop offset="1" stop-color="#273570"/></linearGradient><linearGradient id="linear-gradient-2" x1="-253.22" y1="412.42" x2="-256.76" y2="408.04" gradientTransform="matrix(9.15, 0, 0, -10.62, 2352.07, 4374.37)" xlink:href="#linear-gradient"/><linearGradient id="linear-gradient-3" x1="-258.7" y1="420.07" x2="-261.5" y2="416.58" gradientTransform="matrix(11.31, 0, 0, -13.22, 2965.74, 5551.55)" xlink:href="#linear-gradient"/><linearGradient id="linear-gradient-4" x1="-259.84" y1="419.05" x2="-262.7" y2="415.53" gradientTransform="matrix(11.4, 0, 0, -13.13, 3001.51, 5500.02)" xlink:href="#linear-gradient"/><linearGradient id="linear-gradient-5" x1="-242.68" y1="398.33" x2="-246.59" y2="393.6" gradientTransform="matrix(6.91, 0, 0, -7.86, 1701.17, 3119.4)" xlink:href="#linear-gradient"/><linearGradient id="linear-gradient-6" x1="-244.84" y1="398.68" x2="-248.66" y2="394" gradientTransform="matrix(6.91, 0, 0, -7.95, 1725.52, 3164.96)" xlink:href="#linear-gradient"/><linearGradient id="linear-gradient-7" x1="-246.39" y1="398.49" x2="-250.24" y2="393.76" gradientTransform="matrix(6.82, 0, 0, -7.86, 1724.98, 3136.24)" xlink:href="#linear-gradient"/><linearGradient id="linear-gradient-8" x1="-246.1" y1="400.16" x2="-249.87" y2="395.48" gradientTransform="matrix(6.82, 0, 0, -7.95, 1724.98, 3187.85)" xlink:href="#linear-gradient"/><linearGradient id="linear-gradient-9" x1="-246.48" y1="400.42" x2="-250.25" y2="395.74" gradientTransform="matrix(6.82, 0, 0, -7.95, 1732.14, 3194.41)" xlink:href="#linear-gradient"/><linearGradient id="linear-gradient-10" x1="-244.23" y1="402.79" x2="-248" y2="398.11" gradientTransform="matrix(6.82, 0, 0, -7.95, 1712.54, 3215.57)" xlink:href="#linear-gradient"/><linearGradient id="linear-gradient-11" x1="-241.36" y1="404.88" x2="-245.1" y2="400.25" gradientTransform="matrix(6.91, 0, 0, -8.03, 1701.17, 3261.74)" xlink:href="#linear-gradient"/><linearGradient id="linear-gradient-12" x1="-240.62" y1="402.85" x2="-244.43" y2="398.17" gradientTransform="matrix(6.91, 0, 0, -7.95, 1687.7, 3201.06)" xlink:href="#linear-gradient"/><linearGradient id="linear-gradient-13" x1="-254.81" y1="409.99" x2="-258.82" y2="409.99" gradientTransform="matrix(9.15, 0, 0, -10.54, 2374.09, 4336.67)" xlink:href="#linear-gradient"/><linearGradient id="linear-gradient-14" x1="-254.86" y1="410.57" x2="-258.87" y2="410.57" gradientTransform="matrix(9.15, 0, 0, -10.62, 2375.04, 4381.63)" xlink:href="#linear-gradient"/><linearGradient id="linear-gradient-15" x1="-254.86" y1="410.86" x2="-258.87" y2="410.86" gradientTransform="matrix(9.15, 0, 0, -10.62, 2375.04, 4388.27)" xlink:href="#linear-gradient"/><linearGradient id="linear-gradient-16" x1="-254.86" y1="410.87" x2="-258.87" y2="410.87" gradientTransform="matrix(9.15, 0, 0, -10.54, 2375.04, 4356.53)" xlink:href="#linear-gradient"/><linearGradient id="linear-gradient-17" x1="-254.81" y1="411.44" x2="-258.82" y2="411.44" gradientTransform="matrix(9.15, 0, 0, -10.62, 2374.09, 4401.49)" xlink:href="#linear-gradient"/><linearGradient id="linear-gradient-18" x1="-253.74" y1="411.19" x2="-257.75" y2="411.19" gradientTransform="matrix(9.15, 0, 0, -10.54, 2363.56, 4363.79)" xlink:href="#linear-gradient"/><linearGradient id="linear-gradient-19" x1="-252.62" y1="411.77" x2="-256.63" y2="411.77" gradientTransform="matrix(9.15, 0, 0, -10.63, 2352.07, 4409.98)" xlink:href="#linear-gradient"/><linearGradient id="linear-gradient-20" x1="-252.62" y1="411.19" x2="-256.63" y2="411.19" gradientTransform="matrix(9.15, 0, 0, -10.54, 2352.07, 4363.79)" xlink:href="#linear-gradient"/><linearGradient id="linear-gradient-21" x1="-251.55" y1="411.44" x2="-255.56" y2="411.44" gradientTransform="matrix(9.15, 0, 0, -10.62, 2341.54, 4401.49)" xlink:href="#linear-gradient"/><linearGradient id="linear-gradient-22" x1="-251.5" y1="410.87" x2="-255.51" y2="410.87" gradientTransform="matrix(9.15, 0, 0, -10.54, 2340.59, 4356.53)" xlink:href="#linear-gradient"/><linearGradient id="linear-gradient-23" x1="-251.5" y1="410.86" x2="-255.51" y2="410.86" gradientTransform="matrix(9.15, 0, 0, -10.62, 2340.59, 4388.27)" xlink:href="#linear-gradient"/><linearGradient id="linear-gradient-24" x1="-251.5" y1="410.57" x2="-255.51" y2="410.57" gradientTransform="matrix(9.15, 0, 0, -10.62, 2340.59, 4381.63)" xlink:href="#linear-gradient"/><linearGradient id="linear-gradient-25" x1="-251.55" y1="409.99" x2="-255.56" y2="409.99" gradientTransform="matrix(9.15, 0, 0, -10.54, 2341.54, 4336.67)" xlink:href="#linear-gradient"/><linearGradient id="linear-gradient-26" x1="-252.62" y1="409.97" x2="-256.63" y2="409.97" gradientTransform="matrix(9.15, 0, 0, -10.63, 2352.07, 4368.96)" xlink:href="#linear-gradient"/><linearGradient id="linear-gradient-27" x1="-253.74" y1="409.97" x2="-257.75" y2="409.97" gradientTransform="matrix(9.15, 0, 0, -10.63, 2363.56, 4368.96)" xlink:href="#linear-gradient"/><linearGradient id="linear-gradient-28" x1="-253.74" y1="410.25" x2="-257.75" y2="410.25" gradientTransform="matrix(9.15, 0, 0, -10.62, 2363.56, 4374.37)" xlink:href="#linear-gradient"/><linearGradient id="linear-gradient-29" x1="-259.4" y1="418.02" x2="-263.39" y2="418.02" gradientTransform="matrix(11.4, 0, 0, -13.22, 3001.51, 5551.55)" xlink:href="#linear-gradient"/><linearGradient id="linear-gradient-30" x1="-259.4" y1="417.79" x2="-263.39" y2="417.79" gradientTransform="matrix(11.4, 0, 0, -13.22, 3001.51, 5544.99)" xlink:href="#linear-gradient"/><linearGradient id="linear-gradient-31" x1="-258.2" y1="417.79" x2="-262.23" y2="417.79" gradientTransform="matrix(11.31, 0, 0, -13.22, 2965.74, 5544.99)" xlink:href="#linear-gradient"/><linearGradient id="linear-gradient-32" x1="-258.2" y1="417.37" x2="-262.23" y2="417.37" gradientTransform="matrix(11.31, 0, 0, -13.13, 2965.74, 5500.02)" xlink:href="#linear-gradient"/><linearGradient id="linear-gradient-33" x1="-242.42" y1="397.37" x2="-247.73" y2="397.37" gradientTransform="matrix(6.91, 0, 0, -7.95, 1714.47, 3167.03)" xlink:href="#linear-gradient"/><linearGradient id="linear-gradient-34" x1="-242.06" y1="396.63" x2="-247.38" y2="396.63" gradientTransform="matrix(6.91, 0, 0, -7.95, 1711.71, 3154.33)" xlink:href="#linear-gradient"/><linearGradient id="linear-gradient-35" x1="-243.43" y1="396.7" x2="-248.81" y2="396.7" gradientTransform="matrix(6.82, 0, 0, -7.95, 1701.14, 3155.54)" xlink:href="#linear-gradient"/><linearGradient id="linear-gradient-36" x1="-245.15" y1="396.98" x2="-250.53" y2="396.98" gradientTransform="matrix(6.82, 0, 0, -7.95, 1717.12, 3160.21)" xlink:href="#linear-gradient"/><linearGradient id="linear-gradient-37" x1="-245.07" y1="397.68" x2="-250.38" y2="397.68" gradientTransform="matrix(6.91, 0, 0, -7.95, 1734.93, 3172.21)" xlink:href="#linear-gradient"/><linearGradient id="linear-gradient-38" x1="-247.03" y1="398.15" x2="-252.41" y2="398.15" gradientTransform="matrix(6.82, 0, 0, -7.94, 1729.29, 3179.44)" xlink:href="#linear-gradient"/><linearGradient id="linear-gradient-39" x1="-246.41" y1="399.37" x2="-251.79" y2="399.37" gradientTransform="matrix(6.82, 0, 0, -7.94, 1724.54, 3200.26)" xlink:href="#linear-gradient"/><linearGradient id="linear-gradient-40" x1="-246.47" y1="399.75" x2="-251.85" y2="399.75" gradientTransform="matrix(6.82, 0, 0, -7.95, 1724.98, 3207.71)" xlink:href="#linear-gradient"/><linearGradient id="linear-gradient-41" x1="-247.55" y1="400.59" x2="-252.86" y2="400.59" gradientTransform="matrix(6.91, 0, 0, -7.95, 1755.92, 3222.13)" xlink:href="#linear-gradient"/><linearGradient id="linear-gradient-42" x1="-245.51" y1="400.73" x2="-250.83" y2="400.73" gradientTransform="matrix(6.91, 0, 0, -7.94, 1738.39, 3223.4)" xlink:href="#linear-gradient"/><linearGradient id="linear-gradient-43" x1="-243.85" y1="400.58" x2="-249.16" y2="400.58" gradientTransform="matrix(6.91, 0, 0, -7.95, 1725.52, 3221.96)" xlink:href="#linear-gradient"/><linearGradient id="linear-gradient-44" x1="-241.86" y1="401.43" x2="-247.18" y2="401.43" gradientTransform="matrix(6.91, 0, 0, -7.95, 1710.15, 3236.39)" xlink:href="#linear-gradient"/><linearGradient id="linear-gradient-45" x1="-241.94" y1="401.1" x2="-247.31" y2="401.1" gradientTransform="matrix(6.82, 0, 0, -8.03, 1690.35, 3260.79)" xlink:href="#linear-gradient"/><linearGradient id="linear-gradient-46" x1="-240.88" y1="400.21" x2="-246.19" y2="400.21" gradientTransform="matrix(6.91, 0, 0, -7.95, 1702.55, 3215.57)" xlink:href="#linear-gradient"/><linearGradient id="linear-gradient-47" x1="-238.98" y1="400.52" x2="-244.29" y2="400.52" gradientTransform="matrix(6.91, 0, 0, -7.94, 1684.76, 3219.95)" xlink:href="#linear-gradient"/><linearGradient id="linear-gradient-48" x1="-238.42" y1="398.38" x2="-243.8" y2="398.38" gradientTransform="matrix(6.82, 0, 0, -7.86, 1661.42, 3153.74)" xlink:href="#linear-gradient"/><linearGradient id="linear-gradient-49" x1="-238.75" y1="398.59" x2="-244.13" y2="398.59" gradientTransform="matrix(6.82, 0, 0, -7.95, 1665.39, 3187.85)" xlink:href="#linear-gradient"/><linearGradient id="linear-gradient-50" x1="-238.19" y1="398.2" x2="-243.5" y2="398.2" gradientTransform="matrix(6.91, 0, 0, -7.95, 1681.74, 3181.19)" xlink:href="#linear-gradient"/><linearGradient id="linear-gradient-51" x1="-238.91" y1="397.68" x2="-244.22" y2="397.68" gradientTransform="matrix(6.91, 0, 0, -7.95, 1687.27, 3172.3)" xlink:href="#linear-gradient"/><linearGradient id="linear-gradient-52" x1="-240.88" y1="397.61" x2="-246.19" y2="397.61" gradientTransform="matrix(6.91, 0, 0, -7.94, 1702.55, 3170.2)" xlink:href="#linear-gradient"/><linearGradient id="linear-gradient-53" x1="-231.99" y1="392.94" x2="-238.15" y2="392.94" gradientTransform="matrix(5.96, 0, 0, -6.91, 1413.6, 2747.27)" xlink:href="#linear-gradient"/><linearGradient id="linear-gradient-54" x1="-243.85" y1="401.24" x2="-249.16" y2="401.24" gradientTransform="matrix(6.91, 0, 0, -7.95, 1725.52, 3233.1)" xlink:href="#linear-gradient"/></defs><g id="Layer_2" data-name="Layer 2"><g id="nafath"><g id="Layer_1-2" data-name="Layer 1-2"><polygon id="Path" points="22.32 16.78 16.26 20.29 16.26 27.37 22.32 30.89 28.43 27.37 28.43 20.29 22.32 16.78" fill="#02b586" stroke="#fff" stroke-miterlimit="10" stroke-width="0.25"/><polygon id="Path-2" data-name="Path" points="22.97 31.95 27.87 34.82 22.97 37.64 22.97 31.95" stroke="#fff" stroke-miterlimit="10" stroke-width="0.25" fill="url(#linear-gradient)"/><polygon id="Path-3" data-name="Path" points="16.82 13.54 21.72 16.36 16.82 19.23 16.82 13.54" stroke="#fff" stroke-miterlimit="10" stroke-width="0.25" fill="url(#linear-gradient-2)"/><polygon id="Path-4" data-name="Path" points="16.26 27.37 22.32 23.81 22.32 30.89 16.26 27.37" stroke="#fff" stroke-miterlimit="10" stroke-width="0.25" fill="url(#linear-gradient-3)"/><polygon id="Path-5" data-name="Path" points="22.32 16.78 28.43 20.29 22.32 23.81 22.32 16.78" stroke="#fff" stroke-miterlimit="10" stroke-width="0.25" fill="url(#linear-gradient-4)"/><polygon id="Path-6" data-name="Path" points="10.53 4.19 14.23 2.07 14.23 6.28 10.53 4.19" stroke="#fff" stroke-miterlimit="10" stroke-width="0.25" fill="url(#linear-gradient-5)"/><polygon id="Path-7" data-name="Path" points="23.57 8.03 27.27 5.91 27.27 10.16 23.57 8.03" stroke="#fff" stroke-miterlimit="10" stroke-width="0.25" fill="url(#linear-gradient-6)"/><polygon id="Path-8" data-name="Path" points="36.38 11.09 40.03 13.17 36.38 15.3 36.38 11.09" stroke="#fff" stroke-miterlimit="10" stroke-width="0.25" fill="url(#linear-gradient-7)"/><polygon id="Path-9" data-name="Path" points="36.38 18.16 40.03 20.29 36.38 22.42 36.38 18.16" stroke="#fff" stroke-miterlimit="10" stroke-width="0.25" fill="url(#linear-gradient-8)"/><polygon id="Path-10" data-name="Path" points="40.22 23.81 43.87 21.68 43.87 25.93 40.22 23.81" stroke="#fff" stroke-miterlimit="10" stroke-width="0.25" fill="url(#linear-gradient-9)"/><polygon id="Path-11" data-name="Path" points="29.72 35.14 33.38 33.01 33.38 37.27 29.72 35.14" stroke="#fff" stroke-miterlimit="10" stroke-width="0.25" fill="url(#linear-gradient-10)"/><polygon id="Path-12" data-name="Path" points="10.53 39.35 14.23 37.17 14.23 41.48 10.53 39.35" stroke="#fff" stroke-miterlimit="10" stroke-width="0.25" fill="url(#linear-gradient-11)"/><polygon id="Path-13" data-name="Path" points="3.32 27.37 7.02 25.24 7.02 29.5 3.32 27.37" stroke="#fff" stroke-miterlimit="10" stroke-width="0.25" fill="url(#linear-gradient-12)"/><polygon id="Path-14" data-name="Path" points="28.61 13.91 33.51 16.73 28.61 19.55 28.61 13.91" stroke="#fff" stroke-miterlimit="10" stroke-width="0.25" fill="url(#linear-gradient-13)"/><polygon id="Path-15" data-name="Path" points="29.12 20.29 34.02 17.43 34.02 23.11 29.12 20.29" stroke="#fff" stroke-miterlimit="10" stroke-width="0.25" fill="url(#linear-gradient-14)"/><polygon id="Path-16" data-name="Path" points="29.12 20.99 34.02 23.81 29.12 26.68 29.12 20.99" stroke="#fff" stroke-miterlimit="10" stroke-width="0.25" fill="url(#linear-gradient-15)"/><polygon id="Path-17" data-name="Path" points="29.12 27.37 34.02 24.55 34.02 30.19 29.12 27.37" stroke="#fff" stroke-miterlimit="10" stroke-width="0.25" fill="url(#linear-gradient-16)"/><polygon id="Path-18" data-name="Path" points="28.61 28.06 33.51 30.93 28.61 33.75 28.61 28.06" stroke="#fff" stroke-miterlimit="10" stroke-width="0.25" fill="url(#linear-gradient-17)"/><polygon id="Path-19" data-name="Path" points="22.97 31.25 27.87 28.43 27.87 34.08 22.97 31.25" stroke="#fff" stroke-miterlimit="10" stroke-width="0.25" fill="url(#linear-gradient-18)"/><polygon id="Path-20" data-name="Path" points="16.82 34.82 21.72 31.95 21.72 37.64 16.82 34.82" stroke="#fff" stroke-miterlimit="10" stroke-width="0.25" fill="url(#linear-gradient-19)"/><polygon id="Path-21" data-name="Path" points="16.82 28.43 21.72 31.25 16.82 34.08 16.82 28.43" stroke="#fff" stroke-miterlimit="10" stroke-width="0.25" fill="url(#linear-gradient-20)"/><polygon id="Path-22" data-name="Path" points="11.18 30.93 16.08 28.06 16.08 33.75 11.18 30.93" stroke="#fff" stroke-miterlimit="10" stroke-width="0.25" fill="url(#linear-gradient-21)"/><polygon id="Path-23" data-name="Path" points="15.57 27.37 10.67 30.19 10.67 24.55 15.57 27.37" stroke="#fff" stroke-miterlimit="10" stroke-width="0.25" fill="url(#linear-gradient-22)"/><polygon id="Path-24" data-name="Path" points="10.67 23.81 15.57 20.99 15.57 26.68 10.67 23.81" stroke="#fff" stroke-miterlimit="10" stroke-width="0.25" fill="url(#linear-gradient-23)"/><polygon id="Path-25" data-name="Path" points="10.67 17.43 15.57 20.29 10.67 23.11 10.67 17.43" stroke="#fff" stroke-miterlimit="10" stroke-width="0.25" fill="url(#linear-gradient-24)"/><polygon id="Path-26" data-name="Path" points="11.18 16.73 16.08 13.91 16.08 19.55 11.18 16.73" stroke="#fff" stroke-miterlimit="10" stroke-width="0.25" fill="url(#linear-gradient-25)"/><polygon id="Path-27" data-name="Path" points="16.82 12.85 21.72 9.98 21.72 15.67 16.82 12.85" stroke="#fff" stroke-miterlimit="10" stroke-width="0.25" fill="url(#linear-gradient-26)"/><polygon id="Path-28" data-name="Path" points="22.97 9.98 27.87 12.85 22.97 15.67 22.97 9.98" stroke="#fff" stroke-miterlimit="10" stroke-width="0.25" fill="url(#linear-gradient-27)"/><polygon id="Path-29" data-name="Path" points="22.97 16.36 27.87 13.54 27.87 19.23 22.97 16.36" stroke="#fff" stroke-miterlimit="10" stroke-width="0.25" fill="url(#linear-gradient-28)"/><polygon id="Path-30" data-name="Path" points="22.32 23.81 28.43 27.37 22.32 30.89 22.32 23.81" stroke="#fff" stroke-miterlimit="10" stroke-width="0.25" fill="url(#linear-gradient-29)"/><polygon id="Path-31" data-name="Path" points="22.32 23.81 28.43 20.29 28.43 27.37 22.32 23.81" stroke="#fff" stroke-miterlimit="10" stroke-width="0.25" fill="url(#linear-gradient-30)"/><polygon id="Path-32" data-name="Path" points="16.26 20.29 22.32 23.81 16.26 27.37 16.26 20.29" stroke="#fff" stroke-miterlimit="10" stroke-width="0.25" fill="url(#linear-gradient-31)"/><polygon id="Path-33" data-name="Path" points="16.26 20.29 22.32 16.78 22.32 23.81 16.26 20.29" stroke="#fff" stroke-miterlimit="10" stroke-width="0.25" fill="url(#linear-gradient-32)"/><polygon id="Path-34" data-name="Path" points="21.35 9.14 17.65 11.27 17.65 7.02 21.35 9.14" stroke="#fff" stroke-miterlimit="10" stroke-width="0.25" fill="url(#linear-gradient-33)"/><polygon id="Path-35" data-name="Path" points="16.17 2.34 19.87 0.22 19.87 4.47 16.17 2.34" stroke="#fff" stroke-miterlimit="10" stroke-width="0.25" fill="url(#linear-gradient-34)"/><polygon id="Path-36" data-name="Path" points="24.03 0.86 27.69 2.99 24.03 5.12 24.03 0.86" stroke="#fff" stroke-miterlimit="10" stroke-width="0.25" fill="url(#linear-gradient-35)"/><polygon id="Path-37" data-name="Path" points="32.17 3.36 35.83 5.49 32.17 7.62 32.17 3.36" stroke="#fff" stroke-miterlimit="10" stroke-width="0.25" fill="url(#linear-gradient-36)"/><polygon id="Path-38" data-name="Path" points="28.61 11.92 32.31 9.79 32.31 14.05 28.61 11.92" stroke="#fff" stroke-miterlimit="10" stroke-width="0.25" fill="url(#linear-gradient-37)"/><polygon id="Path-39" data-name="Path" points="38.69 16.45 42.35 14.32 42.35 18.58 38.69 16.45" stroke="#fff" stroke-miterlimit="10" stroke-width="0.25" fill="url(#linear-gradient-38)"/><polygon id="Path-40" data-name="Path" points="36.15 29.73 36.15 25.47 39.8 27.6 36.15 29.73" stroke="#fff" stroke-miterlimit="10" stroke-width="0.25" fill="url(#linear-gradient-39)"/><polygon id="Path-41" data-name="Path" points="36.38 30.93 40.03 28.8 40.03 33.06 36.38 30.93" stroke="#fff" stroke-miterlimit="10" stroke-width="0.25" fill="url(#linear-gradient-40)"/><polygon id="Path-42" data-name="Path" points="39.85 36.53 43.55 38.66 39.85 40.78 39.85 36.53" stroke="#fff" stroke-miterlimit="10" stroke-width="0.25" fill="url(#linear-gradient-41)"/><polygon id="Path-43" data-name="Path" points="30.46 42.13 30.46 37.87 34.16 40 30.46 42.13" stroke="#fff" stroke-miterlimit="10" stroke-width="0.25" fill="url(#linear-gradient-42)"/><polygon id="Path-44" data-name="Path" points="23.57 38.56 27.27 36.44 27.27 40.69 23.57 38.56" stroke="#fff" stroke-miterlimit="10" stroke-width="0.25" fill="url(#linear-gradient-43)"/><polygon id="Path-45" data-name="Path" points="15.34 46.29 19.04 44.16 19.04 48.42 15.34 46.29" stroke="#fff" stroke-miterlimit="10" stroke-width="0.25" fill="url(#linear-gradient-44)"/><polygon id="Path-46" data-name="Path" points="17.84 36.67 21.49 38.8 17.84 40.97 17.84 36.67" stroke="#fff" stroke-miterlimit="10" stroke-width="0.25" fill="url(#linear-gradient-45)"/><polygon id="Path-47" data-name="Path" points="11.27 33.01 14.97 35.14 11.27 37.27 11.27 33.01" stroke="#fff" stroke-miterlimit="10" stroke-width="0.25" fill="url(#linear-gradient-46)"/><polygon id="Path-48" data-name="Path" points="1.74 38.15 5.44 36.02 5.44 40.27 1.74 38.15" stroke="#fff" stroke-miterlimit="10" stroke-width="0.25" fill="url(#linear-gradient-47)"/><polygon id="Path-49" data-name="Path" points="2.34 21.13 6 23.25 2.34 25.33 2.34 21.13" stroke="#fff" stroke-miterlimit="10" stroke-width="0.25" fill="url(#linear-gradient-48)"/><polygon id="Path-50" data-name="Path" points="4.89 20.29 8.54 18.16 8.54 22.42 4.89 20.29" stroke="#fff" stroke-miterlimit="10" stroke-width="0.25" fill="url(#linear-gradient-49)"/><polygon id="Path-51" data-name="Path" points="0.13 14.6 3.83 16.73 0.13 18.86 0.13 14.6" stroke="#fff" stroke-miterlimit="10" stroke-width="0.25" fill="url(#linear-gradient-50)"/><polygon id="Path-52" data-name="Path" points="3.08 11.97 6.79 9.84 6.79 14.09 3.08 11.97" stroke="#fff" stroke-miterlimit="10" stroke-width="0.25" fill="url(#linear-gradient-51)"/><polygon id="Path-53" data-name="Path" points="11.27 9.38 14.97 11.5 11.27 13.63 11.27 9.38" stroke="#fff" stroke-miterlimit="10" stroke-width="0.25" fill="url(#linear-gradient-52)"/><polygon id="Path-54" data-name="Path" points="1.05 30.28 4.24 32.13 1.05 33.98 1.05 30.28" stroke="#fff" stroke-miterlimit="10" stroke-width="0.25" fill="url(#linear-gradient-53)"/><polygon id="Path-55" data-name="Path" points="23.57 46.66 23.57 42.4 27.27 44.53 27.27 44.53 23.57 46.66" stroke="#fff" stroke-miterlimit="10" stroke-width="0.25" fill="url(#linear-gradient-54)"/></g><polygon id="Path-56" data-name="Path" points="95.69 12.51 95.69 38.94 105.31 38.94 105.31 6.97 95.69 12.51" fill="#fff"/><path id="Path-57" data-name="Path" d="M127.83,31.84c-4.68,0-8-3.64-8-8.93s3.29-8.83,8-8.83A7.32,7.32,0,0,1,135,19.71l8-4.59c-2.42-5.55-8.32-9.27-15.5-9.27-10,0-17.33,7.19-17.33,17.06S117.61,40,127.66,40c8.83,0,15.67-5.37,16.37-12.82l-9-1A7.33,7.33,0,0,1,127.83,31.84Z" fill="#fff"/><polygon id="Path-58" data-name="Path" points="80.45 12.17 80.45 27.16 69.45 6.97 59.4 12.78 59.4 38.94 68.41 38.94 68.41 18.58 79.41 38.94 89.45 38.94 89.45 6.97 80.45 12.17" fill="#fff"/></g></g></svg>