<?xml version="1.0" encoding="UTF-8"?>
<svg width="273px" height="90px" viewBox="0 0 273 90" version="1.1" xmlns="http://www.w3.org/2000/svg" xmlns:xlink="http://www.w3.org/1999/xlink">
    <title>NIC-logo@2x</title>
    <defs>
        <linearGradient x1="453.547354%" y1="-473.771921%" x2="-207.013113%" y2="343.00809%" id="linearGradient-1">
            <stop stop-color="#A6CE39" offset="0%"></stop>
            <stop stop-color="#03B585" offset="50%"></stop>
            <stop stop-color="#273470" offset="100%"></stop>
        </linearGradient>
        <linearGradient x1="356.450999%" y1="-353.988515%" x2="-304.383984%" y2="462.842078%" id="linearGradient-2">
            <stop stop-color="#A6CE39" offset="0%"></stop>
            <stop stop-color="#03B585" offset="50%"></stop>
            <stop stop-color="#273470" offset="100%"></stop>
        </linearGradient>
        <linearGradient x1="378.81652%" y1="-333.991607%" x2="-145.31818%" y2="318.213177%" id="linearGradient-3">
            <stop stop-color="#A6CE39" offset="0%"></stop>
            <stop stop-color="#03B585" offset="50%"></stop>
            <stop stop-color="#273470" offset="100%"></stop>
        </linearGradient>
        <linearGradient x1="285.291491%" y1="-263.648786%" x2="-249.876603%" y2="392.891869%" id="linearGradient-4">
            <stop stop-color="#A6CE39" offset="0%"></stop>
            <stop stop-color="#03B585" offset="50%"></stop>
            <stop stop-color="#273470" offset="100%"></stop>
        </linearGradient>
        <linearGradient x1="384.273028%" y1="-329.841623%" x2="-344.49174%" y2="553.331217%" id="linearGradient-5">
            <stop stop-color="#A6CE39" offset="0%"></stop>
            <stop stop-color="#03B585" offset="50%"></stop>
            <stop stop-color="#273470" offset="100%"></stop>
        </linearGradient>
        <linearGradient x1="288.002054%" y1="-216.615841%" x2="-424.989265%" y2="657.004885%" id="linearGradient-6">
            <stop stop-color="#A6CE39" offset="0%"></stop>
            <stop stop-color="#03B585" offset="50%"></stop>
            <stop stop-color="#273470" offset="100%"></stop>
        </linearGradient>
        <linearGradient x1="212.794027%" y1="-175.060317%" x2="-506.809568%" y2="708.111817%" id="linearGradient-7">
            <stop stop-color="#A6CE39" offset="0%"></stop>
            <stop stop-color="#03B585" offset="50%"></stop>
            <stop stop-color="#273470" offset="100%"></stop>
        </linearGradient>
        <linearGradient x1="266.484591%" y1="-243.588974%" x2="-437.636355%" y2="630.031403%" id="linearGradient-8">
            <stop stop-color="#A6CE39" offset="0%"></stop>
            <stop stop-color="#03B585" offset="50%"></stop>
            <stop stop-color="#273470" offset="100%"></stop>
        </linearGradient>
        <linearGradient x1="287.071244%" y1="-219.110956%" x2="-416.956278%" y2="654.292045%" id="linearGradient-9">
            <stop stop-color="#A6CE39" offset="0%"></stop>
            <stop stop-color="#03B585" offset="50%"></stop>
            <stop stop-color="#273470" offset="100%"></stop>
        </linearGradient>
        <linearGradient x1="457.735554%" y1="-430.903001%" x2="-246.385991%" y2="442.717725%" id="linearGradient-10">
            <stop stop-color="#A6CE39" offset="0%"></stop>
            <stop stop-color="#03B585" offset="50%"></stop>
            <stop stop-color="#273470" offset="100%"></stop>
        </linearGradient>
        <linearGradient x1="631.330326%" y1="-644.729375%" x2="-66.4823998%" y2="219.542975%" id="linearGradient-11">
            <stop stop-color="#A6CE39" offset="0%"></stop>
            <stop stop-color="#03B585" offset="50%"></stop>
            <stop stop-color="#273470" offset="100%"></stop>
        </linearGradient>
        <linearGradient x1="601.502725%" y1="-600.781577%" x2="-111.487381%" y2="272.839149%" id="linearGradient-12">
            <stop stop-color="#A6CE39" offset="0%"></stop>
            <stop stop-color="#03B585" offset="50%"></stop>
            <stop stop-color="#273470" offset="100%"></stop>
        </linearGradient>
        <linearGradient x1="268.582374%" y1="50.0084211%" x2="-479.779225%" y2="50.0084211%" id="linearGradient-13">
            <stop stop-color="#A6CE39" offset="0%"></stop>
            <stop stop-color="#03B585" offset="50%"></stop>
            <stop stop-color="#273470" offset="100%"></stop>
        </linearGradient>
        <linearGradient x1="268.194125%" y1="49.9934743%" x2="-480.355845%" y2="49.9934743%" id="linearGradient-14">
            <stop stop-color="#A6CE39" offset="0%"></stop>
            <stop stop-color="#03B585" offset="50%"></stop>
            <stop stop-color="#273470" offset="100%"></stop>
        </linearGradient>
        <linearGradient x1="268.099637%" y1="50.0067867%" x2="-480.26166%" y2="50.0067867%" id="linearGradient-15">
            <stop stop-color="#A6CE39" offset="0%"></stop>
            <stop stop-color="#03B585" offset="50%"></stop>
            <stop stop-color="#273470" offset="100%"></stop>
        </linearGradient>
        <linearGradient x1="268.194125%" y1="49.9921053%" x2="-480.355845%" y2="49.9921053%" id="linearGradient-16">
            <stop stop-color="#A6CE39" offset="0%"></stop>
            <stop stop-color="#03B585" offset="50%"></stop>
            <stop stop-color="#273470" offset="100%"></stop>
        </linearGradient>
        <linearGradient x1="268.582374%" y1="50.0036544%" x2="-479.779225%" y2="50.0036544%" id="linearGradient-17">
            <stop stop-color="#A6CE39" offset="0%"></stop>
            <stop stop-color="#03B585" offset="50%"></stop>
            <stop stop-color="#273470" offset="100%"></stop>
        </linearGradient>
        <linearGradient x1="368.57026%" y1="50.0065789%" x2="-379.885524%" y2="50.0065789%" id="linearGradient-18">
            <stop stop-color="#A6CE39" offset="0%"></stop>
            <stop stop-color="#03B585" offset="50%"></stop>
            <stop stop-color="#273470" offset="100%"></stop>
        </linearGradient>
        <linearGradient x1="469.040884%" y1="50.0052192%" x2="-279.509085%" y2="50.0052192%" id="linearGradient-19">
            <stop stop-color="#A6CE39" offset="0%"></stop>
            <stop stop-color="#03B585" offset="50%"></stop>
            <stop stop-color="#273470" offset="100%"></stop>
        </linearGradient>
        <linearGradient x1="468.946699%" y1="50.0065789%" x2="-279.4149%" y2="50.0065789%" id="linearGradient-20">
            <stop stop-color="#A6CE39" offset="0%"></stop>
            <stop stop-color="#03B585" offset="50%"></stop>
            <stop stop-color="#273470" offset="100%"></stop>
        </linearGradient>
        <linearGradient x1="569.029073%" y1="50.0036544%" x2="-179.520896%" y2="50.0036544%" id="linearGradient-21">
            <stop stop-color="#A6CE39" offset="0%"></stop>
            <stop stop-color="#03B585" offset="50%"></stop>
            <stop stop-color="#273470" offset="100%"></stop>
        </linearGradient>
        <linearGradient x1="569.417323%" y1="49.9921053%" x2="-179.038462%" y2="49.9921053%" id="linearGradient-22">
            <stop stop-color="#A6CE39" offset="0%"></stop>
            <stop stop-color="#03B585" offset="50%"></stop>
            <stop stop-color="#273470" offset="100%"></stop>
        </linearGradient>
        <linearGradient x1="569.417323%" y1="50.0067867%" x2="-179.038462%" y2="50.0067867%" id="linearGradient-23">
            <stop stop-color="#A6CE39" offset="0%"></stop>
            <stop stop-color="#03B585" offset="50%"></stop>
            <stop stop-color="#273470" offset="100%"></stop>
        </linearGradient>
        <linearGradient x1="569.417323%" y1="49.9934743%" x2="-179.038462%" y2="49.9934743%" id="linearGradient-24">
            <stop stop-color="#A6CE39" offset="0%"></stop>
            <stop stop-color="#03B585" offset="50%"></stop>
            <stop stop-color="#273470" offset="100%"></stop>
        </linearGradient>
        <linearGradient x1="569.029073%" y1="50.0084211%" x2="-179.520896%" y2="50.0084211%" id="linearGradient-25">
            <stop stop-color="#A6CE39" offset="0%"></stop>
            <stop stop-color="#03B585" offset="50%"></stop>
            <stop stop-color="#273470" offset="100%"></stop>
        </linearGradient>
        <linearGradient x1="469.040884%" y1="50.0046973%" x2="-279.509085%" y2="50.0046973%" id="linearGradient-26">
            <stop stop-color="#A6CE39" offset="0%"></stop>
            <stop stop-color="#03B585" offset="50%"></stop>
            <stop stop-color="#273470" offset="100%"></stop>
        </linearGradient>
        <linearGradient x1="368.57026%" y1="50.0046973%" x2="-379.885524%" y2="50.0046973%" id="linearGradient-27">
            <stop stop-color="#A6CE39" offset="0%"></stop>
            <stop stop-color="#03B585" offset="50%"></stop>
            <stop stop-color="#273470" offset="100%"></stop>
        </linearGradient>
        <linearGradient x1="368.57026%" y1="50.0049595%" x2="-379.885524%" y2="50.0049595%" id="linearGradient-28">
            <stop stop-color="#A6CE39" offset="0%"></stop>
            <stop stop-color="#03B585" offset="50%"></stop>
            <stop stop-color="#273470" offset="100%"></stop>
        </linearGradient>
        <linearGradient x1="368.081955%" y1="50.0027277%" x2="-378.157344%" y2="50.0027277%" id="linearGradient-29">
            <stop stop-color="#A6CE39" offset="0%"></stop>
            <stop stop-color="#03B585" offset="50%"></stop>
            <stop stop-color="#273470" offset="100%"></stop>
        </linearGradient>
        <linearGradient x1="368.081955%" y1="49.9949643%" x2="-378.157344%" y2="49.9949643%" id="linearGradient-30">
            <stop stop-color="#A6CE39" offset="0%"></stop>
            <stop stop-color="#03B585" offset="50%"></stop>
            <stop stop-color="#273470" offset="100%"></stop>
        </linearGradient>
        <linearGradient x1="470.801764%" y1="49.9949643%" x2="-280.953688%" y2="49.9949643%" id="linearGradient-31">
            <stop stop-color="#A6CE39" offset="0%"></stop>
            <stop stop-color="#03B585" offset="50%"></stop>
            <stop stop-color="#273470" offset="100%"></stop>
        </linearGradient>
        <linearGradient x1="470.954423%" y1="50.0069694%" x2="-281.106346%" y2="50.0069694%" id="linearGradient-32">
            <stop stop-color="#A6CE39" offset="0%"></stop>
            <stop stop-color="#03B585" offset="50%"></stop>
            <stop stop-color="#273470" offset="100%"></stop>
        </linearGradient>
        <linearGradient x1="600.111156%" y1="49.9930216%" x2="-391.622793%" y2="49.9930216%" id="linearGradient-33">
            <stop stop-color="#A6CE39" offset="0%"></stop>
            <stop stop-color="#03B585" offset="50%"></stop>
            <stop stop-color="#273470" offset="100%"></stop>
        </linearGradient>
        <linearGradient x1="632.119181%" y1="49.9937195%" x2="-359.614767%" y2="49.9937195%" id="linearGradient-34">
            <stop stop-color="#A6CE39" offset="0%"></stop>
            <stop stop-color="#03B585" offset="50%"></stop>
            <stop stop-color="#273470" offset="100%"></stop>
        </linearGradient>
        <linearGradient x1="467.982927%" y1="49.9972087%" x2="-536.651626%" y2="49.9972087%" id="linearGradient-35">
            <stop stop-color="#A6CE39" offset="0%"></stop>
            <stop stop-color="#03B585" offset="50%"></stop>
            <stop stop-color="#273470" offset="100%"></stop>
        </linearGradient>
        <linearGradient x1="343.004876%" y1="49.9996511%" x2="-661.095083%" y2="49.9996511%" id="linearGradient-36">
            <stop stop-color="#A6CE39" offset="0%"></stop>
            <stop stop-color="#03B585" offset="50%"></stop>
            <stop stop-color="#273470" offset="100%"></stop>
        </linearGradient>
        <linearGradient x1="363.132022%" y1="49.9919749%" x2="-628.601926%" y2="49.9919749%" id="linearGradient-37">
            <stop stop-color="#A6CE39" offset="0%"></stop>
            <stop stop-color="#03B585" offset="50%"></stop>
            <stop stop-color="#273470" offset="100%"></stop>
        </linearGradient>
        <linearGradient x1="146.820398%" y1="49.9972077%" x2="-857.405526%" y2="49.9972077%" id="linearGradient-38">
            <stop stop-color="#A6CE39" offset="0%"></stop>
            <stop stop-color="#03B585" offset="50%"></stop>
            <stop stop-color="#273470" offset="100%"></stop>
        </linearGradient>
        <linearGradient x1="202.503454%" y1="49.9982548%" x2="-801.722877%" y2="49.9982548%" id="linearGradient-39">
            <stop stop-color="#A6CE39" offset="0%"></stop>
            <stop stop-color="#03B585" offset="50%"></stop>
            <stop stop-color="#273470" offset="100%"></stop>
        </linearGradient>
        <linearGradient x1="197.597318%" y1="50.0073273%" x2="-806.755384%" y2="50.0073273%" id="linearGradient-40">
            <stop stop-color="#A6CE39" offset="0%"></stop>
            <stop stop-color="#03B585" offset="50%"></stop>
            <stop stop-color="#273470" offset="100%"></stop>
        </linearGradient>
        <linearGradient x1="162.483547%" y1="50.0059316%" x2="-829.250401%" y2="50.0059316%" id="linearGradient-41">
            <stop stop-color="#A6CE39" offset="0%"></stop>
            <stop stop-color="#03B585" offset="50%"></stop>
            <stop stop-color="#273470" offset="100%"></stop>
        </linearGradient>
        <linearGradient x1="323.256822%" y1="50.000349%" x2="-668.601926%" y2="50.000349%" id="linearGradient-42">
            <stop stop-color="#A6CE39" offset="0%"></stop>
            <stop stop-color="#03B585" offset="50%"></stop>
            <stop stop-color="#273470" offset="100%"></stop>
        </linearGradient>
        <linearGradient x1="472.118379%" y1="49.995813%" x2="-519.61557%" y2="49.995813%" id="linearGradient-43">
            <stop stop-color="#A6CE39" offset="0%"></stop>
            <stop stop-color="#03B585" offset="50%"></stop>
            <stop stop-color="#273470" offset="100%"></stop>
        </linearGradient>
        <linearGradient x1="650.256421%" y1="49.9944173%" x2="-341.602729%" y2="49.9944173%" id="linearGradient-44">
            <stop stop-color="#A6CE39" offset="0%"></stop>
            <stop stop-color="#03B585" offset="50%"></stop>
            <stop stop-color="#273470" offset="100%"></stop>
        </linearGradient>
        <linearGradient x1="603.517676%" y1="49.9896445%" x2="-400.581877%" y2="49.9896445%" id="linearGradient-45">
            <stop stop-color="#A6CE39" offset="0%"></stop>
            <stop stop-color="#03B585" offset="50%"></stop>
            <stop stop-color="#273470" offset="100%"></stop>
        </linearGradient>
        <linearGradient x1="738.248796%" y1="49.9933706%" x2="-253.485152%" y2="49.9933706%" id="linearGradient-46">
            <stop stop-color="#A6CE39" offset="0%"></stop>
            <stop stop-color="#03B585" offset="50%"></stop>
            <stop stop-color="#273470" offset="100%"></stop>
        </linearGradient>
        <linearGradient x1="870.504815%" y1="50.0010471%" x2="-121.354334%" y2="50.0010471%" id="linearGradient-47">
            <stop stop-color="#A6CE39" offset="0%"></stop>
            <stop stop-color="#03B585" offset="50%"></stop>
            <stop stop-color="#273470" offset="100%"></stop>
        </linearGradient>
        <linearGradient x1="892.353108%" y1="49.9936486%" x2="-111.873222%" y2="49.9936486%" id="linearGradient-48">
            <stop stop-color="#A6CE39" offset="0%"></stop>
            <stop stop-color="#03B585" offset="50%"></stop>
            <stop stop-color="#273470" offset="100%"></stop>
        </linearGradient>
        <linearGradient x1="887.492276%" y1="49.9940684%" x2="-117.268699%" y2="49.9940684%" id="linearGradient-49">
            <stop stop-color="#A6CE39" offset="0%"></stop>
            <stop stop-color="#03B585" offset="50%"></stop>
            <stop stop-color="#273470" offset="100%"></stop>
        </linearGradient>
        <linearGradient x1="978.993579%" y1="50.0111654%" x2="-12.6151685%" y2="50.0111654%" id="linearGradient-50">
            <stop stop-color="#A6CE39" offset="0%"></stop>
            <stop stop-color="#03B585" offset="50%"></stop>
            <stop stop-color="#273470" offset="100%"></stop>
        </linearGradient>
        <linearGradient x1="915.227127%" y1="49.9972087%" x2="-76.6316212%" y2="49.9972087%" id="linearGradient-51">
            <stop stop-color="#A6CE39" offset="0%"></stop>
            <stop stop-color="#03B585" offset="50%"></stop>
            <stop stop-color="#273470" offset="100%"></stop>
        </linearGradient>
        <linearGradient x1="738.248796%" y1="49.9972077%" x2="-253.485152%" y2="49.9972077%" id="linearGradient-52">
            <stop stop-color="#A6CE39" offset="0%"></stop>
            <stop stop-color="#03B585" offset="50%"></stop>
            <stop stop-color="#273470" offset="100%"></stop>
        </linearGradient>
        <linearGradient x1="937.247907%" y1="50.0036116%" x2="-212.24093%" y2="50.0036116%" id="linearGradient-53">
            <stop stop-color="#A6CE39" offset="0%"></stop>
            <stop stop-color="#03B585" offset="50%"></stop>
            <stop stop-color="#273470" offset="100%"></stop>
        </linearGradient>
        <linearGradient x1="472.118379%" y1="50.0055827%" x2="-519.61557%" y2="50.0055827%" id="linearGradient-54">
            <stop stop-color="#A6CE39" offset="0%"></stop>
            <stop stop-color="#03B585" offset="50%"></stop>
            <stop stop-color="#273470" offset="100%"></stop>
        </linearGradient>
    </defs>
    <g id="Page-1" stroke="none" stroke-width="1" fill="none" fill-rule="evenodd">
        <g id="login-Desktop" transform="translate(-328.000000, -229.000000)" fill-rule="nonzero">
            <g id="NIC-logo" transform="translate(328.000000, 229.000000)">
                <g id="Group" transform="translate(97.632896, 5.673178)" fill="#231F20">
                    <polygon id="Path" points="36.2939016 6.66861791 36.2939016 33.0935363 45.9072255 33.0935363 45.9072255 1.12298971"></polygon>
                    <path d="M68.4297911,25.9895865 C63.7534135,25.9895865 60.4602679,22.3516544 60.4602679,17.0666708 C60.4602679,11.7816871 63.7506415,8.22971224 68.5157233,8.22971224 C71.8948011,8.22971224 74.8386737,10.5699673 75.617608,13.8612977 L83.6730634,9.26951753 C81.2475564,3.72388933 75.3570392,-1.97020292e-15 68.1692223,-1.97020292e-15 C58.1206931,-1.97020292e-15 50.8469439,7.19267977 50.8469439,17.0694436 C50.8469439,26.9462074 58.2093973,34.1388872 68.2579266,34.1388872 C77.0923163,34.1388872 83.9364042,28.7679463 84.6294062,21.314622 L75.62038,20.2748167 C74.8386737,23.6521043 71.8920291,25.9895865 68.4297911,25.9895865 Z" id="Path"></path>
                    <polygon id="Path" points="21.0478572 6.32201614 21.0478572 21.3118492 10.0485292 1.12298971 1.57570415e-14 6.92926243 1.57570415e-14 33.0935363 9.00902621 33.0935363 9.00902621 12.7327623 20.0083542 33.0935363 30.0568834 33.0935363 30.0568834 1.12298971"></polygon>
                    <polygon id="Path" points="7.88359093 67.2324234 7.88359093 67.2324234 2.51143931 58.9999384 1.12543527 58.9999384 1.12543527 69.1373467 2.33957481 69.1373467 2.33957481 60.9935917 2.42550706 60.9935917 7.70895443 69.1373467 9.18089071 69.1373467 9.18089071 58.9999384 7.88359093 58.9999384"></polygon>
                    <path d="M16.9785494,68.0115842 C16.9785494,67.8396697 16.8926171,67.5790252 16.8926171,67.4043379 L16.8926171,63.6776758 C16.8926171,63.331074 16.8066849,62.9844722 16.6320484,62.6378705 C16.4601839,62.377226 16.2855474,62.1193542 16.0249786,62.0306242 C15.7644099,61.8587097 15.5066131,61.7699797 15.1601121,61.7699797 C14.8136111,61.7699797 14.4671101,61.6840224 14.1206091,61.7699797 C13.6881758,61.7699797 13.3416748,61.7699797 12.9951738,61.8559369 C12.6486728,61.9418941 12.3021718,62.1165814 12.041603,62.2884959 C11.7810343,62.4604104 11.5232375,62.7210549 11.348601,63.0676567 C11.1767365,63.4142584 11.0880323,63.8468174 11.0880323,64.1934192 L12.2993998,64.1934192 C12.2993998,63.7608602 12.4712643,63.3283012 12.8177653,63.0676567 C13.2501985,62.8957422 13.6826318,62.7210549 14.1178371,62.8070121 C14.2897016,62.8070121 14.4643381,62.8070121 14.7249068,62.8070121 C14.8967713,62.8070121 15.0714078,62.8929694 15.2432723,62.9789266 C15.4151368,63.0648838 15.5038411,63.1508411 15.5897734,63.3255284 C15.6757056,63.4974428 15.7616379,63.7580874 15.7616379,63.9327747 C15.7616379,64.107462 15.6757056,64.2793764 15.5897734,64.4512909 C15.4179089,64.6232054 15.2432723,64.7119354 15.0714078,64.7119354 C14.8108391,64.7978927 14.5530423,64.7978927 14.2924736,64.8838499 C13.9459726,64.8838499 13.6854038,64.9698071 13.3389028,65.0557644 C12.9924018,65.1417216 12.731833,65.1417216 12.385332,65.3164089 C12.1247633,65.4023661 11.8669665,65.4883234 11.6063978,65.6630107 C11.345829,65.8349251 11.1739645,66.0096124 10.999328,66.2702569 C10.7387592,66.8775032 10.7387592,67.5707068 10.999328,68.2639103 C11.0852602,68.5245548 11.2598968,68.6964693 11.5176935,68.8711566 C11.7782623,69.043071 12.036059,69.1318011 12.2966278,69.2177583 C12.6431288,69.3037156 12.9036975,69.3037156 13.2501985,69.3037156 C13.7685641,69.3037156 14.2037693,69.2177583 14.6362026,69.043071 C15.0686358,68.8711566 15.5010691,68.5245548 15.7616379,68.177953 C15.7616379,68.5245548 15.8475701,68.7851993 16.0222066,69.043071 C16.1940711,69.2149855 16.4546399,69.3037156 16.8011409,69.3037156 C17.0617096,69.3037156 17.4082106,69.2177583 17.6660074,69.1318011 L17.6660074,68.177953 C17.5800751,68.177953 17.4054386,68.2639103 17.3195064,68.2639103 C17.0644816,68.2722287 16.9785494,68.1862715 16.9785494,68.0115842 Z M15.6784776,66.6251772 C15.6784776,66.7970916 15.5925454,66.9717789 15.5925454,67.1436934 C15.5066131,67.3156079 15.3319766,67.4902952 15.1601121,67.6622096 C14.9882476,67.8341241 14.7276788,68.0088114 14.4671101,68.0947686 C14.1206091,68.1807259 13.7741081,68.2666831 13.4276071,68.2666831 C13.2557426,68.2666831 13.0811061,68.2666831 12.9092416,68.1807259 C12.7373771,68.1807259 12.5627405,68.0947686 12.4768083,68.0088114 C12.3049438,67.9228541 12.2162395,67.8368969 12.1303073,67.6622096 C12.044375,67.4902952 12.044375,67.3156079 12.044375,67.1436934 C12.044375,66.9717789 12.044375,66.7111344 12.1303073,66.5364471 C12.2162395,66.3645326 12.3021718,66.2758026 12.4768083,66.1898453 C12.6486728,66.1038881 12.7373771,66.0179309 12.9092416,65.9292008 C13.0811061,65.8432436 13.2557426,65.8432436 13.5163113,65.7572863 C13.6881758,65.7572863 13.9487446,65.6713291 14.1233811,65.6713291 L14.7304509,65.5853719 C14.9023154,65.5853719 15.0769519,65.4994146 15.2488164,65.4994146 C15.4206809,65.4994146 15.5093851,65.4134574 15.6812496,65.3275002 C15.6784776,65.3275002 15.6784776,66.6251772 15.6784776,66.6251772 Z" id="Shape"></path>
                    <path d="M20.4407875,59.6071847 L19.2294199,59.6071847 L19.2294199,61.7727525 L18.0180524,61.7727525 L18.0180524,62.8125578 L19.2294199,62.8125578 L19.2294199,67.5790252 C19.2294199,67.8396697 19.2294199,68.0975414 19.3153522,68.358186 C19.4012844,68.5301004 19.4872167,68.7047877 19.6618532,68.8767022 C19.8337177,68.9626594 20.0083542,69.0486167 20.1802187,69.1373467 C20.4407875,69.223304 20.6985842,69.223304 20.959153,69.223304 L21.9127237,69.223304 L21.9127237,68.1834987 L21.3943582,68.1834987 C21.2224937,68.1834987 21.0478572,68.1834987 20.961925,68.1834987 C20.8759927,68.1834987 20.7900605,68.1834987 20.7013562,68.0975414 C20.612652,68.0115842 20.615424,68.0115842 20.5294917,67.925627 C20.5294917,67.8396697 20.5294917,67.6649824 20.5294917,67.5790252 L20.5294917,62.9872451 L22.001428,62.9872451 L22.001428,61.9474398 L20.5294917,61.9474398 L20.4407875,59.6071847 Z" id="Path"></path>
                    <rect id="Rectangle" x="23.3014998" y="61.7727525" width="1.21136752" height="7.36459424"></rect>
                    <path d="M32.1358895,62.7266005 C31.7893885,62.3799988 31.4428875,62.1193542 31.0104542,61.9474398 C30.0568834,61.5148808 28.9314482,61.5148808 27.9778774,61.9474398 C27.5454441,62.1193542 27.1989431,62.3799988 26.8524421,62.7266005 C26.5059411,63.0732023 26.3340766,63.5057613 26.1594401,63.9383203 C25.8988713,64.8921683 25.8988713,65.9319736 26.1594401,66.9717789 C26.3313046,67.4043379 26.5059411,67.8368969 26.8524421,68.1834987 C27.1989431,68.5301004 27.5454441,68.8767022 27.9778774,69.0486167 C28.9314482,69.4811757 30.0568834,69.4811757 31.0104542,69.0486167 C31.4428875,68.8767022 31.7893885,68.5301004 32.1358895,68.1834987 C32.4823905,67.8368969 32.654255,67.4043379 32.8288915,66.9717789 C33.0894603,66.0179309 33.0894603,64.9781256 32.8288915,63.9383203 C32.654255,63.5057613 32.4823905,63.0732023 32.1358895,62.7266005 Z M31.614752,66.6251772 C31.5288197,66.9717789 31.3541832,67.2324234 31.0963865,67.4902952 C30.924522,67.7509397 30.6639532,67.9228541 30.4033844,68.0088114 C30.1428157,68.0947686 29.7963147,68.1807259 29.5385179,68.1807259 C28.9314482,68.1807259 28.3271504,67.9200813 27.8919451,67.4875223 C27.6313764,67.2268778 27.5454441,66.9690061 27.3735796,66.6224043 C27.2876474,66.2758026 27.2017151,65.8432436 27.2017151,65.4106846 C27.2017151,64.9781256 27.2876474,64.6315238 27.3735796,64.1989648 C27.4595119,63.8523631 27.6341484,63.5917185 27.8919451,63.3338468 C28.0638096,63.0732023 28.3243784,62.9012878 28.5849472,62.8153306 C28.8455159,62.7293733 29.1920169,62.6434161 29.4498137,62.6434161 C29.7076104,62.6434161 30.0568834,62.7293733 30.3146802,62.8153306 C30.5752489,62.9012878 30.8330457,63.1619323 31.0076822,63.3338468 C31.268251,63.5944913 31.3541832,63.8523631 31.5260477,64.1989648 C31.61198,64.5455666 31.6979122,64.9781256 31.6979122,65.4106846 C31.7893885,65.8460164 31.7034562,66.2785754 31.614752,66.6251772 L31.614752,66.6251772 Z" id="Shape"></path>
                    <path d="M40.0167084,62.3799988 C39.8448439,62.1193542 39.4983429,61.9474398 39.2377741,61.8614825 C38.8912731,61.6895681 38.4588399,61.6895681 38.0264066,61.6895681 C37.5080411,61.6895681 37.0728358,61.7755253 36.6404026,62.0361698 C36.2079693,62.2968143 35.8614683,62.6434161 35.6868318,63.0759751 L35.6868318,63.0759751 L35.6868318,61.9502126 L34.5613965,61.9502126 L34.5613965,69.3148068 L35.7727641,69.3148068 L35.7727641,64.9836712 C35.7727641,64.6370694 35.7727641,64.3764249 35.8586963,64.0298232 C35.9446286,63.7691786 36.1192651,63.5113069 36.2911296,63.3366196 C36.4629941,63.1647052 36.7235628,62.9900179 36.9841316,62.8181034 C37.2447003,62.7321462 37.5912014,62.6461889 37.9377024,62.6461889 C38.3701356,62.6461889 38.7166366,62.7321462 39.0631376,63.0787479 C39.3237064,63.3393924 39.4955709,63.7719514 39.4955709,64.2045104 L39.4955709,69.1428924 L40.7069384,69.1428924 L40.7069384,64.2904677 C40.7069384,63.9438659 40.7069384,63.5972642 40.6210062,63.1647052 C40.3632094,62.9012878 40.2772772,62.6406433 40.0167084,62.3799988 Z" id="Path"></path>
                    <path d="M48.1608681,68.0115842 C48.1608681,67.8396697 48.0749359,67.5790252 48.0749359,67.4043379 L48.0749359,63.6776758 C48.0749359,63.331074 47.9890036,62.9844722 47.8143671,62.6378705 C47.6425026,62.377226 47.4678661,62.2053115 47.2072973,62.0306242 C46.9467286,61.8587097 46.6002276,61.7699797 46.3424308,61.7699797 C45.9959298,61.6840224 45.6494288,61.6840224 45.38886,61.6840224 C44.9564268,61.6840224 44.6099258,61.6840224 44.1774925,61.7699797 C43.8309915,61.8559369 43.4844905,62.0306242 43.2239217,62.2025387 C42.963353,62.3744531 42.7055562,62.6350977 42.5309197,62.9816994 C42.3590552,63.3283012 42.270351,63.7608602 42.270351,64.107462 L43.4817185,64.107462 C43.4817185,63.674903 43.653583,63.242344 44.000084,62.9816994 C44.4325173,62.809785 44.8649505,62.6350977 45.3001558,62.7210549 C45.4720203,62.7210549 45.6466568,62.7210549 45.9072255,62.7210549 C46.07909,62.7210549 46.2537266,62.8070121 46.4255911,62.8929694 C46.5974556,62.9789266 46.6861598,63.0648838 46.7720921,63.2395711 C46.8580243,63.4114856 46.9439566,63.6721301 46.9439566,63.8468174 C46.9439566,64.0215047 46.8580243,64.1934192 46.7720921,64.3653337 C46.6002276,64.5372481 46.4255911,64.6259782 46.2537266,64.6259782 C45.9931578,64.7119354 45.735361,64.7119354 45.4747923,64.7978927 C45.1282913,64.7978927 44.8677225,64.8838499 44.5212215,64.9698071 C44.1747205,65.0557644 43.9141518,65.0557644 43.5676507,65.2304517 C43.307082,65.3164089 43.0492852,65.4023661 42.7887165,65.5770534 C42.5281477,65.7489679 42.3562832,65.9236552 42.270351,66.1842997 C42.0984865,66.5309015 42.0097822,66.8775032 42.0984865,67.224105 C42.0984865,67.5707068 42.1844187,67.8313513 42.270351,68.177953 C42.3562832,68.4385976 42.5309197,68.610512 42.7887165,68.7851993 C43.0492852,68.9571138 43.307082,69.0458439 43.5676507,69.1318011 C43.9141518,69.2177583 44.1747205,69.2177583 44.5212215,69.2177583 C45.039587,69.2177583 45.4747923,69.1318011 45.9072255,68.9571138 C46.3396588,68.7851993 46.7720921,68.4385976 47.0326608,68.0919958 C47.0326608,68.4385976 47.1185931,68.6992421 47.2932296,68.9571138 C47.4650941,69.1290283 47.7256628,69.2177583 48.0721638,69.2177583 C48.3327326,69.2177583 48.6792336,69.1318011 48.9370304,69.0458439 L48.9370304,68.1807259 C48.8510981,68.1807259 48.6764616,68.2666831 48.5905294,68.2666831 C48.3327326,68.2722287 48.2468004,68.1862715 48.1608681,68.0115842 Z M46.9467286,66.6251772 C46.9467286,66.7970916 46.8607963,66.9717789 46.8607963,67.1436934 C46.7748641,67.3156079 46.6002276,67.4902952 46.4283631,67.6622096 C46.2564986,67.8341241 45.9959298,68.0088114 45.735361,68.0947686 C45.2169955,68.2666831 44.695858,68.2666831 44.1774925,68.1807259 C44.005628,68.1807259 43.8309915,68.0947686 43.7450593,68.0088114 C43.5731948,67.9228541 43.4844905,67.8368969 43.3985583,67.6622096 C43.312626,67.4902952 43.312626,67.3156079 43.312626,67.1436934 C43.312626,66.9717789 43.312626,66.7111344 43.3985583,66.5364471 C43.4844905,66.3617598 43.5704228,66.2758026 43.7450593,66.1898453 C43.9169238,66.1038881 44.005628,66.0179309 44.1774925,65.9292008 C44.349357,65.8432436 44.5239935,65.8432436 44.695858,65.7572863 C44.8677225,65.7572863 45.1282913,65.6713291 45.3029278,65.6713291 L45.9099976,65.5853719 C46.0818621,65.5853719 46.2564986,65.4994146 46.4283631,65.4994146 C46.6002276,65.4994146 46.6889318,65.4134574 46.8607963,65.3275002 L46.9467286,66.6251772 Z" id="Shape"></path>
                    <rect id="Rectangle" x="50.0652376" y="58.9999384" width="1.21136752" height="10.1374083"></rect>
                    <rect id="Rectangle" x="57.3417588" y="58.9999384" width="1.38600403" height="10.1374083"></rect>
                    <path d="M66.2620808,62.3799988 C66.0902163,62.1193542 65.7437153,61.9474398 65.4831465,61.8614825 C65.1366455,61.6895681 64.7042122,61.6895681 64.271779,61.6895681 C63.7534135,61.6895681 63.3182082,61.7755253 62.8857749,62.0361698 C62.4533417,62.2968143 62.1068407,62.6434161 61.9322042,63.0759751 L61.9322042,63.0759751 L61.9322042,61.9502126 L60.7208366,61.9502126 L60.7208366,69.3148068 L61.9322042,69.3148068 L61.9322042,64.9836712 C61.9322042,64.6370694 61.9322042,64.3764249 62.1040687,64.0298232 C62.1900009,63.7691786 62.2759332,63.5113069 62.5365019,63.3366196 C62.7083664,63.1647052 62.9689352,62.9900179 63.2295039,62.8181034 C63.4900727,62.7321462 63.8365737,62.6461889 64.1830747,62.6461889 C64.615508,62.6461889 64.962009,62.7321462 65.30851,63.0787479 C65.5690787,63.3393924 65.7409432,63.7719514 65.7409432,64.2045104 L65.7409432,69.1428924 L66.9523108,69.1428924 L66.9523108,64.2904677 C66.9523108,63.9438659 66.9523108,63.5972642 66.8663785,63.1647052 C66.6085818,62.9012878 66.4367173,62.6406433 66.2620808,62.3799988 Z" id="Path"></path>
                    <path d="M71.1130949,58.9139811 C70.5947294,58.9139811 70.0735919,58.9999384 69.6411586,59.3465401 C69.2946576,59.6931419 69.1227931,60.2116581 69.1227931,60.7329472 L69.1227931,61.8587097 L67.9114256,61.8587097 L67.9114256,62.898515 L69.1227931,62.898515 L69.1227931,69.1373467 L70.3341606,69.1373467 L70.3341606,62.898515 L71.7201646,62.898515 L71.7201646,61.8587097 L70.3341606,61.8587097 L70.3341606,60.8189044 C70.3341606,60.5582599 70.4200929,60.3003882 70.5947294,60.1257009 C70.7665939,60.0397437 71.0271626,59.9537864 71.2877314,59.9537864 C71.3736636,59.9537864 71.5483001,59.9537864 71.6342324,59.9537864 C71.7201646,59.9537864 71.8948011,59.9537864 71.9807334,60.0397437 L71.9807334,58.9999384 C71.8948011,58.9999384 71.7201646,58.9139811 71.6342324,58.9139811 L71.1130949,58.9139811 Z" id="Path"></path>
                    <path d="M78.6501848,62.7266005 C78.3036838,62.3799988 77.9571828,62.1193542 77.5247495,61.9474398 C77.006384,61.7755253 76.4852465,61.600838 75.966881,61.6867952 C75.4485155,61.6867952 74.927378,61.7727525 74.4090125,61.9474398 C73.9765792,62.1193542 73.6300782,62.3799988 73.2835772,62.7266005 C72.9370762,63.0732023 72.7652117,63.5057613 72.5905752,63.9383203 C72.3300064,64.8921683 72.3300064,65.9319736 72.5905752,66.9717789 C72.7624397,67.4043379 72.9370762,67.8368969 73.2835772,68.1834987 C73.5441459,68.5301004 73.9765792,68.8767022 74.4090125,69.0486167 C74.927378,69.2205311 75.4485155,69.3092612 75.966881,69.3092612 C76.4852465,69.3092612 77.006384,69.223304 77.5247495,69.0486167 C77.9571828,68.8767022 78.3036838,68.5301004 78.6501848,68.1834987 C78.9966858,67.8368969 79.1685503,67.4043379 79.3431868,66.9717789 C79.6896878,66.0179309 79.6896878,64.9781256 79.3431868,63.9383203 C79.1685503,63.5057613 78.9079816,63.0732023 78.6501848,62.7266005 Z M78.043115,66.7139072 C77.9571828,67.060509 77.7825463,67.3211535 77.5247495,67.5790252 C76.9176798,68.2722287 75.8781767,68.4441432 75.0133102,68.0975414 C74.7527415,68.0115842 74.4949447,67.8368969 74.234376,67.5790252 C73.9738072,67.3183807 73.8878749,67.060509 73.7160104,66.7139072 C73.7160104,66.2813482 73.6300782,65.8487892 73.6300782,65.5021874 C73.6300782,65.0696284 73.7160104,64.7230267 73.8019427,64.2904677 C73.8878749,63.9438659 74.0625115,63.6832214 74.3203082,63.4253497 C74.4921727,63.1647052 74.7527415,62.9927907 75.0992425,62.9068334 C75.617608,62.6461889 76.31061,62.6461889 76.8317475,62.9068334 C77.0923163,62.9927907 77.350113,63.2534352 77.5247495,63.4253497 C77.7853183,63.6859942 77.8712505,63.9438659 78.043115,64.2904677 C78.1290473,64.6370694 78.2149795,65.0696284 78.2149795,65.5021874 C78.2177515,65.8460164 78.1290473,66.2785754 78.043115,66.7139072 Z" id="Shape"></path>
                    <path d="M82.1151949,63.3338468 L82.1151949,63.3338468 L82.1151949,61.7755253 L80.9897596,61.7755253 L80.9897596,69.1401195 L82.2011271,69.1401195 L82.2011271,65.8487892 C82.2011271,65.4162302 82.2870594,64.9836712 82.3729916,64.6370694 C82.4589239,64.2904677 82.6335604,63.9438659 82.8054249,63.6832214 C83.0659936,63.4225769 83.3237904,63.2506624 83.6702914,63.0759751 C84.1027247,62.9040606 84.4492257,62.9040606 84.8816589,62.9040606 L84.8816589,61.6923409 C84.2745892,61.6923409 83.7562237,61.7782981 83.2350861,62.1248999 C82.7194926,62.3799988 82.3729916,62.8125578 82.1151949,63.3338468 Z" id="Path"></path>
                    <path d="M95.2794612,62.1193542 C95.0188924,61.9474398 94.7610957,61.7727525 94.5005269,61.7727525 C94.1540259,61.6867952 93.8075249,61.6867952 93.5469561,61.6867952 C93.1145229,61.6867952 92.5933854,61.7727525 92.2468844,62.033397 C91.8144511,62.2053115 91.4679501,62.5519132 91.2933136,62.9872451 C91.2073813,62.5546861 90.8608803,62.2080843 90.5143793,62.033397 C90.1678783,61.8614825 89.735445,61.7727525 89.3030118,61.7727525 C88.349441,61.7727525 87.4845745,62.2053115 86.963437,62.9844722 L86.963437,62.9844722 L86.963437,61.8587097 L85.8380017,61.8587097 L85.8380017,69.223304 L87.0493692,69.223304 L87.0493692,64.6315238 C87.0493692,64.4596093 87.0493692,64.2849221 87.1353015,64.1130076 C87.2212337,63.8523631 87.307166,63.6804486 87.4818025,63.5057613 C87.653667,63.3338468 87.8283035,63.1591595 88.0888723,62.9872451 C88.349441,62.8153306 88.695942,62.7266005 88.9537388,62.7266005 C89.2115355,62.7266005 89.386172,62.7266005 89.6467408,62.8125578 C89.8186053,62.898515 89.9932418,62.9844722 90.079174,63.1591595 C90.1651063,63.331074 90.2510385,63.5057613 90.3397428,63.6776758 C90.4256751,63.8495902 90.4256751,64.1102348 90.4256751,64.3708793 L90.4256751,69.1373467 L91.6370426,69.1373467 L91.6370426,64.5455666 C91.6370426,64.0270503 91.8089071,63.5917185 92.1554081,63.1591595 C92.5019091,62.8125578 93.0202746,62.6406433 93.5414121,62.6406433 C93.8019809,62.6406433 94.0597776,62.6406433 94.2344141,62.8125578 C94.4062786,62.898515 94.5809151,62.9844722 94.6668474,63.1591595 C94.7527796,63.331074 94.8387119,63.5057613 94.9274162,63.6776758 C94.9274162,63.8495902 95.0133484,64.1102348 95.0133484,64.2849221 L95.0133484,69.0513895 L96.2247159,69.0513895 L96.2247159,63.6804486 C96.2247159,63.3338468 96.1387837,62.9872451 96.0528514,62.7266005 C95.6259622,62.5546861 95.4540977,62.2940415 95.2794612,62.1193542 Z" id="Path"></path>
                    <path d="M103.595485,68.0115842 C103.595485,67.8396697 103.509553,67.5790252 103.509553,67.4043379 L103.509553,63.6776758 C103.509553,63.331074 103.423621,62.9844722 103.248984,62.6378705 C103.07712,62.377226 102.902483,62.2053115 102.641915,62.0306242 C102.381346,61.8587097 102.034845,61.7699797 101.777048,61.7699797 C101.430547,61.6840224 101.084046,61.6840224 100.823477,61.6840224 C100.391044,61.6840224 100.044543,61.6840224 99.698042,61.7699797 C99.351541,61.8559369 99.00504,62.0306242 98.7444713,62.2025387 C98.4839025,62.3744531 98.2261057,62.6350977 98.0514692,62.9816994 C97.8796047,63.3283012 97.7909005,63.7608602 97.7909005,64.107462 L99.002268,64.107462 C99.002268,63.674903 99.1741325,63.242344 99.5206335,62.9816994 C99.9530668,62.809785 100.3855,62.6350977 100.820705,62.7210549 C100.99257,62.7210549 101.167206,62.7210549 101.427775,62.7210549 C101.59964,62.7210549 101.774276,62.8070121 101.946141,62.8929694 C102.118005,62.9789266 102.206709,63.1536139 102.292642,63.2395711 C102.378574,63.4114856 102.464506,63.6721301 102.464506,63.8468174 C102.464506,64.0215047 102.378574,64.1934192 102.292642,64.3653337 C102.120777,64.5372481 101.946141,64.6259782 101.774276,64.6259782 C101.513707,64.7119354 101.255911,64.7119354 100.995342,64.7978927 C100.734773,64.7978927 100.388272,64.8838499 100.041771,64.9698071 C99.7812023,65.0557644 99.4347013,65.0557644 99.1769045,65.2304517 C98.9163358,65.3164089 98.658539,65.4023661 98.3979702,65.5770534 C98.1374015,65.7489679 97.965537,65.9236552 97.8796047,66.1842997 C97.7077402,66.5309015 97.619036,66.8775032 97.7077402,67.224105 C97.7077402,67.5707068 97.7936725,67.8313513 97.8796047,68.177953 C97.965537,68.4385976 98.1401735,68.610512 98.3979702,68.7851993 C98.658539,68.9571138 98.9163358,69.0458439 99.1769045,69.1318011 C99.9558388,69.3037156 100.823477,69.3037156 101.516479,68.9598866 C101.948913,68.7879721 102.381346,68.4413704 102.641915,68.0947686 C102.641915,68.4413704 102.727847,68.7020149 102.902483,68.9598866 C103.074348,69.1318011 103.334917,69.2205311 103.681418,69.2205311 C103.941986,69.2205311 104.288487,69.1345739 104.546284,69.0486167 L104.546284,68.1834987 C104.460352,68.1834987 104.285715,68.2694559 104.199783,68.2694559 C103.681418,68.2722287 103.595485,68.1862715 103.595485,68.0115842 Z M102.295414,66.6251772 C102.295414,66.7970916 102.209481,66.9717789 102.209481,67.1436934 C102.123549,67.3156079 101.948913,67.4902952 101.777048,67.6622096 C101.605184,67.8341241 101.344615,68.0088114 101.084046,68.0947686 C100.737545,68.1807259 100.391044,68.2666831 100.044543,68.2666831 C99.8726785,68.2666831 99.698042,68.2666831 99.5261775,68.1807259 C99.354313,68.1807259 99.1796765,68.0947686 99.0937443,68.0088114 C98.9218798,67.9228541 98.8331755,67.8368969 98.7472433,67.6622096 C98.661311,67.4902952 98.661311,67.3156079 98.661311,67.1436934 C98.661311,66.9717789 98.661311,66.7111344 98.7472433,66.5364471 C98.8331755,66.3645326 98.9191078,66.2758026 99.0937443,66.1898453 C99.2656088,66.1038881 99.354313,66.0179309 99.5261775,65.9292008 C99.698042,65.8432436 99.8726785,65.8432436 100.044543,65.7572863 C100.216408,65.7572863 100.476976,65.6713291 100.651613,65.6713291 L101.258683,65.5853719 C101.430547,65.5853719 101.605184,65.4994146 101.777048,65.4994146 C101.948913,65.4994146 102.037617,65.4134574 102.209481,65.3275002 L102.295414,66.6251772 Z" id="Shape"></path>
                    <path d="M107.060495,59.6071847 L105.849128,59.6071847 L105.849128,61.7727525 L104.63776,61.7727525 L104.63776,62.8125578 L105.849128,62.8125578 L105.849128,67.5790252 C105.849128,67.8396697 105.849128,68.0975414 105.93506,68.358186 C106.020992,68.5301004 106.106925,68.7047877 106.281561,68.8767022 C106.453426,68.9626594 106.628062,69.0486167 106.799927,69.1373467 C107.060495,69.223304 107.318292,69.223304 107.578861,69.223304 L108.532432,69.223304 L108.532432,68.1834987 L108.014066,68.1834987 C107.842202,68.1834987 107.667565,68.1834987 107.581633,68.1834987 C107.495701,68.1834987 107.409768,68.1834987 107.321064,68.0975414 C107.235132,68.0975414 107.235132,68.0115842 107.235132,67.925627 C107.235132,67.8396697 107.1492,67.6649824 107.1492,67.5790252 L107.1492,62.9872451 L108.621136,62.9872451 L108.621136,61.9474398 L107.1492,61.9474398 L107.060495,59.6071847 Z" id="Path"></path>
                    <rect id="Rectangle" x="109.918436" y="61.7727525" width="1.21136752" height="7.36459424"></rect>
                    <path d="M118.752825,62.7266005 C118.406324,62.3799988 118.059823,62.1193542 117.62739,61.9474398 C117.194957,61.7755253 116.673819,61.6867952 116.155454,61.6867952 C115.637088,61.6867952 115.115951,61.7727525 114.597585,61.9474398 C114.165152,62.1193542 113.818651,62.3799988 113.47215,62.7266005 C113.125649,63.0732023 112.953785,63.5057613 112.779148,63.9383203 C112.518579,64.8921683 112.518579,65.9319736 112.779148,66.9717789 C112.951013,67.4043379 113.125649,67.8368969 113.47215,68.1834987 C113.732719,68.5301004 114.165152,68.8767022 114.597585,69.0486167 C115.115951,69.2205311 115.637088,69.3092612 116.155454,69.3092612 C116.673819,69.3092612 117.194957,69.223304 117.713322,69.0486167 C118.145756,68.8767022 118.492257,68.5301004 118.838758,68.1834987 C119.185259,67.8368969 119.357123,67.4043379 119.53176,66.9717789 C119.878261,66.0179309 119.878261,64.9781256 119.53176,63.9383203 C119.359895,63.5057613 119.099326,63.0732023 118.752825,62.7266005 Z M118.23446,66.6251772 C118.148528,66.9717789 117.973891,67.2324234 117.716094,67.4902952 C117.109025,68.1834987 116.069522,68.3554131 115.204655,68.0088114 C114.944086,67.9228541 114.68629,67.7481669 114.425721,67.4902952 C114.165152,67.2296506 114.07922,66.9717789 113.907355,66.6251772 C113.821423,66.2785754 113.735491,65.8460164 113.735491,65.4134574 C113.735491,64.9808984 113.821423,64.6342966 113.907355,64.2017376 C113.993288,63.8551359 114.167924,63.5944913 114.425721,63.3366196 C114.597585,63.0759751 114.858154,62.9040606 115.204655,62.8181034 C115.723021,62.5574589 116.416023,62.5574589 116.93716,62.8181034 C117.197729,62.9040606 117.455526,63.1647052 117.630162,63.3366196 C117.890731,63.5972642 117.976663,63.8551359 118.148528,64.2017376 C118.23446,64.5483394 118.320392,64.9808984 118.320392,65.4134574 C118.406324,65.8460164 118.320392,66.2785754 118.23446,66.6251772 L118.23446,66.6251772 Z" id="Shape"></path>
                    <path d="M126.636416,62.3799988 C126.464552,62.1193542 126.118051,61.9474398 125.857482,61.8614825 C125.510981,61.6895681 125.078548,61.6895681 124.646115,61.6895681 C124.127749,61.6895681 123.692544,61.7755253 123.260111,62.0361698 C122.827677,62.2968143 122.481176,62.6434161 122.30654,63.0759751 L122.30654,63.0759751 L122.30654,61.9502126 L121.181105,61.9502126 L121.181105,69.3148068 L122.392472,69.3148068 L122.392472,64.9836712 C122.392472,64.6370694 122.392472,64.3764249 122.564337,64.0298232 C122.650269,63.7691786 122.824905,63.5113069 122.99677,63.3366196 C123.168634,63.1647052 123.429203,62.9900179 123.689772,62.8181034 C124.036273,62.7321462 124.296842,62.6461889 124.643343,62.6461889 C125.075776,62.6461889 125.422277,62.7321462 125.768778,63.0787479 C126.029347,63.3393924 126.201211,63.7719514 126.201211,64.2045104 L126.201211,69.1428924 L127.412579,69.1428924 L127.412579,64.2904677 C127.412579,63.9438659 127.412579,63.5972642 127.326646,63.1647052 C126.982917,62.9012878 126.896985,62.6406433 126.636416,62.3799988 Z" id="Path"></path>
                    <path d="M140.147184,66.4532627 C139.975319,66.7998644 139.800683,67.1464662 139.540114,67.4071107 C139.279545,67.6677553 139.021748,67.8396697 138.675247,68.014357 C138.328746,68.1890443 137.896313,68.2750015 137.46388,68.2750015 C136.945514,68.2750015 136.424377,68.1890443 135.906011,67.9283998 C135.473578,67.7564853 135.127077,67.4098835 134.866508,66.9745517 C134.60594,66.5392199 134.348143,66.1094337 134.259439,65.5881447 C134.087574,65.0696284 134.087574,64.4623822 134.087574,63.9410931 C134.087574,63.4198041 134.173506,62.9012878 134.259439,62.3827716 C134.345371,61.9502126 134.60594,61.4289235 134.866508,61.0823218 C135.127077,60.73572 135.473578,60.3891182 135.906011,60.1284737 C136.424377,59.8678292 136.945514,59.781872 137.46388,59.781872 C137.810381,59.781872 138.156882,59.8678292 138.417451,59.9537864 C138.763952,60.0397437 139.02452,60.214431 139.282317,60.3863454 C139.540114,60.5582599 139.71475,60.8189044 139.889387,61.079549 C140.064023,61.3401935 140.149956,61.6867952 140.235888,62.033397 L141.621892,62.033397 C141.53596,61.5148808 141.361323,61.079549 141.103526,60.5610327 C140.842958,60.1284737 140.585161,59.781872 140.149956,59.5212274 C139.803455,59.2605829 139.371021,59.0027112 138.849884,58.9139811 C138.331518,58.7420667 137.810381,58.6533366 137.377948,58.6533366 C136.684946,58.6533366 135.991944,58.7392939 135.298942,59.0858956 C134.691872,59.3465401 134.173506,59.7790991 133.827005,60.2116581 C133.394572,60.7301744 133.134003,61.3374207 132.873435,61.944667 C132.612866,62.6378705 132.526934,63.2451168 132.526934,63.9383203 C132.526934,64.6315238 132.612866,65.3247273 132.787502,66.0179309 C132.959367,66.6251772 133.219936,67.2296506 133.652369,67.6649824 C134.084802,68.1834987 134.517235,68.5301004 135.124305,68.790745 C135.731375,69.0513895 136.510309,69.223304 137.203311,69.223304 C138.328746,69.3092612 139.454182,68.8767022 140.32182,68.1834987 C141.100754,67.4043379 141.621892,66.3645326 141.621892,65.2387701 L140.32182,65.2387701 C140.32182,65.7600592 140.235888,66.1066609 140.147184,66.4532627 Z" id="Path"></path>
                    <path d="M148.895641,63.0732023 C148.635072,62.6406433 148.288571,62.2940415 147.856138,62.033397 C147.337773,61.7727525 146.816635,61.600838 146.209565,61.6867952 C145.777132,61.6867952 145.255995,61.7727525 144.823561,61.9474398 C144.391128,62.1193542 144.044627,62.3799988 143.698126,62.7266005 C143.351625,63.0732023 143.179761,63.5057613 143.005124,63.9383203 C142.83326,64.4568365 142.744555,64.9781256 142.744555,65.4966418 C142.744555,66.0151581 142.830488,66.5364471 143.005124,67.0549633 C143.176989,67.4875223 143.351625,67.9200813 143.698126,68.2666831 C143.958695,68.6132849 144.391128,68.8739294 144.823561,69.0458439 C145.341927,69.2177583 145.863064,69.3924456 146.38143,69.3064884 C147.160364,69.3064884 147.853366,69.1345739 148.460436,68.6992421 C149.067506,68.2639103 149.414007,67.5734796 149.499939,66.880276 L148.288571,66.880276 C148.202639,67.312835 148.028003,67.6594368 147.595569,67.9200813 C147.249068,68.1807259 146.816635,68.2666831 146.384202,68.2666831 C146.037701,68.2666831 145.6912,68.1807259 145.344699,68.0947686 C144.826333,67.8341241 144.391128,67.4015651 144.219264,66.7943188 C144.133331,66.5336743 144.133331,66.1870725 144.133331,65.8404708 L149.591415,65.8404708 C149.591415,65.4079118 149.591415,64.8866227 149.505483,64.4540637 C149.330846,63.9410931 149.15621,63.5057613 148.895641,63.0732023 Z M144.047399,64.8062111 C144.047399,64.5455666 144.133331,64.2876949 144.219264,64.0270503 C144.305196,63.7664058 144.479832,63.5944913 144.651697,63.3338468 C144.823561,63.1619323 145.08413,62.9872451 145.258767,62.9012878 C145.519335,62.8153306 145.865836,62.7293733 146.123633,62.7293733 C146.38143,62.7293733 146.641999,62.8153306 146.9885,62.9012878 C147.249068,62.9872451 147.420933,63.1619323 147.681502,63.3338468 C147.853366,63.5057613 148.028003,63.7664058 148.113935,64.0270503 C148.199867,64.2876949 148.285799,64.5455666 148.285799,64.8062111 L144.047399,64.8062111 Z" id="Shape"></path>
                    <path d="M156.346799,62.3799988 C156.174934,62.1193542 155.828433,61.9474398 155.567865,61.8614825 C155.221364,61.6895681 154.78893,61.6895681 154.356497,61.6895681 C153.838132,61.6895681 153.402926,61.7755253 152.970493,62.0361698 C152.53806,62.2968143 152.191559,62.6434161 152.016922,63.0759751 L152.016922,63.0759751 L152.016922,61.9502126 L150.891487,61.9502126 L150.891487,69.3148068 L152.102854,69.3148068 L152.102854,64.9836712 C152.102854,64.6370694 152.102854,64.3764249 152.188787,64.0298232 C152.274719,63.7691786 152.449355,63.5113069 152.62122,63.3366196 C152.793084,63.1647052 153.053653,62.9900179 153.314222,62.8181034 C153.574791,62.7321462 153.921292,62.6461889 154.267793,62.6461889 C154.700226,62.6461889 155.046727,62.7321462 155.393228,63.0787479 C155.653797,63.3393924 155.825661,63.7719514 155.825661,64.2045104 L155.825661,69.1428924 L157.037029,69.1428924 L157.037029,64.2904677 C157.037029,63.9438659 157.037029,63.5972642 156.951097,63.1647052 C156.6933,62.9012878 156.518663,62.6406433 156.346799,62.3799988 Z" id="Path"></path>
                    <path d="M160.330174,59.6071847 L159.118807,59.6071847 L159.118807,61.7727525 L157.907439,61.7727525 L157.907439,62.8125578 L159.118807,62.8125578 L159.118807,67.5790252 C159.118807,67.8396697 159.118807,68.0975414 159.204739,68.358186 C159.290671,68.5301004 159.376604,68.7047877 159.55124,68.8767022 C159.723105,68.9626594 159.897741,69.0486167 160.069606,69.1373467 C160.330174,69.223304 160.587971,69.223304 160.84854,69.223304 L161.802111,69.223304 L161.802111,68.1834987 L161.195041,68.1834987 C161.023176,68.1834987 160.84854,68.1834987 160.762608,68.1834987 C160.676675,68.1834987 160.590743,68.1834987 160.502039,68.0975414 C160.413335,68.0115842 160.416107,67.925627 160.416107,67.8368969 C160.416107,67.7481669 160.416107,67.5762524 160.416107,67.4902952 L160.416107,62.9844722 L161.888043,62.9844722 L161.888043,61.944667 L160.416107,61.944667 L160.416107,59.6044119 L160.330174,59.6044119 L160.330174,59.6071847 Z" id="Path"></path>
                    <path d="M168.818063,63.0732023 C168.557494,62.6406433 168.210993,62.2940415 167.77856,62.033397 C167.260195,61.7727525 166.739057,61.600838 166.131987,61.600838 C165.699554,61.600838 165.178417,61.6867952 164.745983,61.8614825 C164.31355,62.033397 163.967049,62.2940415 163.620548,62.6406433 C163.274047,62.9872451 163.102182,63.4198041 162.927546,63.8523631 C162.755681,64.3708793 162.666977,64.8921683 162.666977,65.4106846 C162.666977,65.9292008 162.752909,66.4504899 162.927546,66.9690061 C163.09941,67.4015651 163.274047,67.8341241 163.620548,68.1807259 C163.881117,68.5273276 164.31355,68.7879721 164.745983,68.9598866 C165.264349,69.1318011 165.785486,69.3064884 166.303852,69.2205311 C167.082786,69.2205311 167.775788,69.0486167 168.382858,68.6132849 C168.989928,68.177953 169.336429,67.4875223 169.422361,66.7943188 L168.210993,66.7943188 C168.125061,67.2268778 167.950425,67.5734796 167.517991,67.8341241 C167.17149,68.0947686 166.739057,68.1807259 166.306624,68.1807259 C165.960123,68.1807259 165.613622,68.0947686 165.267121,68.0088114 C165.006552,67.9228541 164.748755,67.7481669 164.574119,67.4902952 C164.402254,67.2296506 164.227618,66.9717789 164.141686,66.7111344 C164.055753,66.4504899 164.055753,66.1038881 164.055753,65.7572863 L169.513837,65.7572863 C169.513837,65.3247273 169.513837,64.8034383 169.427905,64.3708793 C169.253268,63.9410931 169.078632,63.5057613 168.818063,63.0732023 Z M164.055753,64.8062111 C164.055753,64.5455666 164.141686,64.2876949 164.227618,64.0270503 C164.31355,63.7664058 164.488187,63.5944913 164.660051,63.3338468 C164.831916,63.1619323 165.092484,62.9872451 165.267121,62.9012878 C165.52769,62.8153306 165.874191,62.7293733 166.131987,62.7293733 C166.389784,62.7293733 166.650353,62.8153306 166.910922,62.9012878 C167.17149,62.9872451 167.343355,63.1619323 167.603924,63.3338468 C167.775788,63.5057613 167.950425,63.7664058 168.036357,64.0270503 C168.122289,64.2876949 168.208221,64.5455666 168.208221,64.8062111 L164.055753,64.8062111 Z" id="Shape"></path>
                    <path d="M171.85064,63.3338468 L171.85064,63.3338468 L171.85064,61.7755253 L170.725205,61.7755253 L170.725205,69.1401195 L171.936572,69.1401195 L171.936572,65.8487892 C171.936572,65.4162302 171.936572,64.9836712 172.108437,64.6370694 C172.194369,64.2904677 172.369005,63.9438659 172.54087,63.6832214 C172.801439,63.4225769 173.059235,63.2506624 173.405736,63.0759751 C173.83817,62.9040606 174.184671,62.9040606 174.617104,62.9040606 L174.617104,61.6923409 C174.010034,61.6923409 173.491669,61.7782981 172.970531,62.1248999 C172.543642,62.3799988 172.111209,62.8125578 171.85064,63.3338468 Z" id="Path"></path>
                    <polygon id="Path" points="24.5128673 58.9999384 23.3014998 58.9999384 23.3014998 60.4750755 24.5128673 59.781872"></polygon>
                    <polygon id="Path" points="111.132575 58.9999384 109.918436 58.9999384 109.918436 60.4750755 111.132575 59.781872"></polygon>
                    <path d="M13.078334,51.4634297 C13.5107673,51.3774724 13.7713361,51.0308707 13.9432006,50.6842689 C14.0291328,50.9449134 14.2037693,51.2027851 14.3756338,51.3774724 C14.6362026,51.5493869 14.9827036,51.638117 15.3292046,51.638117 L27.5426721,51.638117 L27.5426721,49.1259474 C27.6286044,48.2608294 27.2821034,47.3069813 26.7637379,46.6137778 C26.1566681,46.0065315 25.3777338,45.6599298 24.5128673,45.7486598 C23.6480008,45.7486598 22.8662945,46.0093043 22.1732925,46.4418633 C21.4802905,46.9603796 20.8732207,47.5676259 20.4407875,48.3467866 L20.4407875,41.0681496 L19.1407157,41.0681496 L19.1407157,50.4263972 L15.3292046,50.4263972 C15.0686358,50.4263972 14.8967713,50.4263972 14.7221348,50.34044 C14.5502703,50.2544827 14.4615661,50.1685255 14.2897016,49.9938382 C14.2037693,49.8219237 14.1178371,49.6472364 14.1178371,49.475322 C14.1178371,49.2146774 14.0319048,49.042763 14.0319048,48.7821184 L14.0319048,45.9233471 L12.8205373,45.9233471 L12.8205373,49.3034075 C12.8205373,49.475322 12.8205373,49.7359665 12.734605,49.9106538 C12.6486728,50.0825682 12.5627405,50.1712983 12.4740363,50.2572555 C12.388104,50.3432128 12.2134675,50.3432128 12.041603,50.42917 C11.8697385,50.42917 11.6091698,50.42917 11.4345333,50.42917 L9.00902621,50.42917 C7.79765868,50.42917 6.58351915,50.1685255 5.45808388,49.7359665 L5.45808388,50.9476862 C5.80458489,50.9476862 6.06515364,51.0336435 6.4975869,51.1196007 C6.84408791,51.205558 7.19058892,51.3802452 7.62302218,51.4662025 C7.96952318,51.5521597 8.23009194,51.726847 8.48788869,51.8987615 C8.65975319,52.070676 8.8343897,52.2453632 8.8343897,52.5060078 C8.8343897,52.6779222 8.74845745,52.9385668 8.57382094,53.024524 C8.31325218,53.1964385 8.05545543,53.3711258 7.79488668,53.3711258 C7.27652117,53.6317703 6.93002016,53.7177275 6.49481489,53.7177275 C6.06238164,53.8036848 5.54124412,53.8036848 5.10881086,53.8036848 C4.06930784,53.889642 3.11573706,53.6317703 2.1649383,53.1964385 C1.55786853,52.7638795 1.21136752,52.070676 1.30007178,51.2915152 L1.30007178,49.2978619 L0.088704258,49.2978619 L0.088704258,51.5493869 C0.088704258,51.9819459 0.174636508,52.5032349 0.349273016,52.9357939 C0.523909524,53.3683529 0.781706274,53.7149547 1.12820728,54.0615565 C1.56064054,54.4081582 2.08177806,54.6688028 2.68607581,54.8407172 C3.46501008,55.0126317 4.3326486,55.1013618 5.11158287,55.1013618 C5.89051714,55.1013618 6.6694514,55.0154045 7.36245342,54.9294473 C7.88081893,54.84349 8.40195644,54.6688028 8.8343897,54.410931 C9.18089071,54.2390166 9.52739172,53.9783721 9.69925622,53.6317703 C9.87112072,53.3711258 9.95982497,53.1132541 9.95982497,52.7666523 C9.95982497,52.5947378 9.95982497,52.3340933 9.87389272,52.159406 C9.78796047,51.9874915 9.70202822,51.8128042 9.61332397,51.6408898 L11.8641945,51.6408898 C12.2134675,51.6353441 12.6459008,51.5493869 13.078334,51.4634297 Z M20.961925,49.2119046 C21.2224937,48.7793456 21.4802905,48.4327439 21.8267915,48.0861421 C22.1732925,47.7395403 22.5197935,47.4788958 22.9522268,47.3069813 C23.2987278,47.0463368 23.8170933,46.9603796 24.2522986,46.9603796 C24.5987996,46.9603796 24.9453006,47.0463368 25.2058693,47.132294 C25.4664381,47.2182513 25.7242348,47.3929386 25.8988713,47.6508103 C26.0707358,47.9114548 26.1594401,48.1693265 26.2453724,48.429971 C26.3313046,48.7765728 26.3313046,49.0372173 26.3313046,49.3838191 L26.3313046,50.4236244 L20.3548552,50.4236244 C20.5294917,49.9910654 20.7013562,49.5585064 20.961925,49.2119046 L20.961925,49.2119046 Z" id="Shape"></path>
                    <path d="M39.1518419,51.6353441 L39.1518419,41.0653768 L37.9404744,41.0653768 L37.9404744,50.4236244 L34.6501008,50.4236244 L34.6501008,49.7304209 C34.6501008,49.2119046 34.5641686,48.6906156 34.4782363,48.1720993 C34.3923041,47.7395403 34.2176675,47.3069813 33.9598708,46.9603796 C33.699302,46.6137778 33.4415053,46.3531333 33.0950043,46.1812188 C32.662571,46.0093043 32.2301378,45.9205743 31.7949325,45.9205743 C31.3597272,45.9205743 30.930066,46.0065315 30.583565,46.1812188 C30.237064,46.3559061 29.890563,46.6137778 29.6299942,46.8744223 C29.3694254,47.1350669 29.1975609,47.4816686 29.0229244,47.9142276 C28.8510599,48.2608294 28.8510599,48.6933884 28.8510599,49.1259474 C28.8510599,49.5585064 28.9369922,49.9910654 29.1116287,50.3376671 C29.1975609,50.6842689 29.4581297,50.9449134 29.7186985,51.1168279 C29.9792672,51.2887424 30.237064,51.4634297 30.583565,51.5493869 C30.930066,51.6353441 31.276567,51.7213014 31.7090002,51.7213014 L33.355573,51.7213014 C33.355573,52.0679031 33.2696408,52.4145049 33.0950043,52.6751494 C32.9203678,52.9357939 32.662571,53.1077084 32.4020023,53.2823957 C32.0555013,53.4543102 31.7090002,53.5430402 31.4484315,53.5430402 C31.0159982,53.6289975 30.583565,53.6289975 30.1483597,53.6289975 L29.7159264,53.6289975 L29.7159264,54.8407172 L30.4089285,54.8407172 C31.0159982,54.8407172 31.5343637,54.8407172 32.0555013,54.6688028 C32.4879345,54.5828455 32.9203678,54.4081582 33.355573,54.1502865 C33.702074,53.889642 34.0485751,53.6317703 34.2204396,53.1964385 C34.4810083,52.7638795 34.5669406,52.2425904 34.5669406,51.7240742 L39.1518419,51.6353441 Z M33.4359613,50.4236244 L31.8780927,50.4236244 C31.4456595,50.4236244 31.0132262,50.3376671 30.578021,50.0770226 C30.2315199,49.8163781 30.1455877,49.3838191 30.1455877,48.9512601 C30.1455877,48.6906156 30.1455877,48.5187011 30.2315199,48.2580566 C30.3174522,47.997412 30.4033844,47.8254976 30.578021,47.6508103 C30.8385897,47.2182513 31.3569552,47.043564 31.7893885,47.043564 C32.307754,46.9576068 32.8288915,47.2154785 33.0894603,47.7367675 C33.350029,48.2552838 33.5218935,48.86253 33.4359613,49.4697763 C33.4359613,49.4697763 33.4359613,50.4236244 33.4359613,50.4236244 Z" id="Shape"></path>
                    <rect id="Rectangle" x="41.2308479" y="41.0653768" width="1.21136752" height="10.4840101"></rect>
                    <path d="M58.2953296,50.4236244 L51.1047407,50.4236244 C50.6723074,50.4236244 50.2398742,50.4236244 49.9793054,50.4236244 C49.7187366,50.4236244 49.4609399,50.3376671 49.2863034,50.2517099 C49.1144389,50.1657527 48.9398024,49.9910654 48.9398024,49.8191509 C48.8538701,49.5585064 48.8538701,49.3006347 48.8538701,49.1259474 L48.8538701,47.2210241 L47.6425026,47.2210241 L47.6425026,49.4725491 C47.6425026,49.8191509 47.6425026,50.1657527 47.8143671,50.4263972 C47.9002993,50.6870417 48.0749359,50.9449134 48.3327326,51.1196007 C48.5933014,51.2915152 48.9398024,51.4662025 49.2863034,51.4662025 C49.7187366,51.5521597 50.2398742,51.5521597 50.6723074,51.5521597 L59.5926294,51.5521597 L59.5926294,45.9205743 L58.3812618,45.9205743 L58.2953296,50.4236244 Z" id="Path"></path>
                    <path d="M68.6016556,50.7702261 C69.0340888,51.1168279 69.5552263,51.3774724 70.0735919,51.5493869 C70.5060251,51.7213014 71.0271626,51.8100314 71.4595959,51.8100314 C72.1525979,51.8959887 72.8455999,51.5493869 73.3639654,51.0308707 C73.7963987,50.4236244 73.9710352,49.7304209 73.9710352,49.0372173 C73.9710352,48.6046583 73.8851029,48.1720993 73.7991707,47.8254976 C73.7132384,47.4788958 73.4526697,47.132294 73.2808052,46.8716495 C73.0202364,46.611005 72.7624397,46.4390905 72.5018709,46.2644032 C72.1553699,46.0924888 71.8088689,46.0037587 71.4623679,46.0037587 C71.2017991,46.0037587 70.9440024,46.0037587 70.6834336,46.0897159 C70.4228649,46.1756732 70.0763639,46.3503605 69.9044994,46.5222749 C69.6439306,46.7829195 69.3861339,47.0407912 69.1255651,47.3873929 C68.8649963,47.9059092 68.6071996,48.341241 68.4325631,48.9457145 C68.3466308,49.206359 68.2606986,49.4642307 68.0860621,49.638918 C68.0001298,49.8108325 67.8254933,49.8995625 67.7395611,50.071477 C67.6536288,50.1574342 67.4789923,50.2433915 67.3930601,50.2433915 C67.3071278,50.3293487 67.1324913,50.3293487 67.046559,50.4153059 L64.0139822,50.4153059 C63.581549,50.4153059 63.3209802,50.3293487 63.1491157,50.1546614 C62.9772512,49.8940169 62.9772512,49.5474151 62.9772512,49.2895434 L62.9772512,41.1457884 L61.5053149,41.1457884 L61.5053149,49.6361452 C61.5053149,49.9827469 61.5053149,50.3293487 61.6771794,50.5899932 C61.7631117,50.8506377 61.9377482,51.0225522 62.1096127,51.1972395 C62.2814772,51.3719268 62.5420459,51.457884 62.8026147,51.5438413 C63.0631835,51.6297985 63.4096845,51.6297985 63.6674812,51.6297985 L66.7859903,51.6297985 C66.9578548,51.6297985 67.1324913,51.6297985 67.3043558,51.6297985 C67.4762203,51.6297985 67.6508568,51.6297985 67.7367891,51.5438413 C67.9086536,51.457884 67.9973578,51.3719268 68.1692223,51.2831967 C68.3410868,51.1168279 68.5157233,50.9421406 68.6016556,50.7702261 Z M70.1595241,47.8254976 C70.4200929,47.4788958 70.8525261,47.3069813 71.2849594,47.3069813 C71.5455281,47.3069813 71.7173926,47.3929386 71.8920291,47.4788958 C72.0638936,47.564853 72.2385301,47.7395403 72.3244624,47.8254976 C72.4103946,47.997412 72.5850312,48.1720993 72.5850312,48.3440138 C72.6709634,48.5159283 72.6709634,48.7765728 72.6709634,48.9512601 C72.6709634,49.3838191 72.5850312,49.8163781 72.3244624,50.1629799 C72.0638936,50.4236244 71.7173926,50.5095816 71.3708916,50.5095816 C71.0243906,50.5095816 70.5919574,50.4236244 70.2454564,50.2489371 C69.8989553,50.0770226 69.4665221,49.9023353 69.1200211,49.6416908 C69.3805898,49.0372173 69.7270908,48.429971 70.1595241,47.8254976 L70.1595241,47.8254976 Z" id="Shape"></path>
                    <path d="M105.93506,41.0653768 L105.93506,50.4236244 L103.595485,50.4236244 C103.248984,50.4236244 102.988416,50.3376671 102.730619,50.1629799 C102.558754,49.9910654 102.384118,49.7304209 102.298186,49.4697763 C102.298186,49.3838191 102.298186,49.3838191 102.298186,49.2978619 L102.298186,49.1259474 C102.298186,48.6933884 102.212253,48.3467866 102.126321,47.9142276 C101.954457,47.5676259 101.77982,47.3069813 101.607956,47.0491096 C101.347387,46.7884651 101.08959,46.6165506 100.829021,46.4418633 C100.48252,46.2699489 100.136019,46.1812188 99.7895183,46.1812188 C99.5289495,46.1812188 99.2711528,46.1812188 99.010584,46.267176 C98.7500153,46.3531333 98.4922185,46.5278206 98.2316498,46.699735 C97.971081,46.9603796 97.7132843,47.2182513 97.4527155,47.564853 C97.1921467,48.0833693 96.93435,48.5187011 96.7597135,49.1231746 C96.6737812,49.3838191 96.587849,49.6416908 96.4132125,49.8163781 C96.3272802,49.9882926 96.1526437,50.0770226 96.0667115,50.2489371 C95.9807792,50.3348943 95.8061427,50.4208516 95.7202105,50.4208516 C95.6342782,50.4208516 95.4596417,50.4208516 95.3737095,50.4208516 L92.7763379,50.4208516 C92.5157691,50.4208516 92.2579724,50.4208516 91.9974036,50.3348943 C92.5157691,49.9882926 92.9509744,49.5557336 93.2087712,49.0344445 C93.4693399,48.6018855 93.6412044,48.0805965 93.6412044,47.476123 C93.6412044,47.2154785 93.5552722,47.043564 93.4693399,46.7829195 C93.3834077,46.5222749 93.2087712,46.3503605 93.0369067,46.1756732 C92.7763379,46.0037587 92.5185411,45.8290714 92.2579724,45.7431142 C91.9114714,45.6571569 91.4790381,45.5711997 91.1325371,45.5711997 C90.6141716,45.5711997 90.1789663,45.6571569 89.6606008,45.8318442 C89.2281676,46.0037587 88.8816666,46.2644032 88.5351656,46.611005 C88.4492333,46.6969622 88.4492333,46.7829195 88.3633011,46.8716495 C88.2773688,46.9576068 88.2773688,47.043564 88.1914366,47.132294 C88.1055043,47.2182513 88.1055043,47.3929386 88.0195721,47.4788958 C87.9336398,47.564853 87.9336398,47.7395403 87.9336398,47.8254976 L89.7520771,49.9051081 C89.0590751,50.0770226 88.3660731,50.2517099 87.5871388,50.1657527 L86.8082045,50.1657527 C86.4617035,50.1657527 86.1152025,49.9938382 85.8546338,49.7331937 C85.594065,49.3865919 85.5081328,48.9540329 85.5081328,48.5214739 L85.5081328,40.9821924 L84.2967652,40.9821924 L84.2967652,49.2146774 C84.2967652,49.3865919 84.2967652,49.6472364 84.210833,49.8219237 C84.1249007,49.907881 84.1249007,50.0825682 83.9502642,50.1685255 C83.864332,50.2544827 83.6896955,50.2544827 83.6037632,50.34044 C83.4318987,50.34044 83.2572622,50.34044 83.17133,50.34044 L80.9204594,50.34044 L80.9204594,49.6472364 C80.9204594,49.1287202 80.8345272,48.6074311 80.7485949,48.0889149 C80.6626627,47.6563559 80.4880261,47.2237969 80.2302294,46.8771951 C80.0583649,46.5305934 79.7118639,46.2699489 79.3653629,46.0980344 C78.9329296,45.9261199 78.5004964,45.8373899 78.0652911,45.8373899 C77.6300858,45.8373899 77.2004246,45.9233471 76.8539236,46.0980344 C76.5074226,46.2699489 76.2468538,46.5305934 75.9890571,46.7912379 C75.7284883,47.0518824 75.5566238,47.3984842 75.3819873,47.8310432 C75.2101228,48.177645 75.2101228,48.610204 75.2101228,49.042763 C75.2101228,49.475322 75.296055,49.907881 75.3819873,50.2544827 C75.5538518,50.5151272 75.7284883,50.861729 75.9890571,51.0336435 C76.2496258,51.205558 76.5074226,51.3802452 76.8539236,51.4662025 C77.2004246,51.5521597 77.6328578,51.638117 77.9793588,51.638117 L79.6259316,51.638117 C79.6259316,51.9847187 79.5399994,52.3313205 79.3653629,52.591965 C79.1934984,52.8526095 78.9329296,53.024524 78.6723609,53.1992113 C78.3258599,53.3711258 77.9793588,53.4598558 77.7187901,53.4598558 C77.2863568,53.5458131 76.8539236,53.5458131 76.4187183,53.5458131 L75.9862851,53.5458131 L75.9862851,54.7575328 L76.5933548,54.7575328 C77.2004246,54.7575328 77.7187901,54.7575328 78.3258599,54.5856183 C78.7582931,54.4996611 79.1907264,54.3249738 79.6259316,54.0671021 C79.9724326,53.8064576 80.3189337,53.5485859 80.4907982,53.1132541 C80.7513669,52.6806951 80.8372992,52.159406 80.8372992,51.6408898 L82.9163052,51.6408898 C83.4346707,51.6408898 83.9558082,51.5549325 84.3882415,51.4689753 C84.8206748,51.3830181 85.0812435,51.0364163 85.253108,50.6898145 C85.3390403,50.9504591 85.5136768,51.2083308 85.6855413,51.3830181 C85.94611,51.5549325 86.2039068,51.6436626 86.5504078,51.6436626 L87.4152743,51.6436626 C87.9336398,51.6436626 88.4547773,51.5577053 88.9731428,51.4717481 C89.4915083,51.3857909 89.9267136,51.2111036 90.4450791,51.0391891 C90.7056479,51.2998336 90.9634446,51.3857909 91.3099456,51.5577053 C91.5705144,51.6436626 91.8283111,51.6436626 92.0888799,51.6436626 L95.1214567,51.6436626 C95.2933212,51.6436626 95.4679577,51.6436626 95.6398222,51.6436626 C95.8116867,51.6436626 95.9863232,51.6436626 96.0722555,51.5577053 C96.24412,51.4717481 96.3328242,51.3857909 96.5046887,51.2970608 C96.6765532,51.1251463 96.7652575,51.0364163 96.8511897,50.8645018 C97.283623,51.2111036 97.8047605,51.4717481 98.323126,51.6436626 C98.7555593,51.8155771 99.2766968,51.9043071 99.7091301,51.9043071 C100.141563,51.9043071 100.662701,51.8183499 101.095134,51.5577053 C101.441635,51.3857909 101.702204,51.0391891 101.874068,50.6925873 L101.874068,50.6925873 C102.045933,51.0391891 102.220569,51.2998336 102.56707,51.4717481 C102.827639,51.6436626 103.17414,51.7323926 103.520641,51.7323926 L107.071583,51.7323926 L107.071583,41.0764681 L105.93506,41.0764681 L105.93506,41.0653768 Z M79.6896878,50.4236244 L78.1318193,50.4236244 C77.699386,50.4236244 77.2669528,50.3376671 76.8317475,50.0770226 C76.4852465,49.8163781 76.3993143,49.3838191 76.3993143,48.9512601 C76.3993143,48.6906156 76.3993143,48.5187011 76.4852465,48.2580566 C76.5711788,47.997412 76.657111,47.8254976 76.7458153,47.6508103 C76.9176798,47.4788958 77.0923163,47.3042085 77.2641808,47.2182513 C77.5247495,47.132294 77.7825463,47.0463368 78.043115,47.0463368 C78.5614805,46.9603796 79.0826181,47.2182513 79.3431868,47.7395403 C79.6037556,48.2608294 79.7756201,48.8653029 79.6896878,49.4725491 L79.6896878,50.4236244 Z M90.6890158,49.6444636 L88.8705785,47.7395403 C89.1311473,47.4788958 89.388944,47.2210241 89.735445,47.132294 C90.0819461,46.9603796 90.4284471,46.8716495 90.8608803,46.8716495 C91.2073813,46.8716495 91.6398146,46.9576068 91.9863156,47.132294 C92.1581801,47.3042085 92.3328166,47.4788958 92.3328166,47.7395403 C92.3328166,48.0861421 92.1609521,48.5187011 91.9003833,48.7793456 C91.5566543,49.1231746 91.1214491,49.4697763 90.6890158,49.6444636 L90.6890158,49.6444636 Z M100.737545,50.2489371 C100.476976,50.5095816 100.130475,50.5955389 99.7839743,50.5955389 C99.4374733,50.5955389 99.00504,50.5095816 98.658539,50.3348943 C98.312038,50.1629799 97.8796047,49.9882926 97.5331037,49.727648 C97.7049682,49.0344445 98.0514692,48.341241 98.4866745,47.8227248 C98.7472433,47.476123 99.1796765,47.3042085 99.6121098,47.3042085 C99.8726785,47.3042085 100.044543,47.3901658 100.21918,47.476123 C100.391044,47.5620802 100.565681,47.7367675 100.651613,47.8227248 C100.737545,47.9946392 100.912182,48.1693265 100.912182,48.341241 C100.998114,48.5131555 100.998114,48.7738 100.998114,48.9484873 C101.084046,49.4697763 100.998114,49.9051081 100.737545,50.2489371 L100.737545,50.2489371 Z" id="Shape"></path>
                    <rect id="Rectangle" x="109.139501" y="41.0653768" width="1.21136752" height="10.4840101"></rect>
                    <path d="M123.257339,44.7060817 C123.171406,44.7920389 123.085474,44.8779962 123.085474,44.9667262 C122.999542,45.0526835 122.999542,45.2273708 122.91361,45.313328 C122.827677,45.3992852 122.827677,45.5739725 122.827677,45.6599298 C123.346043,45.9205743 123.86718,46.178446 124.385546,46.5250478 C124.817979,46.8716495 125.339117,47.2182513 125.685618,47.564853 C126.032119,47.8254976 126.37862,48.1720993 126.639188,48.6046583 C126.811053,48.8653029 126.985689,49.1231746 126.985689,49.4697763 C126.985689,49.7304209 126.899757,50.0770226 126.639188,50.2489371 C126.37862,50.3348943 126.032119,50.4208516 125.774322,50.4208516 L120.058441,50.4208516 C119.71194,50.5068088 119.279507,50.3348943 119.018938,49.9882926 C118.847074,49.6416908 118.758369,49.2091318 118.758369,48.7765728 L118.758369,46.6969622 L117.547002,46.6969622 L117.547002,50.6814961 C117.547002,51.2000123 117.547002,51.6353441 117.547002,51.9819459 C117.547002,52.3285477 117.46107,52.5891922 117.286433,52.8470639 C117.111797,53.1049356 116.939932,53.2796229 116.679363,53.3655801 C116.332862,53.4515374 115.900429,53.5374946 115.553928,53.5374946 L115.553928,54.7492144 C116.072294,54.7492144 116.679363,54.6632571 117.200501,54.5772999 C117.547002,54.4913427 117.893503,54.2306981 118.154072,53.9700536 C118.41464,53.6234518 118.586505,53.1908928 118.586505,52.7583338 C118.672437,52.1510876 118.758369,51.5466141 118.758369,50.9393678 C118.844302,51.1112823 119.018938,51.2859696 119.276735,51.457884 C119.537304,51.6297985 119.7951,51.7185286 120.055669,51.7185286 L125.685618,51.7185286 C126.118051,51.7185286 126.550484,51.6325713 126.985689,51.5466141 C127.246258,51.4606568 127.504055,51.2859696 127.764624,51.0280978 C127.936488,50.8561834 128.025192,50.5955389 128.111125,50.3348943 C128.197057,50.0742498 128.197057,49.9023353 128.197057,49.6416908 C128.197057,49.295089 128.111125,49.0344445 128.025192,48.6878428 C127.853328,48.341241 127.678691,47.9946392 127.33219,47.6480375 C126.985689,47.2154785 126.553256,46.8688767 126.120823,46.5222749 C125.602457,46.0897159 124.995388,45.6571569 124.388318,45.3105552 L128.718194,43.4056319 L128.718194,42.1939121 L123.348815,44.5341672 C123.343271,44.6173517 123.257339,44.6173517 123.257339,44.7060817 Z" id="Path"></path>
                    <path d="M141.014822,51.0308707 C141.447255,50.4236244 141.707824,49.7304209 141.621892,49.0372173 C141.621892,48.6046583 141.53596,48.1720993 141.450027,47.8254976 C141.364095,47.4788958 141.103526,47.132294 140.931662,46.8716495 C140.671093,46.611005 140.413296,46.4390905 140.066795,46.2644032 C139.720294,46.0924888 139.373793,46.0037587 139.027292,46.0037587 C138.766724,46.0037587 138.508927,46.0037587 138.248358,46.0897159 C137.987789,46.1756732 137.641288,46.3503605 137.469424,46.5222749 C137.208855,46.7829195 136.951058,47.0407912 136.69049,47.3873929 C136.429921,47.9059092 136.172124,48.341241 135.997488,48.9457145 C135.911555,49.206359 135.825623,49.4642307 135.650987,49.638918 C135.565054,49.8108325 135.390418,49.8995625 135.304486,50.071477 C135.218553,50.1574342 135.043917,50.2433915 134.872052,50.2433915 C134.78612,50.2433915 134.611484,50.2433915 134.525551,50.2433915 L133.918482,50.2433915 C133.571981,50.2433915 133.22548,50.071477 132.964911,49.8108325 C132.793046,49.4642307 132.704342,49.0316717 132.704342,48.5991127 L132.704342,46.6054594 L131.492975,46.6054594 L131.492975,50.5899932 C131.492975,51.1085095 131.492975,51.5438413 131.492975,51.890443 C131.492975,52.1510876 131.407042,52.4976893 131.232406,52.755561 C131.057769,53.0134327 130.885905,53.18812 130.625336,53.2740773 C130.278835,53.3600345 129.846402,53.4459917 129.499901,53.4459917 L129.499901,54.6577115 C130.018266,54.6577115 130.539404,54.5717543 131.146474,54.485797 C131.492975,54.3998398 131.839476,54.1391953 132.100044,53.8785507 C132.360613,53.531949 132.532478,53.09939 132.532478,52.666831 C132.61841,52.0595847 132.704342,51.4551112 132.61841,50.8478649 C132.704342,51.0197794 132.878979,51.1944667 133.136775,51.3663812 C133.397344,51.5382956 133.569209,51.6270257 133.829777,51.6270257 L134.522779,51.6270257 C134.694644,51.6270257 134.86928,51.6270257 135.041145,51.6270257 C135.213009,51.6270257 135.387646,51.6270257 135.473578,51.5410685 C135.645443,51.4551112 135.734147,51.369154 135.906011,51.2804239 C136.077876,51.1085095 136.16658,51.0197794 136.338445,50.8478649 C136.770878,51.1944667 137.292015,51.4551112 137.810381,51.6270257 C138.242814,51.7989402 138.763952,51.8876702 139.196385,51.8876702 C139.889387,51.8959887 140.582389,51.6353441 141.014822,51.0308707 Z M140.061251,50.1629799 C139.800683,50.4236244 139.454182,50.5095816 139.107681,50.5095816 C138.76118,50.5095816 138.328746,50.4236244 137.982245,50.2489371 C137.635744,50.0770226 137.203311,49.9023353 136.85681,49.6416908 C137.028675,48.9484873 137.375176,48.2552838 137.810381,47.7367675 C138.07095,47.3901658 138.503383,47.2182513 138.935816,47.2182513 C139.107681,47.2182513 139.368249,47.3042085 139.542886,47.3901658 C139.71475,47.476123 139.889387,47.5620802 139.975319,47.7367675 C140.061251,47.9114548 140.235888,48.0833693 140.235888,48.2552838 C140.32182,48.4271982 140.32182,48.6878428 140.32182,48.86253 C140.493685,49.4697763 140.32182,49.9051081 140.061251,50.1629799 L140.061251,50.1629799 Z" id="Shape"></path>
                    <polygon id="Path" points="118.752825 43.1449874 117.62739 43.1449874 117.62739 44.6173517 118.752825 43.9241481"></polygon>
                    <polygon id="Path" points="14.0319048 42.7124284 12.8205373 42.7124284 12.8205373 44.1847927 14.0319048 43.4915891"></polygon>
                    <polygon id="Path" points="55.1768205 43.5775464 53.962681 43.5775464 53.962681 45.0526835 55.1768205 44.3594799"></polygon>
                    <polygon id="Path" points="53.269679 43.5775464 52.0583114 43.5775464 52.0583114 45.0526835 53.269679 44.3594799"></polygon>
                    <polygon id="Path" points="6.32295039 55.9692526 5.11158287 55.9692526 5.11158287 57.4416169 6.32295039 56.7484133"></polygon>
                    <polygon id="Path" points="4.5045131 55.9692526 3.29037357 55.9692526 3.29037357 57.4416169 4.5045131 56.7484133"></polygon>
                </g>
                <g id="Layer_1-2">
                    <polygon id="Path" fill="#03B585" points="41.4470646 30.91965 30.1344997 37.4856738 30.1344997 50.7009058 41.4470646 57.2641568 52.8455617 50.7009058 52.8455617 37.4856738"></polygon>
                    <polygon id="Path" fill="url(#linearGradient-1)" points="42.6556601 59.2494917 51.8088307 64.6065685 42.6556601 69.8749153"></polygon>
                    <polygon id="Path" fill="url(#linearGradient-2)" points="31.1712307 24.8749153 40.3244013 30.1432621 31.1712307 35.4975661"></polygon>
                    <polygon id="Path" fill="url(#linearGradient-3)" points="30.1344997 50.7009058 41.4470646 44.0489248 41.4470646 57.2641568"></polygon>
                    <polygon id="Path" fill="url(#linearGradient-4)" points="41.4470646 30.91965 52.8455617 37.4856738 41.4470646 44.0489248"></polygon>
                    <polygon id="Path" fill="url(#linearGradient-5)" points="19.4290045 7.42836897 26.3368486 3.45492637 26.3368486 11.3158543"></polygon>
                    <polygon id="Path" fill="url(#linearGradient-6)" points="43.7783234 14.5960934 50.6861675 10.6226508 50.6861675 18.569536"></polygon>
                    <polygon id="Path" fill="url(#linearGradient-7)" points="67.6952089 20.2969992 74.5171208 24.1844846 67.6952089 28.1579272"></polygon>
                    <polygon id="Path" fill="url(#linearGradient-8)" points="67.6952089 33.5122312 74.5171208 37.4856738 67.6952089 41.4591164"></polygon>
                    <polygon id="Path" fill="url(#linearGradient-9)" points="74.8636218 44.0489248 81.6855336 40.0754822 81.6855336 48.0223674"></polygon>
                    <polygon id="Path" fill="url(#linearGradient-10)" points="55.2627528 65.211042 62.0846646 61.2375994 62.0846646 69.1844846"></polygon>
                    <polygon id="Path" fill="url(#linearGradient-11)" points="19.4290045 73.0691971 26.3368486 69.0097973 26.3368486 77.0426397"></polygon>
                    <polygon id="Path" fill="url(#linearGradient-12)" points="5.95981734 50.7009058 12.8676614 46.7274632 12.8676614 54.6743484"></polygon>
                    <polygon id="Path" fill="url(#linearGradient-13)" points="53.1892907 25.565346 62.3424614 30.8336928 53.1892907 36.1020396"></polygon>
                    <polygon id="Path" fill="url(#linearGradient-14)" points="54.1400895 37.4856738 63.2932601 32.1313698 63.2932601 42.7540206"></polygon>
                    <polygon id="Path" fill="url(#linearGradient-15)" points="54.1400895 38.780578 63.2932601 44.0489248 54.1400895 49.4032288"></polygon>
                    <polygon id="Path" fill="url(#linearGradient-16)" points="54.1400895 50.7009058 63.2932601 45.432559 63.2932601 55.9692526"></polygon>
                    <polygon id="Path" fill="url(#linearGradient-17)" points="53.1892907 51.99581 62.3424614 57.350114 53.1892907 62.6184608"></polygon>
                    <polygon id="Path" fill="url(#linearGradient-18)" points="42.6556601 57.9545875 51.8088307 52.6862407 51.8088307 63.2229343"></polygon>
                    <polygon id="Path" fill="url(#linearGradient-19)" points="31.1712307 64.6065685 40.3244013 59.2494917 40.3244013 69.8749153"></polygon>
                    <polygon id="Path" fill="url(#linearGradient-20)" points="31.1712307 52.6862407 40.3244013 57.9545875 31.1712307 63.2229343"></polygon>
                    <polygon id="Path" fill="url(#linearGradient-21)" points="20.6376 57.350114 29.7907707 51.99581 29.7907707 62.6184608"></polygon>
                    <polygon id="Path" fill="url(#linearGradient-22)" points="28.8399719 50.7009058 19.6868013 55.9692526 19.6868013 45.432559"></polygon>
                    <polygon id="Path" fill="url(#linearGradient-23)" points="19.6868013 44.0489248 28.8399719 38.780578 28.8399719 49.4032288"></polygon>
                    <polygon id="Path" fill="url(#linearGradient-24)" points="19.6868013 32.1313698 28.8399719 37.4856738 19.6868013 42.7540206"></polygon>
                    <polygon id="Path" fill="url(#linearGradient-25)" points="20.6376 30.8336928 29.7907707 25.565346 29.7907707 36.1020396"></polygon>
                    <polygon id="Path" fill="url(#linearGradient-26)" points="31.1712307 23.5800111 40.3244013 18.2229343 40.3244013 28.8483579"></polygon>
                    <polygon id="Path" fill="url(#linearGradient-27)" points="42.6556601 18.2229343 51.8088307 23.5800111 42.6556601 28.8483579"></polygon>
                    <polygon id="Path" fill="url(#linearGradient-28)" points="42.6556601 30.1432621 51.8088307 24.8749153 51.8088307 35.4975661"></polygon>
                    <polygon id="Path" fill="url(#linearGradient-29)" points="41.4470646 44.0489248 52.8455617 50.7009058 41.4470646 57.2641568"></polygon>
                    <polygon id="Path" fill="url(#linearGradient-30)" points="41.4470646 44.0489248 52.8455617 37.4856738 52.8455617 50.7009058"></polygon>
                    <polygon id="Path" fill="url(#linearGradient-31)" points="30.1344997 37.4856738 41.4470646 44.0489248 30.1344997 50.7009058"></polygon>
                    <polygon id="Path" fill="url(#linearGradient-32)" points="30.1344997 37.4856738 41.4470646 30.91965 41.4470646 44.0489248"></polygon>
                    <polygon id="Path" fill="url(#linearGradient-33)" points="39.6341713 16.6701584 32.7263272 20.643601 32.7263272 12.6967158"></polygon>
                    <polygon id="Path" fill="url(#linearGradient-34)" points="29.9626352 3.9734426 36.8704793 9.85101458e-16 36.8704793 7.94688521"></polygon>
                    <polygon id="Path" fill="url(#linearGradient-35)" points="44.6431899 1.20894695 51.4623297 5.18238955 44.6431899 9.15583215"></polygon>
                    <polygon id="Path" fill="url(#linearGradient-36)" points="59.8393381 5.87282026 66.6612499 9.84626286 59.8393381 13.8197055"></polygon>
                    <polygon id="Path" fill="url(#linearGradient-37)" points="53.1892907 21.8525479 60.0971348 17.8791053 60.0971348 25.8259905"></polygon>
                    <polygon id="Path" fill="url(#linearGradient-38)" points="72.0139975 30.3151765 78.8359093 26.3445067 78.8359093 34.2886191"></polygon>
                    <polygon id="Path" fill="url(#linearGradient-39)" points="67.2655477 55.1041346 67.2655477 47.1600222 74.0874595 51.130692"></polygon>
                    <polygon id="Path" fill="url(#linearGradient-40)" points="67.6952089 57.350114 74.5171208 53.3766714 74.5171208 61.3235566"></polygon>
                    <polygon id="Path" fill="url(#linearGradient-41)" points="74.1733918 67.8008503 81.0812359 71.7742929 74.1733918 75.7477355"></polygon>
                    <polygon id="Path" fill="url(#linearGradient-42)" points="56.6432128 78.2515867 56.6432128 70.3074743 63.5510569 74.2809169"></polygon>
                    <polygon id="Path" fill="url(#linearGradient-43)" points="43.7783234 71.6023785 50.6861675 67.6289359 50.6861675 75.5758211"></polygon>
                    <polygon id="Path" fill="url(#linearGradient-44)" points="28.4075386 86.0265574 35.3153827 82.0531148 35.3153827 90"></polygon>
                    <polygon id="Path" fill="url(#linearGradient-45)" points="33.0700562 68.0614949 39.891968 72.0349375 33.0700562 76.0943373"></polygon>
                    <polygon id="Path" fill="url(#linearGradient-46)" points="20.8094645 61.2375994 27.7173086 65.211042 20.8094645 69.1844846"></polygon>
                    <polygon id="Path" fill="url(#linearGradient-47)" points="3.02148879 70.8259905 9.92933289 66.8525479 9.92933289 74.7966603"></polygon>
                    <polygon id="Path" fill="url(#linearGradient-48)" points="4.14415206 39.0412225 10.9660639 43.0118923 4.14415206 46.8993777"></polygon>
                    <polygon id="Path" fill="url(#linearGradient-49)" points="8.89537388 37.4856738 15.7145137 33.5122312 15.7145137 41.4591164"></polygon>
                    <polygon id="Path" fill="url(#linearGradient-50)" points="-9.54039625e-16 26.8602502 6.9078441 30.8336928 -9.54039625e-16 34.8071354"></polygon>
                    <polygon id="Path" fill="url(#linearGradient-51)" points="5.52738408 21.9385051 12.4352282 17.9650625 12.4352282 25.9119477"></polygon>
                    <polygon id="Path" fill="url(#linearGradient-52)" points="20.8094645 17.1027174 27.7173086 21.0733871 20.8094645 25.0468297"></polygon>
                    <polygon id="Path" fill="url(#linearGradient-53)" points="1.72696102 56.141167 7.68677836 59.5960934 1.72696102 63.0510198"></polygon>
                    <polygon id="Path" fill="url(#linearGradient-54)" points="43.7783234 86.7169881 43.7783234 78.7701029 50.6861675 82.7435455 50.6861675 82.7435455"></polygon>
                </g>
            </g>
        </g>
    </g>
</svg>