<svg xmlns="http://www.w3.org/2000/svg" width="451.346" height="86.363" viewBox="0 0 451.346 86.363">
  <g id="Logo" transform="translate(-178.981 -398.253)">
    <g id="Group_12" data-name="Group 12" transform="translate(550.825 398.253)">
      <path id="Path_97" data-name="Path 97" d="M133.476,398.253c-10.119,0-18.321,19.333-18.321,43.182s8.2,43.182,18.321,43.182,18.318-19.332,18.318-43.182-8.2-43.182-18.318-43.182m.575,84.557c-9.339,0-16.91-18.16-16.91-40.562s7.57-40.562,16.91-40.562,16.907,18.16,16.907,40.562-7.57,40.562-16.907,40.562" transform="translate(-93.001 -398.253)" fill="#136f40"/>
      <path id="Path_98" data-name="Path 98" d="M99.232,415.887c-5.3,9.036,7.664,26.495,28.96,38.994s42.866,15.308,48.166,6.272-7.664-26.493-28.961-38.994-42.862-15.308-48.165-6.272m75.816,43.806c-4.9,8.339-25.082,5.582-45.086-6.16S97.7,425.512,102.6,417.173s25.081-5.582,45.086,6.161,32.258,28.02,27.364,36.36" transform="translate(-98.044 -394.616)" fill="#ca9f45"/>
      <path id="Path_99" data-name="Path 99" d="M143.328,424.256c-.339-.252-.686-.5-1.035-.752.043.36.085.719.123,1.081q.513.371,1.011.739c-.03-.359-.063-.716-.1-1.068" transform="translate(-85.002 -390.81)" fill="#136f40"/>
      <path id="Path_100" data-name="Path 100" d="M143.328,424.256c-.339-.252-.686-.5-1.035-.752.043.36.085.719.123,1.081q.513.371,1.011.739c-.03-.359-.063-.716-.1-1.068" transform="translate(-85.002 -390.81)" fill="#136f40"/>
      <path id="Path_101" data-name="Path 101" d="M118,411.826c-.129.407-.252.816-.373,1.231q1.119.239,2.274.54c.123-.394.252-.779.382-1.159-.772-.223-1.53-.426-2.283-.612" transform="translate(-92.274 -394.252)" fill="#136f40"/>
      <path id="Path_102" data-name="Path 102" d="M118,411.826c-.129.407-.252.816-.373,1.231q1.119.239,2.274.54c.123-.394.252-.779.382-1.159-.772-.223-1.53-.426-2.283-.612" transform="translate(-92.274 -394.252)" fill="#136f40"/>
      <path id="Path_103" data-name="Path 103" d="M128.194,422.16c-21.3,12.5-34.265,29.958-28.963,38.994s26.869,6.228,48.166-6.272,34.266-29.958,28.963-38.994-26.868-6.229-48.166,6.272m-.287,1.173c20.007-11.741,40.192-14.5,45.086-6.161s-7.356,24.619-27.362,36.361-40.192,14.5-45.086,6.159,7.356-24.619,27.362-36.359" transform="translate(-98.045 -394.616)" fill="#1a9bd8"/>
      <path id="Path_104" data-name="Path 104" d="M106.971,435.251c-.583.589-1.145,1.182-1.684,1.771.173.193.353.383.533.576.528-.587,1.085-1.176,1.664-1.761-.176-.2-.347-.39-.513-.587m28.689-19.579c-.4.183-.8.366-1.205.555q.6.254,1.205.523c.4-.18.805-.356,1.205-.523-.4-.189-.8-.373-1.205-.555" transform="translate(-95.91 -393.119)" fill="#a0862a"/>
      <path id="Path_105" data-name="Path 105" d="M106.971,435.251c-.583.589-1.145,1.182-1.684,1.771.173.193.353.383.533.576.528-.587,1.085-1.176,1.664-1.761-.176-.2-.347-.39-.513-.587m28.689-19.579c-.4.183-.8.366-1.205.555q.6.254,1.205.523c.4-.18.805-.356,1.205-.523-.4-.189-.8-.373-1.205-.555" transform="translate(-95.91 -393.119)" fill="#a0862a"/>
      <path id="Path_106" data-name="Path 106" d="M148.018,411.579c-.416.091-.833.19-1.255.3.142.4.286.809.42,1.225.412-.089.822-.173,1.227-.246q-.188-.645-.392-1.275m-32.387,15.067c-.036.352-.074.71-.11,1.066q1.119-.794,2.29-1.572c.049-.369.1-.732.149-1.094q-1.187.792-2.329,1.6" transform="translate(-92.893 -394.325)" fill="#136f40"/>
      <path id="Path_107" data-name="Path 107" d="M125.817,408.025a4.517,4.517,0,1,1-4.517-4.517,4.517,4.517,0,0,1,4.517,4.517" transform="translate(-92.521 -396.704)" fill="#136f40"/>
      <path id="Path_108" data-name="Path 108" d="M117.212,453.238a4.517,4.517,0,1,1-4.517-4.517,4.517,4.517,0,0,1,4.517,4.517" transform="translate(-95.058 -383.377)" fill="#1a9bd8"/>
      <path id="Path_109" data-name="Path 109" d="M160.657,438.415a4.517,4.517,0,1,1-4.517-4.517,4.517,4.517,0,0,1,4.517,4.517" transform="translate(-82.252 -387.746)" fill="#ca9f45"/>
      <path id="Path_110" data-name="Path 110" d="M123.16,434.215a10.953,10.953,0,0,1,8.341,2.061c.4.3.4.293.818-.023a10.589,10.589,0,0,1,7.858-2.086c.118.013.234.029.351.044a.893.893,0,0,1,.088.035c-.456.044-.855.078-1.251.12a12.437,12.437,0,0,0-5.555,1.861,10.644,10.644,0,0,0-1.121.865c-.153.132-.133.215.006.341q.717.651,1.417,1.318c.148.138.225.109.286-.071a3.284,3.284,0,0,1,.2-.506.86.86,0,0,1,1.076-.382.631.631,0,0,1,.329.734.6.6,0,0,1-.637.447,1.8,1.8,0,0,1-.319-.065c-.088-.019-.175-.133-.262,0a.274.274,0,0,0-.022.308,1.337,1.337,0,0,0,.757.545c.106.038.158-.07.228-.12a.675.675,0,0,1,.768-.017.585.585,0,0,1,.26.638.55.55,0,0,1-.441.431,1.824,1.824,0,0,1-1.429-.278c-.228-.131-.427-.388-.658-.413s-.35.317-.558.457a1.063,1.063,0,0,1-1.356.054.613.613,0,0,1-.028-.9.664.664,0,0,1,.935-.041.313.313,0,0,1,.1.19c.009.075-.018.18.1.188a.305.305,0,0,0,.236-.12.167.167,0,0,0,.006-.224,3,3,0,0,0-.42-.536c-.4-.4-.869-.717-1.291-1.089-.054-.048-.1-.069-.163-.012a11.325,11.325,0,0,0-1.692,1.573c-.092.124-.145.241.016.344.132.084.243.107.315-.089a.529.529,0,0,1,.628-.378.651.651,0,0,1,.549.563.606.606,0,0,1-.377.658,1.213,1.213,0,0,1-1.248-.228.7.7,0,0,1-.216-.2c-.167-.312-.335-.2-.545-.043a2.5,2.5,0,0,1-1.625.607.6.6,0,0,1-.616-.7.612.612,0,0,1,.994-.438.374.374,0,0,0,.484.035,1.524,1.524,0,0,0,.436-.321.327.327,0,0,0,.075-.42c-.113-.18-.242-.053-.359-.014a.577.577,0,0,1-.7-.114.637.637,0,0,1-.126-.71.566.566,0,0,1,.606-.374.977.977,0,0,1,.847.636c.048.128.088.259.135.386s.124.14.223.048q.757-.707,1.517-1.41c.148-.137.019-.2-.062-.278A9.521,9.521,0,0,0,129,435.678a14.045,14.045,0,0,0-5.589-1.4c-.054,0-.109-.008-.163-.014a.609.609,0,0,1-.092-.047" transform="translate(-90.642 -387.691)" fill="#136f40"/>
      <path id="Path_111" data-name="Path 111" d="M129.3,430.5c-.069-.15.018-.259.1-.37.05-.073.223-.163-.019-.212-.031-.006-.048-.047-.031-.054.184-.075.1-.294.2-.383.167-.166.067-.289.005-.478-.262.324-.563.575-.611.992,0,.034-.013.084-.035.095-.232.11-.109.258-.06.412.034.111.193.325-.142.263-.067-.013-.078.066-.085.117a.9.9,0,0,0-.026.3c.031.154-.118.106-.167.151-.067.058-.072-.065-.087-.115a1.944,1.944,0,0,1,.488-1.986c.114-.118.229-.234.341-.355.034-.038.079-.087.023-.137a.106.106,0,0,0-.149.005,5.89,5.89,0,0,0-.756.757c-.2.3-.289.681-.6.908a1.07,1.07,0,0,0-.117.114c0-.076-.091-.1-.092-.184a1.775,1.775,0,0,1,.113-.721,2.145,2.145,0,0,1,1.077-1.107,1.087,1.087,0,0,0,.442-.306,2.331,2.331,0,0,0-.852.032,1.24,1.24,0,0,0-.662.54.789.789,0,0,1,.508-.888,2.006,2.006,0,0,1,1.432-.118c.043.016.1.032.118-.017a.226.226,0,0,0-.014-.128c-.044-.129-.179-.141-.273-.2a.858.858,0,0,0-.968.073.283.283,0,0,1,.136-.343,1.166,1.166,0,0,1,1.6.176c.106.118.149.065.179-.043.067-.232.243-.423.255-.69a4,4,0,0,0,.259.688c.034.11.076.163.176.037a1.137,1.137,0,0,1,1.356-.321.481.481,0,0,1,.377.462.885.885,0,0,0-1.275.324,2.469,2.469,0,0,1,1.479.063.835.835,0,0,1,.631.959,1.3,1.3,0,0,0-.649-.562,2.338,2.338,0,0,0-.843-.053.73.73,0,0,0,.412.324,1.986,1.986,0,0,1,1.139,1.409.92.92,0,0,1-.012.628,1.969,1.969,0,0,1-.566-.7,2.945,2.945,0,0,0-.968-1.116c-.034-.027-.082-.058-.12-.014s-.014.1.022.145c.14.155.274.316.425.461a1.791,1.791,0,0,1,.4,1.87c-.012.044-.025.137-.085.107s-.173-.017-.168-.142a1.283,1.283,0,0,0-.036-.269c-.008-.043-.034-.119-.049-.119-.373.017-.139-.216-.123-.33.019-.139.069-.254-.1-.348-.088-.05-.031-.2-.08-.277-.137-.229-.3-.447-.441-.671-.1-.157-.148.114-.237.03l-.072-.007c.008.021.014.043.022.065.109.136.3.22.218.466-.031.089.179.137.2.282-.075.056-.135-.1-.218-.007.009.1.131.152.162.25.017.052.193.159-.048.159-.095,0-.03.1-.008.152.089.211.17.414,0,.629a.3.3,0,0,0-.036.26c.019.1.006.1-.126.142-.058.017-.05.067-.063.109-.026.093.027.2-.057.284-.008.005-.017.008-.058.029-.03-.262-.168-.5-.045-.763.031-.067.076-.2-.034-.2s-.061-.243-.291-.1a.351.351,0,0,0-.2.346,22.49,22.49,0,0,0,.057,3.782c.049.44-.11.909.142,1.326-.2.513.119.9.353,1.335h-1.63c.079-.14.146-.263.218-.382a.906.906,0,0,0,.148-.777.3.3,0,0,1,.012-.238,1.1,1.1,0,0,0,.076-.585c-.017-.507.106-1,.117-1.514.022-1.018.025-2.034-.026-3.05,0-.091.032-.216-.139-.193-.117.014-.089-.117-.15-.162-.171.151-.289.284-.179.559a1,1,0,0,1-.115.644c-.1-.131-.044-.26-.089-.364-.016-.034-.014-.107-.082-.063-.022.014-.021.063-.061.1.076-.395-.315-.73-.111-1.139.034-.053.14-.111.061-.164s-.106.045-.123.113m4.248-.091a.149.149,0,0,0-.019.049c0,.014.014.028.022.044a.315.315,0,0,0,.03-.063c0-.006-.021-.018-.032-.03m-1.962-.721a.164.164,0,0,0,.039.03c.041.016.041-.016.036-.039s-.028-.022-.041-.021-.023.019-.034.03" transform="translate(-89.371 -389.9)" fill="#136f40"/>
      <path id="Path_112" data-name="Path 112" d="M132.936,450.382a.715.715,0,0,1-.249-.045,19.207,19.207,0,0,1-12.252-13.661,25.881,25.881,0,0,1-.686-9.287.711.711,0,0,1,.445-.561l12.485-4.846a.7.7,0,0,1,.513,0l12.485,4.846a.711.711,0,0,1,.445.561,25.88,25.88,0,0,1-.686,9.287,19.207,19.207,0,0,1-12.252,13.661.714.714,0,0,1-.249.045M121.11,427.994a25.406,25.406,0,0,0,.71,8.371,17.556,17.556,0,0,0,11.117,12.549,17.558,17.558,0,0,0,11.128-12.6,25.338,25.338,0,0,0,.7-8.324L132.936,423.4Z" transform="translate(-91.691 -391.273)" fill="#136f40"/>
    </g>
    <path id="Path_2942" data-name="Path 2942" d="M2.853-1.288V-6.238c0-1.925-.017-3.317-.1-4.778l.052-.017A33.7,33.7,0,0,0,4.95-7.166L8.628-1.288H10.14V-12.871H8.731v4.846c0,1.8.034,3.214.172,4.76l-.052.017A32.481,32.481,0,0,0,6.789-7.011l-3.695-5.86H1.444V-1.288ZM19.661-9.606H18.148v5.087a2.074,2.074,0,0,1-.137.773,2.175,2.175,0,0,1-1.994,1.392c-1.358,0-1.856-1.083-1.856-2.664V-9.606H12.649v4.864c0,2.9,1.564,3.643,2.87,3.643a3.107,3.107,0,0,0,2.75-1.547H18.3l.086,1.358h1.34c-.052-.653-.069-1.409-.069-2.286Zm8.18,6.891a4.329,4.329,0,0,1-1.856.4A2.852,2.852,0,0,1,23.1-5.43a2.887,2.887,0,0,1,2.939-3.145,3.7,3.7,0,0,1,1.753.4l.344-1.151a4.762,4.762,0,0,0-2.1-.447,4.24,4.24,0,0,0-4.468,4.434A3.952,3.952,0,0,0,25.71-1.1,5.847,5.847,0,0,0,28.1-1.58Zm2.028,1.426h1.512v-12.2H29.869ZM40.61-5.172a3.687,3.687,0,0,0,.052-.7c0-1.53-.7-3.9-3.437-3.9-2.423,0-3.9,1.959-3.9,4.468a3.876,3.876,0,0,0,4.09,4.21A6.776,6.776,0,0,0,40.2-1.632l-.275-1.083a5.41,5.41,0,0,1-2.3.43,2.657,2.657,0,0,1-2.853-2.887ZM34.784-6.255A2.477,2.477,0,0,1,37.1-8.7a2.147,2.147,0,0,1,2.1,2.44Zm13.594-.137c0-1.65-.619-3.386-3.162-3.386a5.386,5.386,0,0,0-2.75.722l.344,1.014a4.008,4.008,0,0,1,2.183-.619,1.7,1.7,0,0,1,1.89,1.908v.172c-3.214-.017-5,1.083-5,3.093A2.37,2.37,0,0,0,44.425-1.1a3.1,3.1,0,0,0,2.543-1.237h.052l.12,1.048H48.5a13.956,13.956,0,0,1-.12-1.994Zm-1.461,2.3a1.707,1.707,0,0,1-.069.481A2.1,2.1,0,0,1,44.8-2.216,1.325,1.325,0,0,1,43.394-3.66c0-1.615,1.873-1.908,3.523-1.873Zm3.9,2.8H52.33V-5.722a4.524,4.524,0,0,1,.052-.7A2.105,2.105,0,0,1,54.41-8.352a2.354,2.354,0,0,1,.516.034V-9.744a3.079,3.079,0,0,0-.412-.034,2.516,2.516,0,0,0-2.32,1.822h-.052l-.069-1.65H50.749c.052.773.069,1.615.069,2.6Zm15.106-5.1c0-1.65-.619-3.386-3.162-3.386a5.386,5.386,0,0,0-2.75.722l.344,1.014a4.008,4.008,0,0,1,2.183-.619,1.7,1.7,0,0,1,1.89,1.908v.172c-3.214-.017-5,1.083-5,3.093A2.37,2.37,0,0,0,61.971-1.1a3.1,3.1,0,0,0,2.543-1.237h.052l.12,1.048h1.358a13.957,13.957,0,0,1-.12-1.994Zm-1.461,2.3a1.708,1.708,0,0,1-.069.481A2.1,2.1,0,0,1,62.35-2.216,1.325,1.325,0,0,1,60.94-3.66c0-1.615,1.873-1.908,3.523-1.873Zm3.9,2.8h1.512v-5a2.175,2.175,0,0,1,.1-.7,2.182,2.182,0,0,1,2.028-1.547c1.426,0,1.925,1.117,1.925,2.458v4.795h1.512V-6.238c0-2.853-1.787-3.54-2.939-3.54a3.08,3.08,0,0,0-2.75,1.547h-.034l-.086-1.375H68.3c.052.687.069,1.375.069,2.251Zm15.209-12.2v4.967h-.034A2.787,2.787,0,0,0,81.03-9.778c-2.011,0-3.746,1.684-3.729,4.451C77.3-2.8,78.865-1.1,80.876-1.1a3,3,0,0,0,2.8-1.633h.052L83.8-1.288h1.34c-.034-.567-.069-1.409-.069-2.148V-13.49Zm0,8.713a2.627,2.627,0,0,1-.069.653,2.291,2.291,0,0,1-2.217,1.8c-1.615,0-2.458-1.392-2.458-3.076,0-1.822.928-3.2,2.492-3.2A2.227,2.227,0,0,1,83.5-6.856a2.669,2.669,0,0,1,.069.636ZM91.29-1.288h1.5V-6.306h1.409c1.358.052,1.994.653,2.337,2.251a14.521,14.521,0,0,0,.756,2.767h1.547a18.436,18.436,0,0,1-.894-3.179A2.9,2.9,0,0,0,96.257-6.8v-.052A3.041,3.041,0,0,0,98.422-9.8a2.958,2.958,0,0,0-.911-2.217,4.792,4.792,0,0,0-3.351-.945,17.4,17.4,0,0,0-2.87.241Zm1.5-10.38a6.558,6.558,0,0,1,1.478-.12c1.581,0,2.664.653,2.664,2.148,0,1.323-1.014,2.2-2.612,2.2h-1.53Zm13.937,5.276c0-1.65-.619-3.386-3.162-3.386a5.386,5.386,0,0,0-2.75.722l.344,1.014a4.008,4.008,0,0,1,2.183-.619,1.7,1.7,0,0,1,1.89,1.908v.172c-3.214-.017-5,1.083-5,3.093A2.37,2.37,0,0,0,102.77-1.1a3.1,3.1,0,0,0,2.543-1.237h.052l.12,1.048h1.358a13.955,13.955,0,0,1-.12-1.994Zm-1.461,2.3a1.708,1.708,0,0,1-.069.481,2.1,2.1,0,0,1-2.045,1.392,1.325,1.325,0,0,1-1.409-1.444c0-1.615,1.873-1.908,3.523-1.873Zm9.572-9.4v4.967H114.8a2.787,2.787,0,0,0-2.509-1.255c-2.011,0-3.746,1.684-3.729,4.451,0,2.526,1.564,4.228,3.575,4.228a3,3,0,0,0,2.8-1.633h.052l.069,1.444h1.34c-.034-.567-.069-1.409-.069-2.148V-13.49Zm0,8.713a2.627,2.627,0,0,1-.069.653,2.291,2.291,0,0,1-2.217,1.8c-1.615,0-2.458-1.392-2.458-3.076,0-1.822.928-3.2,2.492-3.2a2.227,2.227,0,0,1,2.183,1.736,2.67,2.67,0,0,1,.069.636Zm5.534,3.489V-9.606h-1.512v8.318Zm-.756-11.6a.921.921,0,0,0-.945.945.889.889,0,0,0,.911.928.9.9,0,0,0,.962-.928A.907.907,0,0,0,119.612-12.889ZM126.4-9.778a4.065,4.065,0,0,0-4.125,4.4A3.964,3.964,0,0,0,126.262-1.1,4.074,4.074,0,0,0,130.4-5.516,3.934,3.934,0,0,0,126.4-9.778Zm-.034,1.134c1.787,0,2.492,1.77,2.492,3.179,0,1.873-1.083,3.231-2.526,3.231-1.478,0-2.509-1.375-2.509-3.2C123.822-6.994,124.6-8.644,126.366-8.644Zm5.946,7.355h1.512v-12.2h-1.512Zm7.579-8.49a4.065,4.065,0,0,0-4.125,4.4A3.964,3.964,0,0,0,139.753-1.1a4.074,4.074,0,0,0,4.142-4.417A3.934,3.934,0,0,0,139.891-9.778Zm-.034,1.134c1.787,0,2.492,1.77,2.492,3.179,0,1.873-1.083,3.231-2.526,3.231-1.478,0-2.509-1.375-2.509-3.2C137.313-6.994,138.086-8.644,139.856-8.644Zm13.061,1.306c0-1,.017-1.684.069-2.268h-1.34l-.052,1.255h-.034a2.777,2.777,0,0,0-2.6-1.426c-1.925,0-3.764,1.581-3.764,4.4,0,2.3,1.478,4.056,3.54,4.056a2.949,2.949,0,0,0,2.647-1.392h.034V-1.8c0,2.114-1.134,2.922-2.681,2.922a4.528,4.528,0,0,1-2.44-.67l-.378,1.169a5.369,5.369,0,0,0,2.767.687,4.57,4.57,0,0,0,3.042-1c.791-.739,1.186-1.89,1.186-3.815ZM151.4-4.828a2.631,2.631,0,0,1-.12.808,2.18,2.18,0,0,1-2.1,1.547c-1.615,0-2.458-1.358-2.458-2.99,0-1.925,1.031-3.145,2.475-3.145a2.159,2.159,0,0,1,2.114,1.615,1.985,1.985,0,0,1,.086.67Zm5.328,3.54V-9.606H155.22v8.318Zm-.756-11.6a.921.921,0,0,0-.945.945.889.889,0,0,0,.911.928.9.9,0,0,0,.962-.928A.907.907,0,0,0,155.976-12.889Zm8.936,10.174a4.329,4.329,0,0,1-1.856.4A2.852,2.852,0,0,1,160.17-5.43a2.887,2.887,0,0,1,2.939-3.145,3.7,3.7,0,0,1,1.753.4l.344-1.151a4.762,4.762,0,0,0-2.1-.447,4.24,4.24,0,0,0-4.468,4.434A3.952,3.952,0,0,0,162.782-1.1a5.847,5.847,0,0,0,2.389-.481Zm7.871-3.678c0-1.65-.619-3.386-3.162-3.386a5.386,5.386,0,0,0-2.75.722l.344,1.014a4.008,4.008,0,0,1,2.183-.619,1.7,1.7,0,0,1,1.89,1.908v.172c-3.214-.017-5,1.083-5,3.093A2.37,2.37,0,0,0,168.831-1.1a3.1,3.1,0,0,0,2.543-1.237h.052l.12,1.048H172.9a13.957,13.957,0,0,1-.12-1.994Zm-1.461,2.3a1.708,1.708,0,0,1-.069.481,2.1,2.1,0,0,1-2.045,1.392A1.325,1.325,0,0,1,167.8-3.66c0-1.615,1.873-1.908,3.523-1.873Zm3.9,2.8h1.512v-12.2h-1.512Zm7.751,0h1.5V-6.306h1.409c1.358.052,1.994.653,2.337,2.251a14.518,14.518,0,0,0,.756,2.767h1.547a18.436,18.436,0,0,1-.894-3.179A2.9,2.9,0,0,0,187.941-6.8v-.052A3.041,3.041,0,0,0,190.107-9.8a2.958,2.958,0,0,0-.911-2.217,4.792,4.792,0,0,0-3.351-.945,17.4,17.4,0,0,0-2.87.241Zm1.5-10.38a6.558,6.558,0,0,1,1.478-.12c1.581,0,2.664.653,2.664,2.148,0,1.323-1.014,2.2-2.612,2.2H184.47Zm14.522,6.5a3.689,3.689,0,0,0,.052-.7c0-1.53-.7-3.9-3.437-3.9-2.423,0-3.9,1.959-3.9,4.468A3.876,3.876,0,0,0,195.8-1.1a6.776,6.776,0,0,0,2.784-.533L198.3-2.715a5.41,5.41,0,0,1-2.3.43,2.657,2.657,0,0,1-2.853-2.887Zm-5.826-1.083a2.477,2.477,0,0,1,2.32-2.44,2.147,2.147,0,0,1,2.1,2.44Zm14.865-1.083c0-1,.017-1.684.069-2.268h-1.34l-.052,1.255h-.034a2.777,2.777,0,0,0-2.6-1.426c-1.925,0-3.764,1.581-3.764,4.4,0,2.3,1.478,4.056,3.54,4.056A2.949,2.949,0,0,0,206.5-2.715h.034V-1.8c0,2.114-1.134,2.922-2.681,2.922a4.528,4.528,0,0,1-2.44-.67l-.378,1.169A5.369,5.369,0,0,0,203.8,2.3a4.57,4.57,0,0,0,3.042-1c.791-.739,1.186-1.89,1.186-3.815Zm-1.512,2.509a2.631,2.631,0,0,1-.12.808,2.18,2.18,0,0,1-2.1,1.547c-1.615,0-2.458-1.358-2.458-2.99,0-1.925,1.031-3.145,2.475-3.145a2.159,2.159,0,0,1,2.114,1.615,1.985,1.985,0,0,1,.086.67Zm10.964-4.778h-1.512v5.087a2.074,2.074,0,0,1-.137.773,2.175,2.175,0,0,1-1.994,1.392c-1.358,0-1.856-1.083-1.856-2.664V-9.606h-1.512v4.864c0,2.9,1.564,3.643,2.87,3.643a3.107,3.107,0,0,0,2.75-1.547h.034l.086,1.358h1.34c-.052-.653-.069-1.409-.069-2.286Zm2.509,8.318H221.5v-12.2h-1.512Zm9.9-5.1c0-1.65-.619-3.386-3.162-3.386a5.386,5.386,0,0,0-2.75.722l.344,1.014a4.008,4.008,0,0,1,2.183-.619,1.7,1.7,0,0,1,1.89,1.908v.172c-3.214-.017-5,1.083-5,3.093A2.37,2.37,0,0,0,225.939-1.1a3.1,3.1,0,0,0,2.543-1.237h.052l.12,1.048h1.358a13.955,13.955,0,0,1-.12-1.994Zm-1.461,2.3a1.708,1.708,0,0,1-.069.481,2.1,2.1,0,0,1-2.045,1.392,1.325,1.325,0,0,1-1.409-1.444c0-1.615,1.873-1.908,3.523-1.873Zm4.125-7.063v1.547h-1.289v1.151h1.289v4.537a3.249,3.249,0,0,0,.584,2.183,2.157,2.157,0,0,0,1.633.636,4.123,4.123,0,0,0,1.341-.206l-.069-1.151a2.824,2.824,0,0,1-.876.1c-.842,0-1.134-.584-1.134-1.615V-8.455H236.2V-9.606h-2.165V-11.6Zm8.679,1.375a4.065,4.065,0,0,0-4.125,4.4A3.964,3.964,0,0,0,241.1-1.1a4.074,4.074,0,0,0,4.142-4.417A3.934,3.934,0,0,0,241.234-9.778ZM241.2-8.644c1.787,0,2.492,1.77,2.492,3.179,0,1.873-1.083,3.231-2.526,3.231-1.478,0-2.509-1.375-2.509-3.2C238.656-6.994,239.429-8.644,241.2-8.644Zm5.946,7.355h1.512V-5.722a4.525,4.525,0,0,1,.052-.7,2.105,2.105,0,0,1,2.028-1.925,2.355,2.355,0,0,1,.516.034V-9.744a3.079,3.079,0,0,0-.412-.034,2.515,2.515,0,0,0-2.32,1.822h-.052l-.069-1.65h-1.323c.052.773.069,1.615.069,2.6Zm5.362-8.318,3.059,7.665a1.046,1.046,0,0,1,.12.4,1.086,1.086,0,0,1-.12.361A4.779,4.779,0,0,1,254.295.5a4,4,0,0,1-1.323.739l.378,1.255a4.288,4.288,0,0,0,1.856-.962c1.031-.911,1.77-2.354,2.853-5.207l2.268-5.929h-1.6l-1.65,4.881c-.206.6-.378,1.237-.533,1.736h-.034c-.137-.5-.344-1.151-.55-1.7l-1.8-4.915Zm20.674,6.754a6.011,6.011,0,0,1-2.458.481c-2.8,0-4.434-1.8-4.434-4.657,0-3.042,1.8-4.778,4.52-4.778a5.3,5.3,0,0,1,2.32.481l.378-1.22a6.273,6.273,0,0,0-2.75-.516,5.755,5.755,0,0,0-6.049,6.084c0,3.815,2.44,5.877,5.706,5.877a7.358,7.358,0,0,0,3.059-.55Zm5.293-6.926a4.065,4.065,0,0,0-4.125,4.4A3.964,3.964,0,0,0,278.337-1.1a4.074,4.074,0,0,0,4.142-4.417A3.934,3.934,0,0,0,278.475-9.778Zm-.034,1.134c1.787,0,2.492,1.77,2.492,3.179,0,1.873-1.083,3.231-2.526,3.231-1.478,0-2.509-1.375-2.509-3.2C275.9-6.994,276.67-8.644,278.44-8.644Zm5.946,7.355h1.478v-5a2.022,2.022,0,0,1,.12-.739,2.085,2.085,0,0,1,1.873-1.512c1.151,0,1.736.945,1.736,2.268v4.984h1.478V-6.427a2.583,2.583,0,0,1,.12-.756A1.987,1.987,0,0,1,293-8.541c1.2,0,1.8.945,1.8,2.561v4.692h1.478V-6.169c0-2.887-1.633-3.609-2.75-3.609a2.789,2.789,0,0,0-1.822.584,3.282,3.282,0,0,0-.945,1.083h-.034a2.453,2.453,0,0,0-2.337-1.667,2.875,2.875,0,0,0-2.629,1.53h-.052l-.069-1.358h-1.323c.034.687.069,1.375.069,2.251Zm14.333,0H300.2v-5a2.022,2.022,0,0,1,.12-.739,2.085,2.085,0,0,1,1.873-1.512c1.151,0,1.736.945,1.736,2.268v4.984H305.4V-6.427a2.582,2.582,0,0,1,.12-.756,1.987,1.987,0,0,1,1.8-1.358c1.2,0,1.8.945,1.8,2.561v4.692h1.478V-6.169c0-2.887-1.633-3.609-2.75-3.609a2.79,2.79,0,0,0-1.822.584,3.283,3.283,0,0,0-.945,1.083h-.034a2.453,2.453,0,0,0-2.337-1.667,2.875,2.875,0,0,0-2.629,1.53h-.052l-.069-1.358H298.65c.034.687.069,1.375.069,2.251Zm15.845,0V-9.606h-1.512v8.318Zm-.756-11.6a.921.921,0,0,0-.945.945.889.889,0,0,0,.911.928.9.9,0,0,0,.962-.928A.907.907,0,0,0,313.808-12.889Zm2.7,11.2a4.742,4.742,0,0,0,2.337.584c1.942,0,3.093-1.031,3.093-2.509,0-1.237-.756-1.959-2.183-2.492-1.083-.43-1.564-.739-1.564-1.426,0-.619.481-1.134,1.375-1.134a3.222,3.222,0,0,1,1.7.5l.361-1.1a3.861,3.861,0,0,0-2.028-.516,2.575,2.575,0,0,0-2.87,2.44c0,1,.7,1.8,2.217,2.354,1.1.412,1.53.791,1.53,1.512,0,.7-.516,1.237-1.6,1.237a4.272,4.272,0,0,1-2.011-.584Zm6.805,0a4.742,4.742,0,0,0,2.337.584c1.942,0,3.093-1.031,3.093-2.509,0-1.237-.756-1.959-2.183-2.492C325.477-6.53,325-6.839,325-7.527c0-.619.481-1.134,1.375-1.134a3.222,3.222,0,0,1,1.7.5l.361-1.1a3.861,3.861,0,0,0-2.028-.516,2.575,2.575,0,0,0-2.87,2.44c0,1,.7,1.8,2.217,2.354,1.1.412,1.529.791,1.529,1.512,0,.7-.516,1.237-1.6,1.237a4.272,4.272,0,0,1-2.011-.584Zm8.885.4V-9.606h-1.512v8.318Zm-.756-11.6a.921.921,0,0,0-.945.945.889.889,0,0,0,.911.928.9.9,0,0,0,.962-.928A.907.907,0,0,0,331.44-12.889Zm6.788,3.111a4.065,4.065,0,0,0-4.125,4.4A3.964,3.964,0,0,0,338.091-1.1a4.074,4.074,0,0,0,4.142-4.417A3.934,3.934,0,0,0,338.229-9.778Zm-.034,1.134c1.787,0,2.492,1.77,2.492,3.179,0,1.873-1.083,3.231-2.526,3.231-1.478,0-2.509-1.375-2.509-3.2C335.651-6.994,336.424-8.644,338.194-8.644Zm5.946,7.355h1.512v-5a2.175,2.175,0,0,1,.1-.7,2.182,2.182,0,0,1,2.028-1.547c1.426,0,1.925,1.117,1.925,2.458v4.795h1.512V-6.238c0-2.853-1.787-3.54-2.939-3.54a3.08,3.08,0,0,0-2.75,1.547H345.5l-.086-1.375h-1.34c.052.687.069,1.375.069,2.251Z" transform="translate(178.843 466.99)" fill="#1a9bd8"/>
    <path id="Path_113" data-name="Path 113" d="M186.068,432.436c-5.06,0-6.966-2.347-6.966-6.052,0-3.417,2.113-6.548,6.887-6.548a16.82,16.82,0,0,1,5.478.914v8.973h2.687v2.713Zm-2.479-17.424a1.7,1.7,0,1,1-1.7,1.7A1.709,1.709,0,0,1,183.589,415.012Zm4.54,8.007a6.3,6.3,0,0,0-2.479-.469c-1.955,0-3.1,1.487-3.1,3.522,0,2.374,1.174,3.652,3.912,3.652h1.67Zm-.366-8.007a1.7,1.7,0,1,1,0,3.39,1.691,1.691,0,0,1-1.7-1.7A1.709,1.709,0,0,1,187.763,415.012ZM192.2,431.08c0-.809,1.043-1.357,1.565-1.357h3.079v-9.547h3.443v9.547h2.687v2.713h-9.208C193.243,432.436,192.2,431.915,192.2,431.08Zm4.252,3.26a1.7,1.7,0,0,1,0,3.391,1.7,1.7,0,0,1,0-3.391Zm4.174,0a1.7,1.7,0,0,1,0,3.391,1.7,1.7,0,1,1,0-3.391Zm1.957-1.9c-.522,0-1.565-.521-1.565-1.356,0-.809,1.043-1.357,1.565-1.357h4.07a4.485,4.485,0,0,1-2.009-3.886c0-3.235,2.217-6,6.809-6a11.208,11.208,0,0,1,3.234.5l-.6,2.739a7.217,7.217,0,0,0-2.713-.548,3.115,3.115,0,0,0-3.286,3.314c0,2.217,1.8,3.886,5.947,3.886h2.036v2.713Zm16.9-15.808c-.6-.1-1.2-.208-1.852-.26v-2.138a34.155,34.155,0,0,1,5.294-.209v15.7h2.688v2.713h-6.131Zm5.74,15.808c-.522,0-1.565-.521-1.565-1.356,0-.809,1.043-1.357,1.565-1.357h.756a19.865,19.865,0,0,0,6.1-.809c-1.67-1.565-3.209-3.182-5.478-3.808l.287-2.451c2.061-1.487,4.956-2.9,7.539-2.9,3.887,0,5.478,2.008,5.478,4.278a6.674,6.674,0,0,1-2.662,5.009,6.5,6.5,0,0,0,2.9.677H241.5v2.713h-1.748a9.223,9.223,0,0,1-5.348-1.617,21,21,0,0,1-8.556,1.617Zm9.651-4.981a3.812,3.812,0,0,0,1.644-2.975,2.17,2.17,0,0,0-2.479-2.191,8.055,8.055,0,0,0-3.965,1.565C231.879,424.585,233.287,426.124,234.878,427.455Zm6.236,4.981c-.522,0-1.565-.521-1.565-1.356,0-.809,1.043-1.357,1.565-1.357h.939c1.7,0,2.347-.677,2.347-3.234v-4.749h3.444v4.826c0,2.347.26,3.365,1.8,3.365,1.356,0,2.112-.809,2.112-3.339v-5.9h3.314v6.548c0,2.061.7,2.478,3.1,2.478h.7c.1-1.043.157-2.321.157-3.13a32.32,32.32,0,0,0-.758-6.991l3.365-.469a32.141,32.141,0,0,1,.835,7.225,51.936,51.936,0,0,1-.366,6.078h-4.3c-2.738,0-4.121-.364-4.878-1.8-.522,1.122-1.9,2.008-3.939,2.008a3.463,3.463,0,0,1-3.5-2.034c-.522,1.2-1.566,1.825-3.47,1.825Zm9.99-17.294a1.709,1.709,0,0,1,1.7,1.7,1.728,1.728,0,0,1-1.7,1.7,1.7,1.7,0,0,1,0-3.392Zm2.166-3.418a1.7,1.7,0,1,1-1.7,1.7A1.71,1.71,0,0,1,253.27,411.724Zm2.138,3.418a1.692,1.692,0,0,1,1.7,1.7,1.7,1.7,0,1,1-1.7-1.7Zm15.081,12.39a18.24,18.24,0,0,1-3.444.573V416.628a12.739,12.739,0,0,0-1.852-.26V414.2a35.705,35.705,0,0,1,5.3-.209Zm-5.088,9.939a5.15,5.15,0,0,1,1.383.156,1.168,1.168,0,0,1-.5-.992c0-1.356,1.2-2.556,3.678-2.556a6.957,6.957,0,0,1,1.486.156l-.338,1.852a5.307,5.307,0,0,0-1.331-.157c-.782,0-1.174.313-1.174.731,0,.547.47.809,1.7.809h1.617v1.852H265.4Zm.888-5.269.417-2.818a15.261,15.261,0,0,0,4.33.652c2.583,0,3.7-.99,3.7-3.652V414.046h3.443V426.1c0,3.835-1.8,6.626-7.408,6.626A20.729,20.729,0,0,1,266.289,432.2Zm16.566-15.574c-.6-.1-1.2-.208-1.852-.26v-2.138a34.155,34.155,0,0,1,5.294-.209v18.416h-3.443Zm7.1,22.043.209-2.817a21.924,21.924,0,0,0,4.069.443c2.713,0,4.513-1.016,4.513-3.469v-.392h-2.061c-5.06,0-6.964-2.347-6.964-6.052,0-3.417,2.112-6.548,6.886-6.548a16.82,16.82,0,0,1,5.478.914v11.738c0,3.6-2.347,6.521-8.165,6.521A27.428,27.428,0,0,1,289.951,438.67Zm8.791-15.652a6.292,6.292,0,0,0-2.477-.469c-1.957,0-3.1,1.487-3.1,3.522,0,2.374,1.174,3.652,3.914,3.652h1.669Zm19.41,9.417c-5.06,0-6.964-2.347-6.964-6.052,0-3.417,2.112-6.548,6.886-6.548a16.82,16.82,0,0,1,5.478.914v8.973h2.687v2.713Zm-2.479-17.424a1.7,1.7,0,1,1-1.7,1.7A1.709,1.709,0,0,1,315.673,415.012Zm4.54,8.007a6.3,6.3,0,0,0-2.479-.469c-1.955,0-3.1,1.487-3.1,3.522,0,2.374,1.174,3.652,3.912,3.652h1.67Zm-.366-8.007a1.7,1.7,0,1,1,0,3.39,1.691,1.691,0,0,1-1.7-1.7A1.709,1.709,0,0,1,319.847,415.012Zm6,17.424c-.522,0-1.565-.521-1.565-1.356,0-.809,1.043-1.357,1.565-1.357h3.079v-9.547h3.443v12.26Zm.835,1.9a1.7,1.7,0,0,1,0,3.391,1.7,1.7,0,1,1,0-3.391Zm4.174,0a1.7,1.7,0,0,1,0,3.391,1.7,1.7,0,1,1,0-3.391Zm5.165,4.33.208-2.817a21.946,21.946,0,0,0,4.07.443c2.713,0,4.513-1.016,4.513-3.469v-.392h-2.061c-5.062,0-6.966-2.347-6.966-6.052,0-3.417,2.113-6.548,6.887-6.548a16.82,16.82,0,0,1,5.478.914v11.738c0,3.6-2.349,6.521-8.165,6.521A27.4,27.4,0,0,1,336.023,438.67Zm8.791-15.652a6.3,6.3,0,0,0-2.479-.469c-1.957,0-3.1,1.487-3.1,3.522,0,2.374,1.173,3.652,3.912,3.652h1.67Zm6.992,15.652.209-2.817a21.922,21.922,0,0,0,4.069.443c2.713,0,4.513-1.016,4.513-3.469v-.392h-2.061c-5.062,0-6.966-2.347-6.966-6.052,0-3.417,2.113-6.548,6.887-6.548a16.82,16.82,0,0,1,5.479.914v8.973h2.687v2.713h-2.687v.053c0,3.6-2.349,6.521-8.165,6.521A27.4,27.4,0,0,1,351.806,438.67Zm8.791-15.652a6.3,6.3,0,0,0-2.479-.469c-1.955,0-3.1,1.487-3.1,3.522,0,2.374,1.173,3.652,3.912,3.652h1.67Zm4.07,8.061c0-.809,1.044-1.357,1.566-1.357h3.077v-9.547h3.444v9.547h2.687v2.713h-9.208C365.712,432.436,364.667,431.915,364.667,431.08Zm6.366-16.095a1.8,1.8,0,1,1-1.8,1.8A1.839,1.839,0,0,1,371.034,414.985Zm4.017,17.451c-.522,0-1.565-.521-1.565-1.356,0-.809,1.043-1.357,1.565-1.357h3.079V414.046h3.443v18.39Zm11.191-15.808c-.6-.1-1.2-.208-1.852-.26v-2.138a34.172,34.172,0,0,1,5.3-.209v18.416h-3.444Zm19.514,15.808c-5.06,0-6.964-2.347-6.964-6.052,0-3.417,2.113-6.548,6.887-6.548a16.816,16.816,0,0,1,5.477.914v8.973h2.688v2.713Zm-2.478-17.424a1.7,1.7,0,1,1-1.7,1.7A1.71,1.71,0,0,1,403.278,415.012Zm4.538,8.007a6.285,6.285,0,0,0-2.477-.469c-1.957,0-3.1,1.487-3.1,3.522,0,2.374,1.174,3.652,3.914,3.652h1.669Zm-.364-8.007a1.7,1.7,0,1,1-1.7,1.7A1.709,1.709,0,0,1,407.452,415.012Zm6,17.424c-.521,0-1.565-.521-1.565-1.356,0-.809,1.044-1.357,1.565-1.357h3.079v-9.547h3.443v12.26Zm4.643,1.748a1.774,1.774,0,1,1-1.774,1.774A1.728,1.728,0,0,1,418.1,434.184Zm6.549-17.556c-.6-.1-1.2-.208-1.853-.26v-2.138a34.173,34.173,0,0,1,5.3-.209v15.7h2.687v2.713h-6.129Zm5.739,15.808c-.521,0-1.565-.521-1.565-1.356,0-.809,1.044-1.357,1.565-1.357h2.009a5.055,5.055,0,0,1,1.461.183c-.965-.7-1.461-1.878-1.461-3.729,0-3.314,2.27-6.34,6.782-6.34,4.07,0,5.9,2.349,5.9,6v6.6Zm6.365-17.424a1.7,1.7,0,1,1-1.7,1.7A1.709,1.709,0,0,1,436.749,415.012Zm4.956,11.242c0-2.609-1.043-3.7-2.791-3.7-1.957,0-3.1,1.487-3.1,3.522,0,2.453,1.2,3.652,3.914,3.652h1.982Zm-.783-11.242a1.7,1.7,0,1,1,0,3.39,1.691,1.691,0,0,1-1.7-1.7A1.708,1.708,0,0,1,440.923,415.012Zm3.839,23.789.262-2.738a7.249,7.249,0,0,0,2.112.313c1.774,0,2.818-.835,2.818-3.652V420.176H453.4v9.547h2.687v2.713H453.4v.105c0,3.339-1.148,6.521-6.444,6.521A9.177,9.177,0,0,1,444.761,438.8Zm10.931-6.365c-.521,0-1.565-.521-1.565-1.356,0-.809,1.044-1.357,1.565-1.357h3.079V414.046h3.443v18.39Zm11.192-15.808c-.6-.1-1.2-.208-1.853-.26v-2.138a34.178,34.178,0,0,1,5.3-.209v18.416h-3.443ZM486.4,432.436c-5.062,0-6.966-2.347-6.966-6.052,0-3.417,2.113-6.548,6.887-6.548a16.819,16.819,0,0,1,5.478.914v8.973h2.687v2.713Zm-2.479-17.424a1.7,1.7,0,1,1-1.7,1.7A1.709,1.709,0,0,1,483.919,415.012Zm4.539,8.007a6.3,6.3,0,0,0-2.479-.469c-1.955,0-3.1,1.487-3.1,3.522,0,2.374,1.173,3.652,3.912,3.652h1.67Zm-.366-8.007a1.7,1.7,0,0,1,0,3.39,1.691,1.691,0,0,1-1.7-1.7A1.709,1.709,0,0,1,488.093,415.012Zm4.437,16.069c0-.809,1.043-1.357,1.565-1.357h3.077v-9.547h3.444v9.547H503.3v2.713h-9.208C493.573,432.436,492.53,431.915,492.53,431.08Zm2.608-14.008a8.232,8.232,0,0,1,1.565.157,1.329,1.329,0,0,1-.652-1.148c0-1.278,1.1-2.687,3.835-2.687a9.492,9.492,0,0,1,1.54.157l-.339,1.825a7.118,7.118,0,0,0-1.408-.157c-.888,0-1.278.392-1.278.888,0,.6.417.965,1.878.965h1.591v1.878h-6.73Zm6.21,14.008c0-.809,1.043-1.357,1.565-1.357h3.078v-9.547h3.443v9.547h2.687v2.713h-9.208C502.39,432.436,501.347,431.915,501.347,431.08Zm4.252,3.26a1.7,1.7,0,0,1,0,3.391,1.7,1.7,0,0,1,0-3.391Zm4.174,0a1.7,1.7,0,0,1,0,3.391,1.7,1.7,0,0,1,0-3.391Zm1.957-1.9c-.521,0-1.565-.521-1.565-1.356,0-.809,1.044-1.357,1.565-1.357H514a5.161,5.161,0,0,1,1.2.131,2.656,2.656,0,0,1-.652-1.853c0-2.53,1.852-4.382,5.008-4.382,3.5,0,4.8,2.556,4.8,5.5v.6h2.609v-.313c0-5.4-2.192-7.8-7.356-7.8a19.016,19.016,0,0,0-5.582,1.018l-.339-2.687a22.041,22.041,0,0,1,6.339-1.018c6.521,0,10.226,3.1,10.226,10.722v2.79Zm9.809-3.365c0-2.008-.7-3.077-2.243-3.077a1.738,1.738,0,0,0-1.957,1.774c0,1.46,1.148,2.061,2.479,2.061h1.721Z" transform="translate(-0.121 3.971)" fill="#ce9f51"/>
  </g>
</svg>
