<svg xmlns="http://www.w3.org/2000/svg" viewBox="0 0 105.25 82.27"><g id="Layer_2" data-name="Layer 2"><g id="nrrclogo-v"><g id="Logo"><g id="Group_12" data-name="Group 12"><path id="Path_97" data-name="Path 97" d="M53,0C45.63,0,39.65,14.1,39.65,31.48S45.63,63,53,63s13.35-14.1,13.35-31.49S60.38,0,53,0m.42,61.65c-6.81,0-12.33-13.24-12.33-29.57S46.62,2.5,53.43,2.5,65.75,15.74,65.75,32.08,60.23,61.65,53.43,61.65" fill="#136f40"/><path id="Path_98" data-name="Path 98" d="M24.36,15.51C20.5,22.1,30,34.83,45.48,43.94S76.73,55.1,80.59,48.51,75,29.2,59.48,20.08,28.23,8.92,24.36,15.51M79.64,47.45C76.07,53.53,61.35,51.52,46.77,43s-23.53-20.43-20-26.51,18.28-4.07,32.87,4.49,23.52,20.43,20,26.51" fill="#ca9f45"/><path id="Path_99" data-name="Path 99" d="M66,24.39l-.75-.55.09.79.73.53c0-.26,0-.52-.07-.77" fill="#136f40"/><path id="Path_100" data-name="Path 100" d="M66,24.39l-.75-.55.09.79.73.53c0-.26,0-.52-.07-.77" fill="#136f40"/><path id="Path_101" data-name="Path 101" d="M42.25,12.81l-.27.9,1.66.39c.09-.28.18-.56.28-.84l-1.67-.45" fill="#136f40"/><path id="Path_102" data-name="Path 102" d="M42.25,12.81l-.27.9,1.66.39c.09-.28.18-.56.28-.84l-1.67-.45" fill="#136f40"/><path id="Path_103" data-name="Path 103" d="M45.48,20.08C30,29.2,20.49,41.92,24.36,48.51S44,53.05,59.48,43.94s25-21.84,21.12-28.43S61,11,45.48,20.08m-.21.86c14.59-8.56,29.3-10.57,32.87-4.49s-5.36,18-20,26.51-29.3,10.57-32.87,4.49,5.36-18,20-26.51" fill="#1a9bd8"/><path id="Path_104" data-name="Path 104" d="M31.56,30.72q-.63.64-1.23,1.29l.39.42c.39-.43.79-.86,1.21-1.28-.12-.15-.25-.29-.37-.43M52.48,16.44l-.88.41.88.38.88-.38-.88-.41" fill="#a0862a"/><path id="Path_105" data-name="Path 105" d="M31.56,30.72q-.63.64-1.23,1.29l.39.42c.39-.43.79-.86,1.21-1.28-.12-.15-.25-.29-.37-.43M52.48,16.44l-.88.41.88.38.88-.38-.88-.41" fill="#a0862a"/><path id="Path_106" data-name="Path 106" d="M63.69,12.58l-.92.22c.11.29.21.59.31.89l.89-.18c-.09-.31-.18-.62-.28-.93m-23.62,11c0,.25,0,.52-.08.78.55-.39,1.1-.77,1.67-1.15,0-.27.08-.53.11-.8l-1.7,1.17" fill="#136f40"/><path id="Path_107" data-name="Path 107" d="M47.77,8.25A3.29,3.29,0,1,1,44.48,5h0a3.29,3.29,0,0,1,3.29,3.29" fill="#136f40"/><path id="Path_108" data-name="Path 108" d="M39.65,50.94a3.3,3.3,0,1,1-3.3-3.3h0a3.3,3.3,0,0,1,3.3,3.3" fill="#1a9bd8"/><path id="Path_109" data-name="Path 109" d="M80.66,36.94a3.3,3.3,0,1,1-3.29-3.29h0a3.29,3.29,0,0,1,3.29,3.29" fill="#ca9f45"/><path id="Path_110" data-name="Path 110" d="M47.2,33.92a8,8,0,0,1,6.09,1.5c.29.22.29.22.59,0a7.7,7.7,0,0,1,5.73-1.52l.26,0,.06,0L59,34A9,9,0,0,0,55,35.39a7.14,7.14,0,0,0-.82.63c-.11.09-.09.16,0,.25.35.31.69.63,1,1,.11.1.16.08.21,0s.09-.25.14-.37a.63.63,0,0,1,.79-.28.45.45,0,0,1,.24.53.44.44,0,0,1-.47.33,1.06,1.06,0,0,1-.23,0c-.06,0-.13-.09-.19,0a.21.21,0,0,0,0,.23,1,1,0,0,0,.56.39c.07,0,.11-.05.16-.08a.5.5,0,0,1,.56,0,.42.42,0,0,1,.19.47.39.39,0,0,1-.32.31,1.32,1.32,0,0,1-1-.2c-.17-.09-.31-.28-.48-.3s-.26.23-.41.33a.77.77,0,0,1-1,0,.45.45,0,0,1,0-.63l0,0a.48.48,0,0,1,.68,0,.22.22,0,0,1,.08.14c0,.05,0,.13.07.13a.2.2,0,0,0,.17-.09.11.11,0,0,0,0-.16,2.31,2.31,0,0,0-.31-.39c-.29-.29-.63-.52-.94-.79,0,0-.07-.05-.12,0a8.31,8.31,0,0,0-1.23,1.14c-.07.1-.11.18,0,.26s.18.07.23-.07a.38.38,0,0,1,.46-.27.47.47,0,0,1,.4.41.46.46,0,0,1-.28.48.89.89,0,0,1-.91-.17.75.75,0,0,1-.16-.15c-.12-.22-.24-.14-.39,0a1.79,1.79,0,0,1-1.19.44.43.43,0,0,1-.45-.41v-.1a.46.46,0,0,1,.73-.32.26.26,0,0,0,.35,0,1.24,1.24,0,0,0,.32-.23.25.25,0,0,0,.05-.31c-.08-.13-.17,0-.26,0a.42.42,0,0,1-.51-.08.48.48,0,0,1-.09-.52.41.41,0,0,1,.44-.27.72.72,0,0,1,.62.46c0,.09.06.19.1.28s.09.1.16,0l1.11-1c.1-.1,0-.15-.05-.2a6.55,6.55,0,0,0-1.51-1,10.11,10.11,0,0,0-4.07-1h-.12l-.07,0" fill="#136f40"/><path id="Path_111" data-name="Path 111" d="M52.61,29.6c0-.11,0-.19.07-.27s.16-.12,0-.15,0,0,0,0,.08-.22.15-.28.05-.21,0-.35c-.19.24-.41.42-.44.72a.08.08,0,0,1,0,.07c-.17.08-.08.19,0,.3s.14.24-.1.19c0,0-.06.05-.07.09a1.64,1.64,0,0,0,0,.22c0,.11-.08.08-.12.11s0-.05-.06-.08a1.39,1.39,0,0,1,.36-1.45l.24-.26s.06-.07,0-.1a.08.08,0,0,0-.11,0,4.76,4.76,0,0,0-.55.55c-.14.22-.21.5-.44.67a.3.3,0,0,0-.08.08c0-.06-.07-.07-.07-.13a1.37,1.37,0,0,1,.08-.53,1.6,1.6,0,0,1,.79-.81.77.77,0,0,0,.32-.22,1.84,1.84,0,0,0-.62,0,.9.9,0,0,0-.48.4.56.56,0,0,1,.37-.65,1.44,1.44,0,0,1,1-.09s.07,0,.09,0a.28.28,0,0,0,0-.09c0-.1-.13-.11-.2-.15a.63.63,0,0,0-.71.05.21.21,0,0,1,.1-.25.87.87,0,0,1,1.17.13c.08.09.11.05.13,0s.18-.31.18-.5a4.29,4.29,0,0,0,.19.5c0,.08.06.12.13,0a.84.84,0,0,1,1-.24.37.37,0,0,1,.28.34.65.65,0,0,0-.9.18l0,.06a1.78,1.78,0,0,1,1.07,0,.6.6,0,0,1,.46.7.9.9,0,0,0-.47-.41,1.8,1.8,0,0,0-.61,0,.48.48,0,0,0,.3.24,1.47,1.47,0,0,1,.83,1,.63.63,0,0,1,0,.45,1.27,1.27,0,0,1-.41-.51,2.3,2.3,0,0,0-.71-.81.06.06,0,0,0-.09,0s0,.07,0,.11.2.23.31.33a1.31,1.31,0,0,1,.29,1.36s0,.1-.06.08-.13,0-.12-.1a1.38,1.38,0,0,0,0-.2s0-.08,0-.08c-.27,0-.1-.16-.09-.24s.05-.19-.07-.26,0-.14-.06-.2-.22-.33-.32-.49-.11.08-.17,0h-.05a.43.43,0,0,1,0,.05c.08.09.22.16.16.33s.13.1.15.21-.1-.07-.16,0,.09.11.12.18.14.11,0,.11,0,.08,0,.11.12.31,0,.46a.22.22,0,0,0,0,.19c0,.08,0,.08-.09.11s0,.05-.05.08,0,.14,0,.2l0,0c0-.19-.13-.36,0-.55s.06-.15,0-.15,0-.18-.21-.07a.24.24,0,0,0-.15.25,17,17,0,0,0,0,2.76c0,.32-.08.66.11,1-.15.37.08.65.25,1H53l.15-.28a.62.62,0,0,0,.11-.57.2.2,0,0,1,0-.17.78.78,0,0,0,.06-.43c0-.37.07-.73.08-1.1,0-.74,0-1.48,0-2.22,0-.07,0-.16-.1-.14s-.06-.09-.11-.12-.21.2-.13.4a.69.69,0,0,1-.08.47c-.07-.09,0-.19-.07-.26s0-.08-.06-.05,0,.05,0,.08c0-.29-.23-.54-.08-.83,0,0,.1-.09,0-.12s-.07,0-.09.08m3.1-.07s0,0,0,0,0,0,0,0a.08.08,0,0,0,0-.05l0,0M54.29,29l0,0s0,0,0,0,0,0,0,0,0,0,0,0" fill="#136f40"/><path id="Path_112" data-name="Path 112" d="M53.57,43.1a.37.37,0,0,1-.18,0,14,14,0,0,1-8.94-10,19,19,0,0,1-.5-6.77.53.53,0,0,1,.33-.41l9.1-3.53a.48.48,0,0,1,.37,0l9.11,3.53a.54.54,0,0,1,.32.41,18.6,18.6,0,0,1-.5,6.77,14,14,0,0,1-8.93,10,.39.39,0,0,1-.18,0M45,26.77a18.48,18.48,0,0,0,.51,6.11A12.82,12.82,0,0,0,53.57,42a12.82,12.82,0,0,0,8.11-9.19,18.25,18.25,0,0,0,.51-6.07l-8.62-3.35Z" fill="#136f40"/></g><path id="Path_2942" data-name="Path 2942" d="M.81,81.14V79.66c0-.58,0-1,0-1.44h0a10.05,10.05,0,0,0,.64,1.16l1.1,1.76H3V77.67H2.58v1.45c0,.54,0,1,0,1.43h0A10.37,10.37,0,0,0,2,79.42L.89,77.67H.39v3.47Zm5-2.49H5.4v1.52a.59.59,0,0,1,0,.23.65.65,0,0,1-.6.42c-.41,0-.56-.32-.56-.8V78.65H3.75v1.46c0,.86.47,1.09.86,1.09a.93.93,0,0,0,.82-.47h0l0,.41h.4c0-.2,0-.42,0-.68ZM8.3,80.71a1.3,1.3,0,0,1-.55.12A.86.86,0,0,1,6.88,80V79.9A.87.87,0,0,1,7.67,79h.09a1,1,0,0,1,.53.12l.1-.35a1.35,1.35,0,0,0-.63-.13,1.27,1.27,0,0,0-1.34,1.2v.13a1.19,1.19,0,0,0,1.1,1.27h.14a1.75,1.75,0,0,0,.72-.15Zm.61.43h.45V77.48H8.91ZM12.13,80a1.49,1.49,0,0,0,0-.21,1,1,0,0,0-1-1.17A1.2,1.2,0,0,0,10,79.94,1.16,1.16,0,0,0,11,81.2h.17A2.2,2.2,0,0,0,12,81l-.08-.33a1.52,1.52,0,0,1-.69.13.79.79,0,0,1-.86-.73V80Zm-1.75-.33a.74.74,0,0,1,.7-.73.63.63,0,0,1,.63.65v.08Zm4.08,0a.88.88,0,0,0-1-1,1.57,1.57,0,0,0-.82.21l.1.31a1.17,1.17,0,0,1,.65-.19.52.52,0,0,1,.57.45.24.24,0,0,1,0,.12v0c-1,0-1.5.33-1.5.93a.72.72,0,0,0,.71.72h0a1,1,0,0,0,.77-.37h0l0,.31h.41a4,4,0,0,1,0-.6ZM14,80.3a.59.59,0,0,1,0,.14.62.62,0,0,1-.61.42.4.4,0,0,1-.43-.37.13.13,0,0,1,0-.06c0-.48.56-.57,1-.56Zm1.17.84h.45V79.81a1.49,1.49,0,0,1,0-.21.64.64,0,0,1,.61-.58h.15v-.42H16.3a.75.75,0,0,0-.7.54h0l0-.49h-.4c0,.23,0,.48,0,.78Zm4.53-1.53a.88.88,0,0,0-.95-1,1.57,1.57,0,0,0-.82.21l.1.31a1.15,1.15,0,0,1,.65-.19.52.52,0,0,1,.57.45.24.24,0,0,1,0,.12v0c-1,0-1.5.33-1.5.93a.72.72,0,0,0,.7.72h.06a1,1,0,0,0,.77-.37h0l0,.31h.4q0-.3,0-.6Zm-.44.69a.59.59,0,0,1,0,.14.62.62,0,0,1-.61.42.4.4,0,0,1-.43-.37v-.06c0-.48.57-.57,1.06-.56Zm1.17.84h.45v-1.5a.76.76,0,0,1,0-.21.64.64,0,0,1,.61-.46c.43,0,.58.33.58.73v1.44h.45V79.66c0-.86-.54-1.06-.88-1.06a.91.91,0,0,0-.82.46h0l0-.41h-.4c0,.2,0,.41,0,.67ZM25,77.48V79h0a.83.83,0,0,0-.75-.37,1.18,1.18,0,0,0-1.12,1.33A1.14,1.14,0,0,0,24.2,81.2a.92.92,0,0,0,.84-.49h0l0,.43h.4c0-.17,0-.42,0-.64v-3Zm0,2.61a1.23,1.23,0,0,1,0,.2.69.69,0,0,1-.67.54c-.48,0-.73-.42-.73-.92s.27-1,.74-1a.67.67,0,0,1,.66.52,1.23,1.23,0,0,1,0,.19Zm2.31,1h.45v-1.5h.42c.41,0,.6.19.7.67a4.87,4.87,0,0,0,.23.83h.46a6.37,6.37,0,0,1-.26-1,.89.89,0,0,0-.51-.7v0a.94.94,0,0,0,.38-1.55,1.51,1.51,0,0,0-1-.28,6.23,6.23,0,0,0-.86.07ZM27.77,78a2.25,2.25,0,0,1,.44,0c.48,0,.8.2.8.65s-.3.66-.78.66h-.46ZM32,79.61a.88.88,0,0,0-.95-1,1.57,1.57,0,0,0-.82.21l.1.31a1.17,1.17,0,0,1,.65-.19.52.52,0,0,1,.57.45.24.24,0,0,1,0,.12v0c-1,0-1.5.33-1.5.93a.72.72,0,0,0,.71.72h.05a1,1,0,0,0,.76-.37h0l0,.31H32q0-.3,0-.6Zm-.44.69a.59.59,0,0,1,0,.14.62.62,0,0,1-.61.42.4.4,0,0,1-.43-.37v-.06c0-.49.57-.57,1.06-.56Zm2.87-2.82V79h0a.87.87,0,0,0-.75-.38,1.19,1.19,0,0,0-1.12,1.34,1.14,1.14,0,0,0,1.07,1.27.92.92,0,0,0,.84-.49h0l0,.43h.4c0-.17,0-.42,0-.64v-3Zm0,2.61a1.23,1.23,0,0,1,0,.2.69.69,0,0,1-.67.54c-.48,0-.73-.42-.73-.92s.28-1,.74-1a.67.67,0,0,1,.66.52,1.11,1.11,0,0,1,0,.19Zm1.66,1V78.65h-.45v2.49Zm-.23-3.48a.28.28,0,0,0-.28.27v0a.26.26,0,0,0,.25.27h0a.27.27,0,0,0,.29-.25v0a.28.28,0,0,0-.26-.29Zm2,.94a1.2,1.2,0,0,0-1.24,1.19.48.48,0,0,0,0,.12,1.19,1.19,0,0,0,1.09,1.28h.1A1.23,1.23,0,0,0,39.05,80a.62.62,0,0,0,0-.13A1.16,1.16,0,0,0,38,78.6Zm0,.34c.53,0,.74.53.74,1s-.32,1-.75,1-.76-.42-.76-1S37.31,78.94,37.84,78.94Zm1.78,2.2h.45V77.48h-.45Zm2.27-2.54a1.21,1.21,0,0,0-1.24,1.19v.12a1.19,1.19,0,0,0,1.09,1.28h.11A1.23,1.23,0,0,0,43.09,80v-.13A1.18,1.18,0,0,0,42,78.6Zm0,.34c.53,0,.75.53.75,1s-.33,1-.76,1-.75-.42-.75-1,.23-1,.76-1Zm3.91.39c0-.3,0-.51,0-.68h-.4V79h0a.83.83,0,0,0-.78-.42,1.19,1.19,0,0,0-1.13,1.31,1.12,1.12,0,0,0,1.06,1.22.86.86,0,0,0,.79-.42h0V81c0,.63-.34.87-.8.87a1.26,1.26,0,0,1-.73-.2L43.7,82a1.6,1.6,0,0,0,.83.21,1.37,1.37,0,0,0,.91-.3,1.5,1.5,0,0,0,.35-1.15Zm-.45.75a.67.67,0,0,1,0,.24.65.65,0,0,1-.63.47c-.48,0-.73-.41-.73-.9s.31-.94.74-.94a.62.62,0,0,1,.63.48.69.69,0,0,1,0,.2Zm1.6,1.06V78.65h-.46v2.49Zm-.23-3.48a.28.28,0,0,0-.28.27v0a.25.25,0,0,0,.25.27h0A.26.26,0,0,0,47,78v0a.28.28,0,0,0-.26-.29Zm2.68,3a1.38,1.38,0,0,1-.56.12A.86.86,0,0,1,48,80a.28.28,0,0,1,0-.09.86.86,0,0,1,.78-.94h.1a1,1,0,0,1,.52.12l.11-.35a1.4,1.4,0,0,0-.63-.13,1.27,1.27,0,0,0-1.34,1.2v.13A1.19,1.19,0,0,0,48.6,81.2h.15a1.79,1.79,0,0,0,.72-.15Zm2.36-1.1a.88.88,0,0,0-1-1,1.63,1.63,0,0,0-.83.21l.11.31a1.15,1.15,0,0,1,.65-.19.52.52,0,0,1,.57.45v.17c-1,0-1.5.33-1.5.93a.72.72,0,0,0,.7.72h.06a1,1,0,0,0,.77-.37h0l0,.31h.4a4,4,0,0,1,0-.6Zm-.44.69a.59.59,0,0,1,0,.14.62.62,0,0,1-.61.42.4.4,0,0,1-.43-.37v-.06c0-.48.57-.57,1.06-.56Zm1.17.84h.45V77.48h-.45Zm2.32,0h.45v-1.5h.42c.41,0,.6.19.7.67a4.87,4.87,0,0,0,.23.83h.46a6.37,6.37,0,0,1-.26-1,.89.89,0,0,0-.51-.7v0a.94.94,0,0,0,.38-1.55,1.51,1.51,0,0,0-1-.28,6.36,6.36,0,0,0-.86.07ZM55.25,78a2.25,2.25,0,0,1,.44,0c.48,0,.8.2.8.65s-.3.66-.78.66h-.46Zm4.35,2a.75.75,0,0,0,0-.21,1,1,0,0,0-1-1.17,1.2,1.2,0,0,0-1.17,1.34,1.15,1.15,0,0,0,1.06,1.25h.17a2.15,2.15,0,0,0,.83-.16l-.08-.33a1.52,1.52,0,0,1-.69.13.8.8,0,0,1-.86-.73V80Zm-1.74-.33a.73.73,0,0,1,.69-.73.65.65,0,0,1,.64.65.19.19,0,0,1,0,.08Zm4.45-.32c0-.3,0-.51,0-.68h-.4V79h0a.83.83,0,0,0-.78-.42A1.19,1.19,0,0,0,60,79.91a1.12,1.12,0,0,0,1.06,1.22.85.85,0,0,0,.79-.42h0V81c0,.63-.34.87-.8.87a1.26,1.26,0,0,1-.73-.2l-.11.35a1.71,1.71,0,0,0,.83.21,1.42,1.42,0,0,0,.91-.3,1.52,1.52,0,0,0,.35-1.15Zm-.45.75a.67.67,0,0,1,0,.24.63.63,0,0,1-.63.46c-.48,0-.73-.4-.73-.89s.31-.94.74-.94a.62.62,0,0,1,.63.48.69.69,0,0,1,0,.2Zm3.29-1.43h-.46v1.52a.59.59,0,0,1,0,.23.64.64,0,0,1-.6.42c-.4,0-.55-.32-.55-.8V78.65H63v1.46c0,.86.47,1.09.86,1.09a.94.94,0,0,0,.83-.47h0l0,.41h.4c0-.2,0-.42,0-.68Zm.75,2.49h.45V77.48H65.9Zm3-1.53a.88.88,0,0,0-1-1,1.6,1.6,0,0,0-.83.21l.11.31a1.15,1.15,0,0,1,.65-.19.52.52,0,0,1,.57.45v.17c-1,0-1.5.33-1.5.93a.71.71,0,0,0,.7.72h.06a1,1,0,0,0,.76-.37h0l0,.31h.41a4,4,0,0,1,0-.6Zm-.44.69a.59.59,0,0,1,0,.14.64.64,0,0,1-.62.42.4.4,0,0,1-.42-.37v-.06c0-.48.56-.57,1.06-.56Zm1.23-2.12v.47h-.38V79h.38v1.36a1,1,0,0,0,.18.66.65.65,0,0,0,.49.19,1.39,1.39,0,0,0,.4-.06l0-.35a1.15,1.15,0,0,1-.26,0c-.26,0-.34-.17-.34-.48V79h.65v-.34h-.65v-.6Zm2.61.42A1.2,1.2,0,0,0,71,79.79a.48.48,0,0,0,0,.12,1.19,1.19,0,0,0,1.09,1.28h.11A1.23,1.23,0,0,0,73.47,80v-.13a1.18,1.18,0,0,0-1.08-1.27Zm0,.34c.53,0,.74.53.74,1s-.32,1-.75,1-.76-.42-.76-1S71.72,78.94,72.26,78.94ZM74,81.14h.45V79.81a1.49,1.49,0,0,1,0-.21.63.63,0,0,1,.6-.58h.16v-.42h-.12a.75.75,0,0,0-.7.54h0l0-.49H74c0,.23,0,.48,0,.78Zm1.6-2.49.92,2.29a.56.56,0,0,1,0,.12.36.36,0,0,1,0,.11,1.48,1.48,0,0,1-.38.51,1.41,1.41,0,0,1-.4.22l.12.37a1.2,1.2,0,0,0,.55-.28,4,4,0,0,0,.86-1.57L78,78.65h-.48L77,80.11c-.06.18-.11.37-.16.52h0c0-.15-.1-.34-.16-.51l-.54-1.47Zm6.2,2a1.85,1.85,0,0,1-.74.15,1.26,1.26,0,0,1-1.32-1.4A1.29,1.29,0,0,1,81.13,78a1.54,1.54,0,0,1,.7.14l.11-.36a1.81,1.81,0,0,0-.83-.16,1.72,1.72,0,0,0-1.81,1.63v.19A1.62,1.62,0,0,0,81,81.2a2.21,2.21,0,0,0,.92-.17Zm1.59-2.07a1.21,1.21,0,0,0-1.24,1.19v.12a1.19,1.19,0,0,0,1.09,1.28h.11A1.23,1.23,0,0,0,84.63,80v-.13a1.18,1.18,0,0,0-1.08-1.27Zm0,.34c.53,0,.74.53.74,1s-.32,1-.75,1-.75-.42-.75-1,.23-1,.76-1Zm1.78,2.2h.44v-1.5a.57.57,0,0,1,0-.22.61.61,0,0,1,.56-.45c.35,0,.52.28.52.68v1.49h.44V79.6a.93.93,0,0,1,0-.23.59.59,0,0,1,.54-.4c.36,0,.54.28.54.76v1.41h.44V79.68c0-.87-.49-1.08-.82-1.08a.84.84,0,0,0-.55.17,1.12,1.12,0,0,0-.28.33h0a.72.72,0,0,0-.7-.5.86.86,0,0,0-.79.45h0l0-.4h-.4c0,.2,0,.41,0,.67Zm4.3,0h.44v-1.5a.57.57,0,0,1,0-.22.6.6,0,0,1,.56-.45c.34,0,.52.28.52.68v1.49h.44V79.6a.91.91,0,0,1,0-.23.6.6,0,0,1,.54-.4c.36,0,.54.28.54.76v1.41h.45V79.68c0-.87-.49-1.08-.83-1.08a.81.81,0,0,0-.54.17,1,1,0,0,0-.29.33h0a.72.72,0,0,0-.7-.5.86.86,0,0,0-.79.45h0l0-.4h-.39c0,.2,0,.41,0,.67Zm4.75,0V78.65h-.46v2.49ZM94,77.66a.28.28,0,0,0-.28.27v0a.25.25,0,0,0,.25.27h0A.27.27,0,0,0,94.3,78v0a.28.28,0,0,0-.26-.29ZM94.83,81a1.3,1.3,0,0,0,.7.17c.58,0,.93-.3.93-.75s-.23-.58-.66-.74-.47-.23-.47-.43.15-.34.41-.34a.9.9,0,0,1,.51.15l.11-.33a1.16,1.16,0,0,0-.61-.16.77.77,0,0,0-.85.68.13.13,0,0,1,0,.06c0,.3.21.53.67.7s.46.24.46.45-.16.38-.48.38a1.27,1.27,0,0,1-.6-.18Zm2,0a1.3,1.3,0,0,0,.7.17c.58,0,.93-.3.93-.75s-.23-.58-.66-.74-.47-.22-.47-.43.15-.34.42-.34a.89.89,0,0,1,.5.15l.11-.33a1.05,1.05,0,0,0-.6-.15.77.77,0,0,0-.86.67.13.13,0,0,1,0,.06c0,.3.21.54.67.7s.46.24.46.46-.16.37-.48.37a1.27,1.27,0,0,1-.6-.18Zm2.66.12V78.65h-.45v2.49Zm-.23-3.48a.28.28,0,0,0-.28.27v0a.26.26,0,0,0,.26.27h0a.27.27,0,0,0,.29-.25v0a.28.28,0,0,0-.26-.29Zm2,.94a1.21,1.21,0,0,0-1.24,1.19v.12a1.19,1.19,0,0,0,1.09,1.28h.11a1.23,1.23,0,0,0,1.24-1.2v-.13a1.18,1.18,0,0,0-1.08-1.27Zm0,.34c.53,0,.75.53.75,1s-.33,1-.76,1-.75-.42-.75-1,.23-1,.76-1Zm1.78,2.2h.45v-1.5a.76.76,0,0,1,0-.21.66.66,0,0,1,.61-.46c.43,0,.58.33.58.73v1.44h.45V79.66c0-.86-.53-1.06-.88-1.06a.92.92,0,0,0-.82.46h0l0-.41h-.4c0,.2,0,.41,0,.67Z" fill="#1a9bd8"/><path id="Path_113" data-name="Path 113" d="M2.09,72.36C.57,72.36,0,71.66,0,70.55a1.88,1.88,0,0,1,2.06-2,5.15,5.15,0,0,1,1.65.28v2.69h.8v.81Zm-.75-5.22a.51.51,0,1,1-.5.51.51.51,0,0,1,.5-.51Zm1.37,2.4A1.76,1.76,0,0,0,2,69.4a.94.94,0,0,0-.93,1c0,.71.36,1.1,1.18,1.1h.5Zm-.11-2.4a.51.51,0,0,1,.07,1H2.6a.5.5,0,0,1-.51-.5h0a.5.5,0,0,1,.51-.5ZM3.93,72c0-.24.31-.4.47-.4h.92V68.68h1v2.87h.81v.81H4.4C4.24,72.36,3.93,72.2,3.93,72Zm1.27,1a.51.51,0,0,1,.47.55A.51.51,0,0,1,5.2,74a.51.51,0,0,1,0-1Zm1.25,0a.51.51,0,0,1,.47.55.51.51,0,0,1-.47.47.51.51,0,0,1-.07-1ZM7,72.36c-.16,0-.47-.16-.47-.41s.31-.4.47-.4H8.26a1.34,1.34,0,0,1-.6-1.17,1.8,1.8,0,0,1,2-1.8,4,4,0,0,1,1,.15l-.18.83a2.11,2.11,0,0,0-.82-.17.94.94,0,0,0-1,.88v.11c0,.67.54,1.17,1.78,1.17h.61v.81Zm5.06-4.74-.55-.08V66.9a10.57,10.57,0,0,1,1.59-.06v4.71h.8v.81H12.1Zm1.72,4.74c-.15,0-.46-.16-.46-.41s.31-.4.46-.4h.23a6.26,6.26,0,0,0,1.83-.24,4.08,4.08,0,0,0-1.64-1.15l.08-.73a4.21,4.21,0,0,1,2.26-.87c1.17,0,1.64.6,1.64,1.28a2,2,0,0,1-.79,1.5,1.86,1.86,0,0,0,.87.21h.4v.81h-.52a2.7,2.7,0,0,1-1.6-.49,6.32,6.32,0,0,1-2.57.49Zm2.9-1.49a1.19,1.19,0,0,0,.49-.89.66.66,0,0,0-.64-.67h-.1a2.47,2.47,0,0,0-1.19.47,6,6,0,0,1,1.44,1.08Zm1.87,1.49c-.16,0-.47-.16-.47-.41s.31-.4.47-.4h.28c.51,0,.7-.21.7-1V69.15h1V70.6c0,.7.08,1,.54,1s.64-.24.64-1V68.84h1v2c0,.62.21.75.93.75h.21c0-.32.05-.7.05-.94a9.86,9.86,0,0,0-.23-2.1l1-.14A9.89,9.89,0,0,1,25,70.54a15.87,15.87,0,0,1-.11,1.82H23.59c-.82,0-1.24-.11-1.46-.54a1.23,1.23,0,0,1-1.18.6,1,1,0,0,1-1.05-.61,1,1,0,0,1-1,.55Zm3-5.18a.51.51,0,0,1,.51.51.49.49,0,1,1-1,0,.51.51,0,0,1,.47-.47Zm.65-1a.51.51,0,1,1-.51.51.51.51,0,0,1,.51-.51Zm.64,1a.5.5,0,0,1,.51.5h0a.51.51,0,1,1-.51-.51Zm4.52,3.71a5.15,5.15,0,0,1-1,.17V67.62a5,5,0,0,0-.56-.08v-.65a10.57,10.57,0,0,1,1.59-.06Zm-1.52,3a1.44,1.44,0,0,1,.41,0,.36.36,0,0,1-.15-.3c0-.41.36-.77,1.1-.77a2.3,2.3,0,0,1,.45.05l-.1.56a1.37,1.37,0,0,0-.4,0c-.24,0-.35.09-.35.22s.14.24.51.24h.48v.55H25.87Zm.26-1.58.13-.84a4.74,4.74,0,0,0,1.29.19c.78,0,1.11-.3,1.11-1.09v-3.7h1v3.61c0,1.15-.54,2-2.22,2a6.73,6.73,0,0,1-1.35-.16Zm5-4.67-.56-.08V66.9a10.57,10.57,0,0,1,1.59-.06v5.52h-1Zm2.13,6.61.06-.84a7.11,7.11,0,0,0,1.22.13c.81,0,1.35-.31,1.35-1v-.12h-.62c-1.51,0-2.08-.7-2.08-1.81a1.88,1.88,0,0,1,2.06-2,5.09,5.09,0,0,1,1.64.28v3.52c0,1.08-.7,2-2.45,2a7.83,7.83,0,0,1-1.18-.1Zm2.63-4.69a1.71,1.71,0,0,0-.74-.14.93.93,0,0,0-.93,1c0,.71.35,1.1,1.17,1.1h.5Zm5.82,2.82c-1.52,0-2.09-.7-2.09-1.81a1.88,1.88,0,0,1,2.07-2,5.14,5.14,0,0,1,1.64.28v2.69h.8v.81Zm-.74-5.22a.51.51,0,1,1-.51.51.5.5,0,0,1,.51-.51Zm1.36,2.4a1.76,1.76,0,0,0-.75-.14.94.94,0,0,0-.93,1c0,.71.36,1.1,1.18,1.1h.5Zm-.11-2.4a.5.5,0,0,1,.54.47.49.49,0,0,1-.47.54h-.07a.5.5,0,0,1-.51-.5h0a.5.5,0,0,1,.51-.5ZM44,72.36c-.15,0-.46-.16-.46-.41s.31-.4.46-.4h.93V68.69h1v3.67Zm.26.57a.51.51,0,0,1,.47.55.51.51,0,0,1-.47.47.51.51,0,1,1-.08-1Zm1.25,0a.51.51,0,0,1,.47.55.51.51,0,0,1-1,0,.51.51,0,0,1,.47-.55ZM47,74.23l.07-.85a6.25,6.25,0,0,0,1.22.14c.81,0,1.35-.31,1.35-1v-.12h-.62c-1.52,0-2.09-.7-2.09-1.81a1.89,1.89,0,0,1,2.07-2,4.83,4.83,0,0,1,1.64.28v3.51c0,1.08-.7,2-2.45,2a9.24,9.24,0,0,1-1.18-.1Zm2.64-4.69a1.74,1.74,0,0,0-.74-.14.93.93,0,0,0-.93,1c0,.71.35,1.1,1.17,1.1h.5Zm2.1,4.69.06-.85a6.25,6.25,0,0,0,1.22.14c.81,0,1.35-.31,1.35-1v-.12h-.62c-1.51,0-2.09-.7-2.09-1.81a1.89,1.89,0,0,1,2.07-2,4.83,4.83,0,0,1,1.64.28v2.69h.81v.81H55.4v0c0,1.07-.7,2-2.45,2a9.39,9.39,0,0,1-1.18-.1Zm2.63-4.69a1.74,1.74,0,0,0-.74-.14.93.93,0,0,0-.93,1c0,.71.35,1.1,1.17,1.1h.5ZM55.62,72c0-.24.31-.4.47-.4H57V68.68h1v2.87h.81v.81H56.09c-.16,0-.47-.16-.47-.41Zm1.91-4.82a.54.54,0,1,1-.54.54h0a.54.54,0,0,1,.54-.54Zm1.2,5.23c-.15,0-.47-.16-.47-.41s.32-.4.47-.4h.93v-4.7h1v5.51Zm3.36-4.74-.56-.08V66.9a10.57,10.57,0,0,1,1.59-.06v5.52h-1Zm5.85,4.74c-1.52,0-2.09-.7-2.09-1.81a1.88,1.88,0,0,1,2.06-2,4.79,4.79,0,0,1,1.64.28v2.69h.81v.81Zm-.75-5.22a.51.51,0,0,1,.51.51.51.51,0,0,1-1,0,.52.52,0,0,1,.51-.51Zm1.36,2.4a1.68,1.68,0,0,0-.74-.14.93.93,0,0,0-.93,1c0,.71.35,1.1,1.17,1.1h.5Zm-.11-2.4a.5.5,0,0,1,.51.51.51.51,0,0,1-.51.51.51.51,0,0,1-.51-.51.52.52,0,0,1,.51-.51Zm1.8,5.22c-.15,0-.47-.16-.47-.41s.32-.4.47-.4h.93V68.68h1v3.68Zm1.39.52a.54.54,0,1,1-.53.53h0a.52.52,0,0,1,.51-.53h0Zm2-5.26L73,67.54V66.9a10.57,10.57,0,0,1,1.59-.06v4.71h.81v.81H73.6Zm1.72,4.74c-.16,0-.47-.16-.47-.41s.31-.4.47-.4h.6a1.32,1.32,0,0,1,.44,0,1.27,1.27,0,0,1-.44-1.12,1.87,1.87,0,0,1,2-1.9,1.61,1.61,0,0,1,1.77,1.8v2Zm1.91-5.22a.5.5,0,0,1,.5.51.51.51,0,1,1-1,0,.51.51,0,0,1,.51-.51Zm1.48,3.37c0-.79-.31-1.11-.84-1.11a.94.94,0,0,0-.93,1c0,.74.36,1.1,1.18,1.1h.59Zm-.23-3.37a.51.51,0,1,1,.07,1h-.07a.5.5,0,0,1-.51-.5h0a.5.5,0,0,1,.51-.5Zm1.15,7.13.08-.82a2.18,2.18,0,0,0,.63.09c.53,0,.84-.25.84-1.09V68.68h1v2.87H83v.81h-.8v0a1.71,1.71,0,0,1-1.93,2,2.84,2.84,0,0,1-.66-.08Zm3.27-1.91c-.15,0-.47-.16-.47-.41s.32-.4.47-.4h.93v-4.7h1v5.51Zm3.36-4.74-.56-.08V66.9a10.57,10.57,0,0,1,1.59-.06v5.52h-1Zm5.85,4.74c-1.52,0-2.09-.7-2.09-1.81a1.88,1.88,0,0,1,2.06-2,5.15,5.15,0,0,1,1.65.28v2.69h.8v.81Zm-.74-5.22a.51.51,0,1,1,0,1,.51.51,0,0,1,0-1Zm1.36,2.4A1.76,1.76,0,0,0,92,69.4a.94.94,0,0,0-.93,1c0,.71.36,1.1,1.18,1.1h.5Zm-.11-2.4a.5.5,0,0,1,.47.54.51.51,0,0,1-.47.47.5.5,0,0,1-.51-.5h0a.5.5,0,0,1,.51-.5ZM94,72c0-.24.31-.4.47-.4h.92V68.69h1v2.86h.8v.81H94.41c-.15,0-.46-.16-.46-.41Zm.78-4.2a3.75,3.75,0,0,1,.47,0,.4.4,0,0,1-.2-.34c0-.39.33-.81,1.15-.81a3.41,3.41,0,0,1,.46,0l-.1.55a2,2,0,0,0-.42,0c-.27,0-.38.12-.38.27s.12.28.56.28h.48v.57h-2ZM96.59,72c0-.24.31-.4.47-.4H98V68.69h1v2.86h.81v.81H97.06c-.16,0-.47-.16-.47-.41Zm1.27,1a.51.51,0,0,1,.47.55.5.5,0,0,1-.47.47.51.51,0,0,1,0-1Zm1.25,0a.51.51,0,1,1-.47.47A.51.51,0,0,1,99.11,72.93Zm.59-.57c-.15,0-.47-.16-.47-.41s.32-.4.47-.4h.68a1.47,1.47,0,0,1,.36,0,.81.81,0,0,1-.19-.56,1.32,1.32,0,0,1,1.5-1.31c1,0,1.44.76,1.44,1.65v.18h.78v-.1c0-1.62-.66-2.34-2.21-2.34a5.94,5.94,0,0,0-1.67.31l-.1-.81a6.74,6.74,0,0,1,1.9-.3c2,0,3.06.93,3.06,3.21v.84Zm2.94-1c0-.6-.21-.92-.67-.92a.51.51,0,0,0-.58.45.22.22,0,0,0,0,.08c0,.44.35.62.75.62h.51Z" fill="#ce9f51"/></g></g></g></svg>