<svg xmlns="http://www.w3.org/2000/svg" viewBox="0 0 57.97 62.97"><g id="Layer_2" data-name="Layer 2"><g id="nrrclogo-plain"><g id="Logo"><g id="Group_12" data-name="Group 12"><path id="Path_97" data-name="Path 97" d="M29.51,0C22.13,0,16.15,14.1,16.15,31.48S22.13,63,29.51,63s13.36-14.1,13.36-31.49S36.89,0,29.51,0m.42,61.65c-6.81,0-12.33-13.24-12.33-29.57S23.12,2.5,29.93,2.5,42.26,15.74,42.26,32.08,36.74,61.65,29.93,61.65" fill="#136f40"/><path id="Path_98" data-name="Path 98" d="M.87,15.51C-3,22.1,6.45,34.83,22,43.94S53.24,55.1,57.1,48.51,51.51,29.2,36,20.08,4.73,8.92.87,15.51M56.14,47.45C52.57,53.53,37.86,51.52,23.27,43S-.25,22.53,3.32,16.45s18.29-4.07,32.87,4.49,23.52,20.43,20,26.51" fill="#ca9f45"/><path id="Path_99" data-name="Path 99" d="M42.53,24.39l-.76-.55.09.79.74.53c0-.26-.05-.52-.07-.77" fill="#136f40"/><path id="Path_100" data-name="Path 100" d="M42.53,24.39l-.76-.55.09.79.74.53c0-.26-.05-.52-.07-.77" fill="#136f40"/><path id="Path_101" data-name="Path 101" d="M18.76,12.81q-.15.45-.27.9l1.65.39c.09-.28.19-.56.28-.84l-1.66-.45" fill="#136f40"/><path id="Path_102" data-name="Path 102" d="M18.76,12.81q-.15.45-.27.9l1.65.39c.09-.28.19-.56.28-.84l-1.66-.45" fill="#136f40"/><path id="Path_103" data-name="Path 103" d="M22,20.08C6.45,29.2-3,41.92.87,48.51S20.46,53.05,36,43.94,61,22.1,57.1,15.51,37.51,11,22,20.08m-.21.86c14.59-8.56,29.31-10.57,32.88-4.49S49.28,34.4,34.7,43,5.39,53.53,1.82,47.45s5.37-18,20-26.51" fill="#1a9bd8"/><path id="Path_104" data-name="Path 104" d="M8.06,30.72c-.42.43-.83.86-1.22,1.29q.18.21.39.42c.38-.43.79-.86,1.21-1.28l-.38-.43M29,16.44l-.88.41.88.38.88-.38L29,16.44" fill="#a0862a"/><path id="Path_105" data-name="Path 105" d="M8.06,30.72c-.42.43-.83.86-1.22,1.29q.18.21.39.42c.38-.43.79-.86,1.21-1.28l-.38-.43M29,16.44l-.88.41.88.38.88-.38L29,16.44" fill="#a0862a"/><path id="Path_106" data-name="Path 106" d="M40.19,12.58l-.91.22c.1.29.21.59.3.89l.9-.18c-.09-.31-.19-.62-.29-.93m-23.61,11c0,.25-.06.52-.08.78.54-.39,1.1-.77,1.67-1.15,0-.27.07-.53.11-.8-.58.39-1.15.78-1.7,1.17" fill="#136f40"/><path id="Path_107" data-name="Path 107" d="M24.28,8.25A3.3,3.3,0,1,1,21,5h0a3.3,3.3,0,0,1,3.3,3.29" fill="#136f40"/><path id="Path_108" data-name="Path 108" d="M16.15,50.94a3.29,3.29,0,1,1-3.29-3.3h0a3.29,3.29,0,0,1,3.29,3.3" fill="#1a9bd8"/><path id="Path_109" data-name="Path 109" d="M57.17,36.94a3.3,3.3,0,1,1-3.3-3.29h0a3.29,3.29,0,0,1,3.3,3.29" fill="#ca9f45"/><path id="Path_110" data-name="Path 110" d="M23.71,33.92a8,8,0,0,1,6.08,1.5c.29.22.29.22.6,0a7.69,7.69,0,0,1,5.73-1.52l.25,0,.07,0-.92.09a9.08,9.08,0,0,0-4.05,1.36,8,8,0,0,0-.81.63c-.11.09-.1.16,0,.25.35.31.69.63,1,1,.11.1.17.08.21,0a2.39,2.39,0,0,1,.15-.37.62.62,0,0,1,.78-.28.45.45,0,0,1,.24.53.43.43,0,0,1-.46.33.86.86,0,0,1-.23,0c-.07,0-.13-.09-.19,0a.2.2,0,0,0,0,.23,1,1,0,0,0,.55.39c.08,0,.12-.05.17-.08a.5.5,0,0,1,.56,0,.45.45,0,0,1,.19.47.41.41,0,0,1-.32.31,1.34,1.34,0,0,1-1-.2c-.16-.09-.31-.28-.48-.3s-.25.23-.4.33a.77.77,0,0,1-1,0,.44.44,0,0,1,0-.63l0,0a.48.48,0,0,1,.68,0,.17.17,0,0,1,.07.14c0,.05,0,.13.08.13a.21.21,0,0,0,.17-.09.12.12,0,0,0,0-.16,2.88,2.88,0,0,0-.3-.39c-.3-.29-.64-.52-.95-.79,0,0-.07-.05-.11,0a8.39,8.39,0,0,0-1.24,1.14c-.07.1-.1.18,0,.26s.18.07.23-.07a.38.38,0,0,1,.46-.27.47.47,0,0,1,.4.41.45.45,0,0,1-.27.48.89.89,0,0,1-.91-.17.46.46,0,0,1-.16-.15c-.12-.22-.25-.14-.4,0A1.78,1.78,0,0,1,27,38.7a.44.44,0,0,1-.46-.41.31.31,0,0,1,0-.1.44.44,0,0,1,.47-.41.45.45,0,0,1,.25.09.28.28,0,0,0,.36,0,1.39,1.39,0,0,0,.31-.23.25.25,0,0,0,.06-.31c-.08-.13-.18,0-.26,0a.42.42,0,0,1-.51-.08.46.46,0,0,1-.1-.52.42.42,0,0,1,.45-.27.7.7,0,0,1,.61.46c0,.09.07.19.1.28s.09.1.16,0l1.11-1c.11-.1,0-.15,0-.2A7,7,0,0,0,28,35a10.15,10.15,0,0,0-4.08-1h-.12l-.06,0" fill="#136f40"/><path id="Path_111" data-name="Path 111" d="M29.11,29.6c-.05-.11,0-.19.08-.27s.16-.12,0-.15c0,0,0,0,0,0s.07-.22.15-.28,0-.21,0-.35c-.19.24-.41.42-.45.72a.12.12,0,0,1,0,.07c-.17.08-.08.19,0,.3s.14.24-.1.19c-.05,0-.06.05-.06.09a.55.55,0,0,0,0,.22c0,.11-.09.08-.12.11s-.05-.05-.07-.08a1.43,1.43,0,0,1,.36-1.45l.25-.26s.06-.07,0-.1a.08.08,0,0,0-.11,0,4.08,4.08,0,0,0-.55.55c-.15.22-.22.5-.44.67l-.09.08c0-.06-.06-.07-.06-.13a1.2,1.2,0,0,1,.08-.53,1.54,1.54,0,0,1,.78-.81.74.74,0,0,0,.33-.22,1.91,1.91,0,0,0-.63,0,.9.9,0,0,0-.48.4.58.58,0,0,1,.37-.65,1.47,1.47,0,0,1,1.05-.09s.07,0,.08,0a.14.14,0,0,0,0-.09c0-.1-.13-.11-.2-.15a.62.62,0,0,0-.7.05.2.2,0,0,1,.1-.25.85.85,0,0,1,1.16.13c.08.09.11.05.13,0s.18-.31.19-.5a3,3,0,0,0,.19.5c0,.08.05.12.13,0a.83.83,0,0,1,1-.24.36.36,0,0,1,.27.34.63.63,0,0,0-.89.18.21.21,0,0,0,0,.06,1.81,1.81,0,0,1,1.08,0,.61.61,0,0,1,.46.7.94.94,0,0,0-.47-.41,1.85,1.85,0,0,0-.62,0,.54.54,0,0,0,.3.24,1.42,1.42,0,0,1,.83,1,.63.63,0,0,1,0,.45,1.47,1.47,0,0,1-.41-.51,2.12,2.12,0,0,0-.71-.81s-.06,0-.08,0,0,.07,0,.11.2.23.31.33a1.27,1.27,0,0,1,.29,1.36s0,.1-.06.08-.12,0-.12-.1a.69.69,0,0,0,0-.2s0-.08,0-.08c-.27,0-.1-.16-.09-.24s.05-.19-.07-.26,0-.14-.06-.2-.22-.33-.32-.49-.11.08-.18,0h-.05s0,0,0,.05.22.16.16.33.13.1.14.21-.1-.07-.16,0,.1.11.12.18.14.11,0,.11,0,.08,0,.11.12.31,0,.46a.22.22,0,0,0,0,.19c0,.08,0,.08-.09.11s0,.05,0,.08,0,.14,0,.2l0,0c0-.19-.12-.36,0-.55s.05-.15,0-.15,0-.18-.21-.07a.25.25,0,0,0-.14.25,15.9,15.9,0,0,0,0,2.76c0,.32-.08.66.1,1-.14.37.09.65.26,1H29.45l.16-.28a.68.68,0,0,0,.11-.57.2.2,0,0,1,0-.17.88.88,0,0,0,.05-.43c0-.37.08-.73.09-1.1,0-.74,0-1.48,0-2.22,0-.07,0-.16-.1-.14s-.07-.09-.11-.12-.21.2-.13.4a.75.75,0,0,1-.09.47c-.07-.09,0-.19-.06-.26s0-.08-.06-.05,0,.05-.05.08c.06-.29-.23-.54-.08-.83,0,0,.1-.09,0-.12s-.08,0-.09.08m3.09-.07s0,0,0,0,0,0,0,0,0,0,0-.05,0,0,0,0M30.79,29l0,0s0,0,0,0,0,0,0,0l0,0" fill="#136f40"/><path id="Path_112" data-name="Path 112" d="M30.07,43.1a.39.39,0,0,1-.18,0A14,14,0,0,1,21,33.1a18.6,18.6,0,0,1-.5-6.77.52.52,0,0,1,.32-.41l9.1-3.53a.5.5,0,0,1,.38,0l9.1,3.53a.53.53,0,0,1,.33.41,19,19,0,0,1-.5,6.77,14,14,0,0,1-8.94,10,.37.37,0,0,1-.18,0M21.45,26.77A18.49,18.49,0,0,0,22,32.88,12.81,12.81,0,0,0,30.07,42a12.83,12.83,0,0,0,8.12-9.19,18.79,18.79,0,0,0,.51-6.07l-8.63-3.35Z" fill="#136f40"/></g></g></g></g></svg>