<svg xmlns="http://www.w3.org/2000/svg" viewBox="0 0 317.51 255.62"><g id="Layer_2" data-name="Layer 2"><g id="nrrclogo"><g id="Logo"><g id="Group_12" data-name="Group 12"><path id="Path_97" data-name="Path 97" d="M160.35,0c-21.92,0-39.68,41.87-39.68,93.52S138.43,187,160.35,187,200,145.16,200,93.52,182.26,0,160.35,0m1.24,183.12c-20.22,0-36.62-39.32-36.62-87.84s16.4-87.84,36.62-87.84S198.2,46.76,198.2,95.28s-16.39,87.84-36.61,87.84" fill="#fff"/><path id="Path_98" data-name="Path 98" d="M75.27,46.07C63.79,65.63,91.87,103.45,138,130.51s92.83,33.16,104.31,13.59-16.6-57.38-62.73-84.45S86.76,26.49,75.27,46.07m164.19,94.87C228.85,159,185.14,153,141.82,127.6S72,66.91,82.56,48.85s54.32-12.09,97.64,13.34,69.87,60.68,59.27,78.75" fill="#fff"/><path id="Path_99" data-name="Path 99" d="M199,72.43c-.73-.55-1.48-1.08-2.24-1.63.09.78.19,1.56.27,2.34l2.19,1.6c-.06-.77-.13-1.55-.22-2.31" fill="#fff"/><path id="Path_100" data-name="Path 100" d="M199,72.43c-.73-.55-1.48-1.08-2.24-1.63.09.78.19,1.56.27,2.34l2.19,1.6c-.06-.77-.13-1.55-.22-2.31" fill="#fff"/><path id="Path_101" data-name="Path 101" d="M128.41,38.06q-.42,1.32-.81,2.67,2.42.51,4.92,1.16c.27-.85.55-1.68.83-2.5-1.68-.49-3.32-.91-4.95-1.33" fill="#fff"/><path id="Path_102" data-name="Path 102" d="M128.41,38.06q-.42,1.32-.81,2.67,2.42.51,4.92,1.16c.27-.85.55-1.68.83-2.5-1.68-.49-3.32-.91-4.95-1.33" fill="#fff"/><path id="Path_103" data-name="Path 103" d="M138,59.65C91.87,86.72,63.79,124.53,75.28,144.1s58.18,13.48,104.31-13.59,74.2-64.88,62.72-84.44S184.13,32.58,138,59.65m-.62,2.54c43.33-25.43,87-31.4,97.64-13.34s-15.91,53.31-59.26,78.75-87,31.4-97.64,13.34S94,87.62,137.38,62.19" fill="#fff"/><path id="Path_104" data-name="Path 104" d="M96.64,91.24c-1.26,1.28-2.48,2.56-3.63,3.84.37.42.76.83,1.15,1.24q1.73-1.91,3.61-3.81c-.39-.45-.75-.84-1.11-1.27m62.13-42.41L156.18,50l2.61,1.14c.87-.39,1.74-.78,2.61-1.14l-2.61-1.2" fill="#fff"/><path id="Path_105" data-name="Path 105" d="M96.64,91.24c-1.26,1.28-2.48,2.56-3.63,3.84.37.42.76.83,1.15,1.24q1.73-1.91,3.61-3.81c-.39-.45-.75-.84-1.11-1.27m62.13-42.41L156.18,50l2.61,1.14c.87-.39,1.74-.78,2.61-1.14l-2.61-1.2" fill="#fff"/><path id="Path_106" data-name="Path 106" d="M192.07,37.37c-.91.19-1.82.41-2.72.65.3.87.61,1.75.9,2.65.91-.19,1.79-.37,2.66-.53-.27-.93-.55-1.85-.85-2.76M121.92,70c-.07.77-.15,1.54-.23,2.31,1.61-1.14,3.27-2.28,5-3.4.1-.8.22-1.59.32-2.37q-2.58,1.71-5,3.46" fill="#fff"/><path id="Path_107" data-name="Path 107" d="M144.81,24.52A9.78,9.78,0,1,1,135,14.74h0a9.78,9.78,0,0,1,9.79,9.78h0" fill="#fff"/><path id="Path_108" data-name="Path 108" d="M120.67,151.3a9.79,9.79,0,1,1-9.8-9.78h0a9.78,9.78,0,0,1,9.78,9.78h0" fill="#fff"/><path id="Path_109" data-name="Path 109" d="M242.49,109.73a9.78,9.78,0,1,1-9.78-9.78h0a9.78,9.78,0,0,1,9.78,9.78h0" fill="#fff"/><path id="Path_110" data-name="Path 110" d="M143.11,100.74a23.74,23.74,0,0,1,18.07,4.47c.87.65.87.63,1.77,0a22.94,22.94,0,0,1,17-4.52l.76.09.19.08-2.73.26a27,27,0,0,0-12,4,23.26,23.26,0,0,0-2.42,1.87c-.33.29-.29.46,0,.74q1.55,1.41,3.06,2.85c.33.3.49.24.62-.15a7.52,7.52,0,0,1,.46-1.1,1.85,1.85,0,0,1,2.33-.82,1.36,1.36,0,0,1,.71,1.59,1.31,1.31,0,0,1-1.36,1,5.42,5.42,0,0,1-.7-.14c-.19,0-.37-.29-.56,0a.57.57,0,0,0-.05.66,2.94,2.94,0,0,0,1.64,1.19c.23.08.34-.15.5-.26a1.44,1.44,0,0,1,1.66,0,1.26,1.26,0,0,1,.56,1.36,1.2,1.2,0,0,1-1,.94,4,4,0,0,1-3.1-.6c-.49-.29-.91-.85-1.42-.91s-.76.68-1.21,1a2.3,2.3,0,0,1-2.93.12,1.33,1.33,0,0,1-.14-1.88h0l.07-.07a1.44,1.44,0,0,1,2-.1.73.73,0,0,1,.21.42c0,.16,0,.39.22.41a.67.67,0,0,0,.51-.26.36.36,0,0,0,0-.49,6.38,6.38,0,0,0-.91-1.16c-.87-.87-1.88-1.55-2.79-2.36-.12-.1-.22-.15-.36,0a24,24,0,0,0-3.66,3.4c-.2.27-.32.52,0,.75s.53.23.69-.19a1.14,1.14,0,0,1,1.36-.82,1.41,1.41,0,0,1,1.19,1.22,1.3,1.3,0,0,1-.82,1.42,2.61,2.61,0,0,1-2.7-.49,1.68,1.68,0,0,1-.46-.46c-.36-.67-.72-.45-1.18-.09a5.46,5.46,0,0,1-3.52,1.32,1.31,1.31,0,0,1-1.36-1.24h0a1.22,1.22,0,0,1,0-.27,1.33,1.33,0,0,1,1.4-1.25,1.31,1.31,0,0,1,.75.3.81.81,0,0,0,1.05.07,3.09,3.09,0,0,0,.95-.69.71.71,0,0,0,.16-.91c-.24-.39-.52-.11-.77,0a1.26,1.26,0,0,1-1.52-.25,1.34,1.34,0,0,1-.27-1.53,1.21,1.21,0,0,1,1.31-.81,2.11,2.11,0,0,1,1.82,1.36l.29.84c.1.27.27.3.48.1l3.29-3c.32-.3,0-.46-.14-.6a20.51,20.51,0,0,0-4.48-3.08,30.45,30.45,0,0,0-12.1-3,2.19,2.19,0,0,1-.36,0l-.2-.1" fill="#fff"/><path id="Path_111" data-name="Path 111" d="M159.16,87.92c-.15-.32.05-.55.22-.8s.48-.35,0-.45c-.07,0-.1-.1-.07-.12.4-.16.22-.63.46-.83s.14-.62,0-1c-.57.7-1.22,1.24-1.32,2.15,0,.07,0,.18-.08.2-.51.24-.24.56-.13.91s.41.71-.31.57c-.15,0-.17.14-.18.25a1.82,1.82,0,0,0-.06.65c.07.34-.25.24-.36.33s-.16-.14-.19-.25a4.21,4.21,0,0,1,1.06-4.3c.24-.25.49-.5.73-.77.07-.08.17-.18.05-.29a.22.22,0,0,0-.32,0A12.1,12.1,0,0,0,157,85.78c-.45.65-.62,1.47-1.3,2a1.88,1.88,0,0,0-.25.24c0-.16-.2-.22-.2-.4a3.78,3.78,0,0,1,.24-1.56,4.68,4.68,0,0,1,2.34-2.4,2.24,2.24,0,0,0,.95-.66,5,5,0,0,0-1.84.07,2.67,2.67,0,0,0-1.43,1.17,1.71,1.71,0,0,1,1.1-1.93,4.37,4.37,0,0,1,3.1-.25c.09,0,.22.07.25,0a.42.42,0,0,0,0-.27c-.1-.28-.39-.31-.59-.46a1.88,1.88,0,0,0-2.1.16.62.62,0,0,1,.3-.74,2.52,2.52,0,0,1,3.46.38c.23.26.33.14.39-.09.14-.5.53-.91.55-1.5a8.71,8.71,0,0,0,.56,1.5c.08.23.17.35.38.08a2.47,2.47,0,0,1,2.94-.7,1.06,1.06,0,0,1,.82,1,1.92,1.92,0,0,0-2.66.53,1,1,0,0,0-.1.17,5.31,5.31,0,0,1,3.18.14,1.82,1.82,0,0,1,1.37,2.08A2.8,2.8,0,0,0,167,83.05a5.06,5.06,0,0,0-1.82-.12,1.59,1.59,0,0,0,.91.7,4.29,4.29,0,0,1,2.47,3.05,2,2,0,0,1,0,1.37,4.28,4.28,0,0,1-1.22-1.52,6.54,6.54,0,0,0-2.1-2.42c-.07-.06-.18-.13-.26,0s0,.22.05.31c.3.34.59.69.91,1a3.88,3.88,0,0,1,.86,4c0,.1-.05.3-.18.23s-.37,0-.36-.31a2.89,2.89,0,0,0-.08-.58c0-.09-.07-.26-.1-.26-.81,0-.3-.45-.27-.71s.15-.55-.22-.75c-.19-.11-.07-.46-.17-.6-.3-.5-.65-1-1-1.46s-.32.25-.51.07h-.16s0,.09.05.14c.24.29.65.45.45,1-.06.19.39.29.46.6-.16.13-.29-.21-.46,0,0,.22.29.33.35.54s.42.35-.1.35c-.2,0-.06.22,0,.33.19.45.37.91,0,1.36a.66.66,0,0,0-.08.56c0,.22,0,.22-.27.31s-.11.15-.14.24.06.45-.12.61l-.13.07c-.06-.57-.36-1.08-.09-1.66.07-.14.16-.45-.07-.45s-.14-.53-.64-.22a.75.75,0,0,0-.45.75,48.57,48.57,0,0,0,.12,8.18c.11,1-.23,2,.31,2.87-.45,1.11.26,2,.76,2.89h-3.53c.18-.3.32-.56.46-.82a2,2,0,0,0,.32-1.68.63.63,0,0,1,0-.52,2.4,2.4,0,0,0,.17-1.27c0-1.1.23-2.16.25-3.27,0-2.21.06-4.41-.05-6.61,0-.19.06-.45-.3-.42s-.19-.25-.33-.35c-.36.33-.62.62-.38,1.21a2.27,2.27,0,0,1-.25,1.4c-.22-.28-.1-.56-.19-.79,0-.07,0-.23-.18-.13s-.05.13-.13.21c.16-.85-.69-1.58-.24-2.46.07-.12.3-.24.13-.36s-.23.1-.27.25m9.2-.2a.36.36,0,0,0,0,.11s0,.06,0,.09a.83.83,0,0,0,.07-.13l-.07-.07m-4.25-1.56a.2.2,0,0,0,.09.06c.09,0,.09,0,.07-.08s-.06,0-.09,0,0,0-.07.06" fill="#fff"/><path id="Path_112" data-name="Path 112" d="M162,128a1.47,1.47,0,0,1-.54-.1,41.56,41.56,0,0,1-26.53-29.58,56.1,56.1,0,0,1-1.49-20.11,1.55,1.55,0,0,1,1-1.22l27-10.49a1.49,1.49,0,0,1,1.1,0L189.6,77a1.55,1.55,0,0,1,1,1.22,56.1,56.1,0,0,1-1.49,20.11,41.58,41.58,0,0,1-26.53,29.58,1.47,1.47,0,0,1-.54.1m-25.6-48.49a55,55,0,0,0,1.53,18.12A38,38,0,0,0,162,124.82a38,38,0,0,0,24.09-27.27,55,55,0,0,0,1.52-18L162,69.58Z" fill="#fff"/></g><path id="Path_2942" data-name="Path 2942" d="M1.91,252.22v-4.48c0-1.74,0-3-.09-4.32h0a30.57,30.57,0,0,0,1.94,3.5l3.32,5.31H8.49V241.78H7.21v4.38c0,1.63,0,2.9.16,4.3h0a28,28,0,0,0-1.86-3.4l-3.34-5.3H.63v10.45Zm15.2-7.52H15.74v4.6a1.88,1.88,0,0,1-.12.7,2,2,0,0,1-1.82,1.26c-1.23,0-1.68-1-1.68-2.41V244.7H10.76v4.4c0,2.62,1.41,3.29,2.6,3.29a2.79,2.79,0,0,0,2.48-1.4h0l.08,1.23h1.21c-.05-.59-.07-1.27-.07-2.07Zm7.4,6.23a3.91,3.91,0,0,1-1.68.36,2.57,2.57,0,0,1-2.62-2.53h0a1.31,1.31,0,0,1,0-.28,2.6,2.6,0,0,1,2.36-2.84h.29a3.38,3.38,0,0,1,1.59.37l.31-1a4.41,4.41,0,0,0-1.9-.4,3.84,3.84,0,0,0-4,3.62v.41a3.57,3.57,0,0,0,3.3,3.82h.46a5.2,5.2,0,0,0,2.16-.45Zm1.81,1.29h1.37v-11H26.32ZM36,248.71a3.39,3.39,0,0,0,0-.64,3.19,3.19,0,0,0-2.81-3.51H33a3.64,3.64,0,0,0-3.55,3.72c0,.1,0,.21,0,.32a3.51,3.51,0,0,0,3.18,3.8,4.34,4.34,0,0,0,.51,0,6.22,6.22,0,0,0,2.52-.49l-.25-1a5,5,0,0,1-2.08.39,2.4,2.4,0,0,1-2.58-2.2h0a2.67,2.67,0,0,1,0-.4Zm-5.27-1a2.24,2.24,0,0,1,2.09-2.21,1.94,1.94,0,0,1,1.92,2,1,1,0,0,1,0,.24ZM43,247.61c0-1.5-.56-3.07-2.86-3.07a4.8,4.8,0,0,0-2.48.66l.31.91a3.56,3.56,0,0,1,2-.56,1.55,1.55,0,0,1,1.71,1.34,2.41,2.41,0,0,1,0,.38v.15c-2.91,0-4.53,1-4.53,2.8a2.15,2.15,0,0,0,2.12,2.17h.18a2.81,2.81,0,0,0,2.3-1.12h0l.11.95h1.23a12.27,12.27,0,0,1-.1-1.82Zm-1.32,2.07a1.43,1.43,0,0,1-.07.46,1.88,1.88,0,0,1-1.85,1.26,1.2,1.2,0,0,1-1.27-1.11h0v-.18c0-1.47,1.7-1.73,3.18-1.7Zm3.53,2.53h1.36v-4a4.58,4.58,0,0,1,0-.64,1.91,1.91,0,0,1,1.82-1.74,1.78,1.78,0,0,1,.46,0v-1.29a2.43,2.43,0,0,0-.38,0,2.26,2.26,0,0,0-2.1,1.65h0l-.06-1.49h-1.2c.05.7.06,1.46.06,2.35ZM58.9,247.6c0-1.49-.56-3.06-2.85-3.06a4.9,4.9,0,0,0-2.49.65l.31.91a3.64,3.64,0,0,1,2-.56,1.54,1.54,0,0,1,1.71,1.34,2.41,2.41,0,0,1,0,.38v.16c-2.91,0-4.52,1-4.52,2.8a2.13,2.13,0,0,0,2.11,2.16h.23a2.82,2.82,0,0,0,2.3-1.12h0l.11,1h1.23A13.74,13.74,0,0,1,59,250.4Zm-1.32,2.08a1.68,1.68,0,0,1-.06.45,1.91,1.91,0,0,1-1.85,1.27,1.2,1.2,0,0,1-1.27-1.12.6.6,0,0,1,0-.19c0-1.46,1.69-1.73,3.18-1.69Zm3.53,2.53h1.36v-4.52a2,2,0,0,1,1.92-2c1.3,0,1.75,1,1.75,2.22v4.33H67.5v-4.47c0-2.58-1.61-3.18-2.66-3.18a2.78,2.78,0,0,0-2.49,1.4h0l-.08-1.25H61c.05.63.06,1.25.06,2Zm13.75-11v4.49h0a2.54,2.54,0,0,0-2.27-1.13,3.6,3.6,0,0,0-3.4,3.78l0,.25a3.44,3.44,0,0,0,3,3.81h.2A2.73,2.73,0,0,0,75,250.91h0l.07,1.3h1.21c0-.51-.07-1.27-.07-1.94v-9.09Zm0,7.89a2,2,0,0,1-.06.59,2.06,2.06,0,0,1-2,1.62c-1.46,0-2.22-1.26-2.22-2.78s.84-2.89,2.27-2.89a2,2,0,0,1,2,1.57,2.86,2.86,0,0,1,.06.58Zm7,3.15h1.37v-4.55h1.28c1.22.05,1.81.6,2.11,2a12.85,12.85,0,0,0,.68,2.5h1.4a15.9,15.9,0,0,1-.81-2.87,2.61,2.61,0,0,0-1.53-2.11v-.05a2.72,2.72,0,0,0,2-2.66,2.65,2.65,0,0,0-.82-2,4.34,4.34,0,0,0-3-.86,16.2,16.2,0,0,0-2.6.22Zm1.37-9.39a6.64,6.64,0,0,1,1.33-.11c1.43,0,2.41.6,2.41,1.95,0,1.19-.91,2-2.36,2H83.23Zm12.6,4.78c0-1.49-.56-3.07-2.86-3.07a4.8,4.8,0,0,0-2.48.66l.31.91a3.56,3.56,0,0,1,2-.56,1.55,1.55,0,0,1,1.71,1.34,2.41,2.41,0,0,1,0,.38v.15c-2.91,0-4.53,1-4.53,2.8a2.14,2.14,0,0,0,2.12,2.17h.18a2.81,2.81,0,0,0,2.3-1.12h0l.11,1h1.23a13.79,13.79,0,0,1-.11-1.82Zm-1.32,2.07a1.76,1.76,0,0,1-.06.46,1.9,1.9,0,0,1-1.85,1.26,1.2,1.2,0,0,1-1.28-1.11h0a.6.6,0,0,1,0-.19c0-1.46,1.69-1.72,3.18-1.69Zm8.64-8.5v4.49h0a2.52,2.52,0,0,0-2.27-1.13,3.59,3.59,0,0,0-3.4,3.78c0,.08,0,.17,0,.25a3.45,3.45,0,0,0,3,3.8l.2,0a2.75,2.75,0,0,0,2.53-1.48h0l.07,1.31h1.21c0-.51-.07-1.28-.07-2v-9.09Zm0,7.89a2.44,2.44,0,0,1-.07.59,2.07,2.07,0,0,1-2,1.62c-1.46,0-2.23-1.26-2.23-2.78s.84-2.89,2.28-2.89a2,2,0,0,1,2,1.56,2.3,2.3,0,0,1,.07.58Zm5,3.15v-7.52h-1.37v7.52Zm-.69-10.49a.84.84,0,0,0-.86.81h0v.05a.81.81,0,0,0,.77.84h.06a.83.83,0,0,0,.87-.76v-.08a.83.83,0,0,0-.79-.86h0Zm6.14,2.82a3.68,3.68,0,0,0-3.75,3.61v.36a3.59,3.59,0,0,0,3.3,3.86h.31a3.68,3.68,0,0,0,3.76-3.6,2.55,2.55,0,0,0,0-.39,3.54,3.54,0,0,0-3.24-3.84h-.36Zm0,1c1.62,0,2.28,1.6,2.28,2.88,0,1.69-1,2.92-2.28,2.92s-2.27-1.24-2.27-2.9c0-1.4.73-2.89,2.32-2.89Zm5.38,6.65h1.36v-11h-1.36Zm6.85-7.67a3.68,3.68,0,0,0-3.74,3.61v.36a3.59,3.59,0,0,0,3.29,3.86h.32a3.67,3.67,0,0,0,3.76-3.6h0a2.41,2.41,0,0,0,0-.38,3.55,3.55,0,0,0-3.24-3.84h-.39Zm0,1c1.62,0,2.28,1.6,2.28,2.88,0,1.69-1,2.92-2.28,2.92s-2.27-1.24-2.27-2.9c0-1.4.7-2.9,2.3-2.9Zm11.82,1.18a19.36,19.36,0,0,1,.06-2.05h-1.2l0,1.14h0a2.51,2.51,0,0,0-2.35-1.29,3.58,3.58,0,0,0-3.42,3.76c0,.07,0,.14,0,.21a3.36,3.36,0,0,0,3,3.66h.15a2.65,2.65,0,0,0,2.39-1.26h0v.83c0,1.91-1,2.65-2.42,2.65a4.09,4.09,0,0,1-2.21-.61l-.34,1.06a4.84,4.84,0,0,0,2.5.62,4.12,4.12,0,0,0,2.75-.91,4.42,4.42,0,0,0,1.07-3.45ZM136.2,249a2.65,2.65,0,0,1-.11.74,2,2,0,0,1-1.9,1.4c-1.46,0-2.22-1.23-2.22-2.71,0-1.74.93-2.84,2.24-2.84a2,2,0,0,1,1.91,1.46,1.74,1.74,0,0,1,.08.6ZM141,252.2v-7.53h-1.36v7.53Zm-.68-10.49a.83.83,0,0,0-.85.81h0v0a.8.8,0,0,0,.77.84h.05a.82.82,0,0,0,.87-.75v-.09a.82.82,0,0,0-.78-.85h-.06Zm8.08,9.2a3.83,3.83,0,0,1-1.67.36,2.57,2.57,0,0,1-2.62-2.53h0a1.22,1.22,0,0,1,0-.27,2.61,2.61,0,0,1,2.36-2.84h.29a3.37,3.37,0,0,1,1.59.36l.31-1a4.3,4.3,0,0,0-1.9-.4,3.83,3.83,0,0,0-4,3.62h0v.39a3.57,3.57,0,0,0,3.3,3.83h0a3.38,3.38,0,0,0,.45,0,5.33,5.33,0,0,0,2.16-.45Zm7.12-3.33c0-1.49-.56-3.06-2.86-3.06a4.89,4.89,0,0,0-2.48.65l.31.91a3.72,3.72,0,0,1,2-.56,1.53,1.53,0,0,1,1.71,1.34,1.28,1.28,0,0,1,0,.39v.15c-2.9,0-4.52,1-4.52,2.8a2.14,2.14,0,0,0,2.12,2.16H152a2.78,2.78,0,0,0,2.3-1.11h.05l.11.95h1.22a12.35,12.35,0,0,1-.11-1.82Zm-1.32,2.08a1.68,1.68,0,0,1-.06.45,1.89,1.89,0,0,1-1.85,1.26,1.18,1.18,0,0,1-1.27-1.11h0v-.19c0-1.46,1.69-1.72,3.18-1.69Zm3.53,2.53h1.36v-11h-1.36Zm7,0h1.36v-4.54h1.27c1.23,0,1.82.59,2.12,2a12.66,12.66,0,0,0,.68,2.5h1.4a17.72,17.72,0,0,1-.81-2.87,2.59,2.59,0,0,0-1.52-2.11v0a2.74,2.74,0,0,0,2-2.67,2.69,2.69,0,0,0-.82-2,4.34,4.34,0,0,0-3-.86,16.2,16.2,0,0,0-2.6.22Zm1.36-9.38a5.48,5.48,0,0,1,1.34-.11c1.42,0,2.41.59,2.41,1.94,0,1.19-.91,2-2.36,2h-1.37Zm13.13,5.87a3.35,3.35,0,0,0,0-.63,3.18,3.18,0,0,0-2.82-3.51l-.29,0a3.64,3.64,0,0,0-3.55,3.73c0,.1,0,.21,0,.31a3.51,3.51,0,0,0,3.18,3.8h.52a6.17,6.17,0,0,0,2.51-.48l-.26-1a4.74,4.74,0,0,1-2.07.39,2.39,2.39,0,0,1-2.58-2.21,1.34,1.34,0,0,1,0-.4Zm-5.27-1a2.24,2.24,0,0,1,2.1-2.21,1.94,1.94,0,0,1,1.92,2,1,1,0,0,1,0,.25Zm13.44-1a16.61,16.61,0,0,1,.07-2h-1.2l0,1.13h0a2.51,2.51,0,0,0-2.35-1.29,3.61,3.61,0,0,0-3.42,3.77c0,.07,0,.14,0,.21a3.36,3.36,0,0,0,3,3.66h.14a2.67,2.67,0,0,0,2.4-1.26h0v.83c0,1.91-1,2.64-2.42,2.64a4,4,0,0,1-2.21-.6l-.34,1.06a4.83,4.83,0,0,0,2.5.61,4.12,4.12,0,0,0,2.75-.91,4.42,4.42,0,0,0,1.07-3.45ZM186.05,249a2.23,2.23,0,0,1-.11.73,2,2,0,0,1-1.9,1.4c-1.46,0-2.22-1.22-2.22-2.7,0-1.74.93-2.85,2.24-2.85a2,2,0,0,1,1.91,1.47,2,2,0,0,1,.08.6Zm9.92-4.32H194.6v4.6a1.62,1.62,0,0,1-.12.69,2,2,0,0,1-1.82,1.26c-1.22,0-1.67-1-1.67-2.41v-4.14h-1.37v4.4c0,2.62,1.42,3.29,2.6,3.29a2.79,2.79,0,0,0,2.48-1.4h0l.07,1.23H196c0-.59-.06-1.27-.06-2.07Zm2.27,7.52h1.36v-11h-1.36Zm8.95-4.61c0-1.49-.55-3.07-2.85-3.07a4.91,4.91,0,0,0-2.49.66l.31.91a3.56,3.56,0,0,1,2-.56,1.54,1.54,0,0,1,1.71,1.34,2.54,2.54,0,0,1,0,.39v.15c-2.91,0-4.52,1-4.52,2.8a2.14,2.14,0,0,0,2.12,2.16h.18a2.82,2.82,0,0,0,2.3-1.12h0l.11.95h1.23a12.27,12.27,0,0,1-.11-1.82Zm-1.32,2.08a1.68,1.68,0,0,1-.06.45,1.9,1.9,0,0,1-1.85,1.26,1.2,1.2,0,0,1-1.28-1.11v-.19c0-1.47,1.7-1.73,3.18-1.7Zm3.73-6.39v1.4h-1.16v1h1.16v4.09a2.92,2.92,0,0,0,.53,2,1.93,1.93,0,0,0,1.47.57,3.57,3.57,0,0,0,1.22-.18l-.07-1a2.59,2.59,0,0,1-.79.09c-.76,0-1-.53-1-1.47v-4h2v-1h-2v-1.82Zm7.85,1.24a3.68,3.68,0,0,0-3.74,3.61,2.28,2.28,0,0,0,0,.37,3.58,3.58,0,0,0,3.29,3.86h.32a3.69,3.69,0,0,0,3.76-3.61v-.39a3.57,3.57,0,0,0-3.25-3.84Zm0,1c1.61,0,2.27,1.6,2.27,2.87,0,1.69-1,2.92-2.27,2.92s-2.28-1.24-2.28-2.89c0-1.39.69-2.88,2.3-2.88Zm5.37,6.65h1.37v-4a4.49,4.49,0,0,1,0-.64,1.91,1.91,0,0,1,1.82-1.74,1.78,1.78,0,0,1,.46,0v-1.29l-.38,0a2.28,2.28,0,0,0-2.09,1.65h0l-.06-1.49h-1.2c.05.7.06,1.46.06,2.35Zm4.85-7.53,2.77,6.94a.89.89,0,0,1,.11.36,1.28,1.28,0,0,1-.11.33,4.37,4.37,0,0,1-1.15,1.51,3.46,3.46,0,0,1-1.2.67l.34,1.14a3.92,3.92,0,0,0,1.68-.87,11.59,11.59,0,0,0,2.58-4.71l2.05-5.36h-1.45l-1.49,4.41c-.19.54-.34,1.12-.48,1.57h0c-.12-.45-.31-1-.5-1.54l-1.63-4.44Zm18.7,6.11a5.49,5.49,0,0,1-2.22.46,3.8,3.8,0,0,1-4-3.55,3.75,3.75,0,0,1,0-.67,3.89,3.89,0,0,1,3.43-4.3,3.64,3.64,0,0,1,.66,0,4.79,4.79,0,0,1,2.1.46l.34-1.11a5.6,5.6,0,0,0-2.49-.45,5.2,5.2,0,0,0-5.45,4.92,5.61,5.61,0,0,0,0,.58,4.89,4.89,0,0,0,4.43,5.3,5.9,5.9,0,0,0,.73,0,6.69,6.69,0,0,0,2.76-.5Zm4.79-6.26a3.68,3.68,0,0,0-3.75,3.61v.37a3.6,3.6,0,0,0,3.3,3.86H251a3.69,3.69,0,0,0,3.76-3.61,2.54,2.54,0,0,0,0-.39,3.56,3.56,0,0,0-3.28-3.84,2,2,0,0,0-.35,0Zm0,1c1.62,0,2.28,1.6,2.28,2.88,0,1.69-1,2.92-2.28,2.92s-2.27-1.24-2.27-2.89c0-1.41.7-2.9,2.3-2.9Zm5.38,6.65h1.34v-4.52a1.67,1.67,0,0,1,.11-.66,1.87,1.87,0,0,1,1.69-1.37c1,0,1.57.86,1.57,2.05v4.51h1.34v-4.64a2.26,2.26,0,0,1,.1-.69,1.83,1.83,0,0,1,1.64-1.22c1.09,0,1.63.85,1.63,2.31v4.24h1.33v-4.41c0-2.61-1.47-3.27-2.48-3.27a2.57,2.57,0,0,0-1.65.53,2.89,2.89,0,0,0-.86,1h0a2.22,2.22,0,0,0-2.11-1.51,2.6,2.6,0,0,0-2.38,1.36h0l-.07-1.22h-1.19c0,.62.06,1.24.06,2Zm13,0h1.34v-4.52a1.67,1.67,0,0,1,.11-.66,1.89,1.89,0,0,1,1.69-1.37c1.05,0,1.57.86,1.57,2.05v4.51h1.33v-4.64a2.62,2.62,0,0,1,.11-.69,1.81,1.81,0,0,1,1.63-1.22c1.09,0,1.63.85,1.63,2.31v4.24h1.33v-4.41c0-2.61-1.47-3.27-2.48-3.27a2.57,2.57,0,0,0-1.65.53,2.89,2.89,0,0,0-.86,1h0a2.2,2.2,0,0,0-2.11-1.51,2.6,2.6,0,0,0-2.38,1.36h0l-.07-1.22h-1.18c0,.62.06,1.24.06,2Zm14.33,0v-7.52H282.4v7.53Zm-.68-10.48a.83.83,0,0,0-.86.8h0v0a.81.81,0,0,0,.77.84h.06a.81.81,0,0,0,.86-.75.14.14,0,0,0,0-.09.82.82,0,0,0-.78-.85h-.05Zm2.44,10.12a4.21,4.21,0,0,0,2.11.53c1.76,0,2.8-.91,2.8-2.27,0-1.12-.68-1.78-2-2.28-1-.39-1.42-.66-1.42-1.29s.46-1,1.24-1a2.88,2.88,0,0,1,1.54.45l.33-1a3.45,3.45,0,0,0-1.82-.46,2.33,2.33,0,0,0-2.58,2.05v.16c0,.91.63,1.63,2,2.13,1,.37,1.36.71,1.36,1.36s-.45,1.12-1.44,1.12a3.77,3.77,0,0,1-1.82-.53Zm6.15,0a4.25,4.25,0,0,0,2.12.53c1.75,0,2.8-.91,2.8-2.27,0-1.12-.69-1.78-2-2.28-1-.38-1.41-.66-1.41-1.28s.46-1,1.24-1A2.88,2.88,0,0,1,296,246l.33-1a3.54,3.54,0,0,0-1.82-.45,2.32,2.32,0,0,0-2.58,2v.16c0,.91.63,1.63,2,2.13,1,.37,1.36.72,1.36,1.37s-.45,1.11-1.44,1.11a3.87,3.87,0,0,1-1.82-.52Zm8,.37v-7.52h-1.36v7.52ZM299,241.71a.83.83,0,0,0-.85.81h0v0a.81.81,0,0,0,.77.85H299a.82.82,0,0,0,.87-.76v-.09a.82.82,0,0,0-.78-.85H299Zm6.14,2.81a3.68,3.68,0,0,0-3.74,3.61,2.28,2.28,0,0,0,0,.37,3.58,3.58,0,0,0,3.29,3.86H305a3.68,3.68,0,0,0,3.76-3.61,2.54,2.54,0,0,0,0-.39,3.55,3.55,0,0,0-3.24-3.84h-.38Zm0,1c1.61,0,2.27,1.6,2.27,2.87,0,1.7-1,2.93-2.27,2.93s-2.27-1.24-2.27-2.9c0-1.41.69-2.9,2.3-2.9Zm5.38,6.65h1.36v-4.52a2,2,0,0,1,1.93-2c1.28,0,1.74,1,1.74,2.22v4.34h1.36v-4.49c0-2.58-1.61-3.18-2.66-3.18a2.78,2.78,0,0,0-2.48,1.4h0l-.07-1.24h-1.22c.05.62.07,1.24.07,2Z" fill="#fff"/><path id="Path_113" data-name="Path 113" d="M6.31,225.73c-4.58,0-6.3-2.12-6.3-5.46a5.68,5.68,0,0,1,5.41-5.93,5.49,5.49,0,0,1,.81,0,15,15,0,0,1,5,.82v8.12h2.43v2.45ZM4.07,210a1.54,1.54,0,1,1-1.54,1.54A1.54,1.54,0,0,1,4.07,210Zm4.09,7.24a5.8,5.8,0,0,0-2.25-.42,2.84,2.84,0,0,0-2.83,2.85c0,.11,0,.22,0,.33,0,2.15,1.05,3.3,3.53,3.3H8.16ZM7.82,210A1.54,1.54,0,0,1,8.06,213H7.82a1.53,1.53,0,0,1-1.53-1.52h0A1.54,1.54,0,0,1,7.82,210Zm4,14.55c0-.74.95-1.23,1.42-1.23H16v-8.64h3.11v8.64h2.43v2.45H13.26c-.47,0-1.41-.48-1.41-1.24Zm3.85,2.94a1.54,1.54,0,1,1-1.42,1.64.81.81,0,0,1,0-.22,1.53,1.53,0,0,1,1.44-1.43Zm3.77,0a1.53,1.53,0,1,1-.23,0h.23Zm1.77-1.72c-.46,0-1.42-.45-1.42-1.22s.95-1.23,1.42-1.23H24.9a4,4,0,0,1-1.82-3.52,5.45,5.45,0,0,1,5.43-5.47,5.84,5.84,0,0,1,.73,0,10,10,0,0,1,2.92.45l-.55,2.48a6.58,6.58,0,0,0-2.45-.5,2.82,2.82,0,0,0-3,2.66,1.93,1.93,0,0,0,0,.34c0,2,1.63,3.52,5.38,3.52h1.82v2.45ZM36.5,211.45c-.55-.09-1.09-.19-1.68-.24v-1.93a30.66,30.66,0,0,1,4.79-.19v14.2H42v2.45H36.51Zm5.19,14.29c-.45,0-1.41-.45-1.41-1.22s.94-1.23,1.41-1.23h.69a18.1,18.1,0,0,0,5.52-.73,12.27,12.27,0,0,0-5-3.45l.26-2.22A12.67,12.67,0,0,1,50,214.28c3.51,0,4.95,1.81,4.95,3.86a6,6,0,0,1-2.41,4.55,6,6,0,0,0,2.63.61h1.22v2.46H54.83A8.33,8.33,0,0,1,50,224.29a19.16,19.16,0,0,1-7.73,1.47Zm8.73-4.5a3.43,3.43,0,0,0,1.48-2.69,2,2,0,0,0-1.91-2h0a1.71,1.71,0,0,0-.32,0A7.27,7.27,0,0,0,46.08,218a18,18,0,0,1,4.34,3.26Zm5.64,4.5c-.46,0-1.41-.45-1.41-1.22s.94-1.23,1.41-1.23h.85c1.54,0,2.12-.62,2.12-2.93v-4.29h3.11v4.36c0,2.13.24,3,1.63,3,1.23,0,1.91-.73,1.91-3v-5.33h3V221c0,1.87.63,2.25,2.8,2.25h.63c.09-1,.14-2.1.14-2.84a28.65,28.65,0,0,0-.68-6.32l3-.42a28.69,28.69,0,0,1,.75,6.53,46,46,0,0,1-.33,5.5H71.14c-2.47,0-3.72-.33-4.41-1.63a3.71,3.71,0,0,1-3.56,1.82A3.13,3.13,0,0,1,60,224.09a3,3,0,0,1-3.14,1.65Zm9-15.64a1.55,1.55,0,0,1,1.54,1.54,1.5,1.5,0,1,1-3-.08,1.54,1.54,0,0,1,1.45-1.45Zm2-3.09a1.54,1.54,0,1,1-1.53,1.54A1.54,1.54,0,0,1,67.05,207ZM69,210.1a1.53,1.53,0,0,1,1.53,1.52h0A1.54,1.54,0,1,1,69,210.09Zm13.63,11.21a16.41,16.41,0,0,1-3.11.51V211.44a11.9,11.9,0,0,0-1.68-.23v-2a32.07,32.07,0,0,1,4.8-.19Zm-4.6,9a4.8,4.8,0,0,1,1.25.14,1,1,0,0,1-.45-.91c0-1.22,1.08-2.3,3.32-2.3a5.74,5.74,0,0,1,1.37.14L83.2,229a4.43,4.43,0,0,0-1.2-.14c-.71,0-1.06.28-1.06.66s.42.73,1.54.73h1.46V232H78Zm.81-4.76L79.2,223a14,14,0,0,0,3.92.59c2.33,0,3.34-.91,3.34-3.3V209.11h3.12V220c0,3.46-1.63,6-6.7,6a19,19,0,0,1-4-.46Zm15-14.09c-.55-.09-1.09-.19-1.68-.24v-1.93a30.66,30.66,0,0,1,4.79-.19v16.65H93.83Zm6.42,19.93.18-2.55a19.12,19.12,0,0,0,3.69.4c2.45,0,4.09-.9,4.09-3.13v-.36h-1.87c-4.57,0-6.3-2.12-6.3-5.45a5.68,5.68,0,0,1,5.42-5.93,5.48,5.48,0,0,1,.81,0,15.23,15.23,0,0,1,5,.83v10.61c0,3.26-2.13,5.91-7.39,5.91a25.19,25.19,0,0,1-3.58-.31Zm8-14.15a5.55,5.55,0,0,0-2.24-.43,2.84,2.84,0,0,0-2.83,2.84c0,.12,0,.23,0,.34,0,2.15,1.06,3.31,3.54,3.31h1.51Zm17.55,8.51c-4.58,0-6.3-2.12-6.3-5.45a5.68,5.68,0,0,1,5.41-5.93,5.58,5.58,0,0,1,.82,0,15.13,15.13,0,0,1,4.95.83v8.11h2.44v2.46ZM123.51,210a1.54,1.54,0,1,1-1.54,1.54,1.53,1.53,0,0,1,1.54-1.54Zm4.09,7.25a5.58,5.58,0,0,0-2.24-.43,2.84,2.84,0,0,0-2.83,2.84c0,.12,0,.23,0,.34,0,2.15,1.06,3.31,3.54,3.31h1.51Zm-.33-7.25a1.54,1.54,0,1,1,.23,3.07h-.23a1.52,1.52,0,0,1-1.54-1.52h0a1.55,1.55,0,0,1,1.54-1.53Zm5.42,15.76c-.45,0-1.42-.45-1.42-1.22s.95-1.23,1.42-1.23h2.78v-8.64h3.12v11.09Zm.76,1.72a1.54,1.54,0,1,1-.23,0h.23Zm3.77,0a1.53,1.53,0,1,1-.22,0h.22Zm4.67,3.92.19-2.55a19.74,19.74,0,0,0,3.68.4c2.45,0,4.09-.91,4.09-3.14v-.35H148c-4.58,0-6.3-2.12-6.3-5.46a5.68,5.68,0,0,1,5.41-5.93,5.49,5.49,0,0,1,.81,0,15.49,15.49,0,0,1,5,.82v10.62c0,3.25-2.12,5.91-7.38,5.91a25.19,25.19,0,0,1-3.58-.31Zm8-14.16a5.72,5.72,0,0,0-2.24-.42,2.82,2.82,0,0,0-2.82,2.84,1.94,1.94,0,0,0,0,.34c0,2.15,1.06,3.3,3.54,3.3h1.51Zm6.32,14.16.2-2.55a19.74,19.74,0,0,0,3.68.4c2.45,0,4.09-.91,4.09-3.14v-.35h-1.87c-4.57,0-6.3-2.12-6.3-5.46a5.69,5.69,0,0,1,5.41-5.93,5.62,5.62,0,0,1,.82,0,15.49,15.49,0,0,1,5,.82v8.12h2.43v2.45h-2.43v.05c0,3.25-2.13,5.91-7.39,5.91a25.19,25.19,0,0,1-3.58-.31Zm8-14.16a5.72,5.72,0,0,0-2.24-.42,2.83,2.83,0,0,0-2.82,2.85c0,.11,0,.22,0,.33,0,2.15,1.06,3.3,3.54,3.3h1.51Zm3.69,7.27c0-.73.94-1.22,1.41-1.22H172v-8.64h3.11v8.64h2.43v2.45h-8.3c-.46,0-1.42-.46-1.42-1.23Zm5.75-14.54a1.63,1.63,0,1,1-1.62,1.63h0a1.66,1.66,0,0,1,1.63-1.63Zm3.64,15.78c-.45,0-1.42-.46-1.42-1.23s.95-1.23,1.42-1.23H180V209.11h3.11v16.63Zm10.12-14.3c-.54-.09-1.08-.19-1.67-.24v-1.93a30.66,30.66,0,0,1,4.79-.18v16.65h-3.11ZM205,225.72c-4.58,0-6.3-2.13-6.3-5.46a5.68,5.68,0,0,1,5.41-5.93,7.54,7.54,0,0,1,.82,0,15.17,15.17,0,0,1,5,.83v8.11h2.43v2.45ZM202.72,210a1.54,1.54,0,1,1-1.54,1.54,1.53,1.53,0,0,1,1.54-1.54Zm4.09,7.24a5.72,5.72,0,0,0-2.24-.42,2.83,2.83,0,0,0-2.83,2.84c0,.11,0,.23,0,.34,0,2.15,1.06,3.31,3.54,3.31h1.51Zm-.33-7.24a1.54,1.54,0,1,1-1.54,1.54,1.54,1.54,0,0,1,1.54-1.54Zm5.43,15.76c-.46,0-1.42-.46-1.42-1.23s.95-1.23,1.42-1.23h2.78v-8.64h3.11v11.09Zm4.19,1.58a1.61,1.61,0,1,1-1.6,1.6h0a1.55,1.55,0,0,1,1.5-1.61h.1ZM222,211.42c-.54-.09-1.08-.18-1.67-.23v-1.93a30.66,30.66,0,0,1,4.79-.19v14.2h2.43v2.45H222Zm5.19,14.3c-.45,0-1.41-.45-1.41-1.23s1-1.22,1.41-1.22H229a4.19,4.19,0,0,1,1.32.16,3.85,3.85,0,0,1-1.32-3.37,5.64,5.64,0,0,1,5.51-5.76l.62,0a4.84,4.84,0,0,1,5.35,4.26,5.09,5.09,0,0,1,0,1.17v6ZM233,210a1.54,1.54,0,0,1,0,3.07,1.54,1.54,0,1,1,0-3.07Zm4.48,10.16c0-2.36-.94-3.34-2.52-3.34a2.83,2.83,0,0,0-2.83,2.84c0,.11,0,.23,0,.34,0,2.22,1.09,3.3,3.54,3.3h1.79ZM236.73,210A1.53,1.53,0,1,1,237,213h-.24a1.54,1.54,0,0,1-1.54-1.52h0a1.56,1.56,0,0,1,1.54-1.53Zm3.47,21.51.24-2.48a6.49,6.49,0,0,0,1.91.28c1.6,0,2.54-.75,2.54-3.3V214.62H248v8.63h2.43v2.46H248v.09a5.15,5.15,0,0,1-4.28,5.9,5,5,0,0,1-1.55,0,8.34,8.34,0,0,1-2-.24Zm9.89-5.76c-.46,0-1.42-.45-1.42-1.22s1-1.23,1.42-1.23h2.78V209.11H256v16.63Zm10.12-14.29c-.54-.09-1.09-.19-1.68-.24v-1.93a31.93,31.93,0,0,1,4.79-.19v16.66h-3.11Zm17.65,14.29c-4.58,0-6.3-2.12-6.3-5.45a5.68,5.68,0,0,1,5.4-5.93,5.75,5.75,0,0,1,.83,0,15.17,15.17,0,0,1,4.95.83v8.11h2.43v2.46ZM275.62,210a1.54,1.54,0,1,1-1.54,1.53,1.53,1.53,0,0,1,1.54-1.53Zm4.09,7.24a5.73,5.73,0,0,0-2.24-.43,2.84,2.84,0,0,0-2.83,2.85,2,2,0,0,0,0,.34c0,2.14,1.05,3.3,3.54,3.3h1.51Zm-.33-7.24a1.53,1.53,0,1,1-1.54,1.54h0a1.56,1.56,0,0,1,1.54-1.53Zm4,14.54c0-.73.94-1.23,1.42-1.23h2.78v-8.63h3.11v8.63h2.43v2.46h-8.32c-.46,0-1.42-.46-1.42-1.23Zm2.36-12.67a7.33,7.33,0,0,1,1.41.14,1.21,1.21,0,0,1-.59-1c0-1.15,1-2.43,3.47-2.43a9.22,9.22,0,0,1,1.39.14l-.3,1.65a6.1,6.1,0,0,0-1.27-.14c-.81,0-1.16.36-1.16.81s.38.87,1.7.87h1.44v1.7h-6.08Zm5.61,12.67c0-.73.95-1.23,1.42-1.23h2.78v-8.63h3.12v8.63h2.43v2.46h-8.29c-.45,0-1.41-.46-1.41-1.23Zm3.85,3a1.53,1.53,0,1,1-1.42,1.64.81.81,0,0,1,0-.22,1.54,1.54,0,0,1,1.47-1.43Zm3.77,0a1.53,1.53,0,1,1-1.42,1.64.81.81,0,0,1,0-.22,1.55,1.55,0,0,1,1.47-1.43Zm1.77-1.72c-.45,0-1.41-.46-1.41-1.23s.94-1.23,1.41-1.23h2.05a5,5,0,0,1,1.09.12,2.35,2.35,0,0,1-.59-1.68,4,4,0,0,1,4-4,4.41,4.41,0,0,1,.52,0c3.18,0,4.34,2.31,4.34,5v.55h2.36V223c0-4.88-2-7.06-6.65-7.06a17.37,17.37,0,0,0-5.05.91l-.31-2.43a19.94,19.94,0,0,1,5.73-.91c5.91,0,9.25,2.81,9.25,9.7v2.52Zm8.87-3c0-1.82-.63-2.78-2-2.78a1.57,1.57,0,0,0-1.76,1.36h0a1,1,0,0,0,0,.24c0,1.32,1,1.87,2.24,1.87h1.56Z" fill="#fff"/></g></g></g></svg>