<svg xmlns="http://www.w3.org/2000/svg" viewBox="0 0 88.41 96.54"><g id="Layer_2" data-name="Layer 2"><g id="nuclearshieldwhite-cat"><path d="M44.21,9.08C65.93,8.74,76.22-.43,76,0l12.42,7.6s-10.18,19.5-4.36,39.72c6.82,23.71-2,30.87-22,39.49-12.28,5.28-16.79,6.07-17.8,9.71-1-3.64-5.53-4.43-17.81-9.71-20-8.62-28.86-15.78-22-39.49C10.18,27.12,0,7.62,0,7.62L12.42,0C12.19-.43,22.49,8.74,44.21,9.08Z" fill="#fff"/><path d="M44.57,20.87A27.4,27.4,0,1,0,72,48.27,27.44,27.44,0,0,0,44.57,20.87Zm0,51.73A24.34,24.34,0,1,1,68.89,48.27,24.35,24.35,0,0,1,44.55,72.6Z" fill="#231f20"/><path d="M49.93,47.29a5.36,5.36,0,1,1-5.36-5.36A5.36,5.36,0,0,1,49.93,47.29Z" fill="#231f20"/><path d="M25.07,47.28l12,.38c0-.12,0-.24,0-.37a7.53,7.53,0,0,1,5.14-7.14L36,29.75A19.49,19.49,0,0,0,25.07,47.28Z" fill="#231f20"/><path d="M44.57,66.79a19.41,19.41,0,0,0,10.24-2.91L49,53.36a7.53,7.53,0,0,1-8.91,0L34.32,63.88A19.45,19.45,0,0,0,44.57,66.79Z" fill="#231f20"/><path d="M64.07,47.28a19.52,19.52,0,0,0-11-17.53L47,40.15a7.54,7.54,0,0,1,5.15,7.14c0,.13,0,.25,0,.37Z" fill="#231f20"/></g></g></svg>