<svg xmlns="http://www.w3.org/2000/svg" viewBox="0 0 68.85 70.71"><g id="Layer_2" data-name="Layer 2"><g id="nuclear_shield" data-name="nuclear shield"><path d="M62.37,5.53C51.61,9.6,42,6.47,34.45,0c-7.61,6.45-17.16,9.61-28,5.53L0,10l.06,1.56A91.38,91.38,0,0,0,4.67,35C11.61,55.73,20.78,62.52,33,69.84l1.46.87,1.45-.87C48.08,62.52,57.25,55.73,64.18,35A91.84,91.84,0,0,0,68.8,11.53l0-1.56Z" fill="#231f20"/><circle cx="34.37" cy="24.45" r="13.81" fill="#fff" stroke="#000" stroke-miterlimit="10" stroke-width="0.5"/><circle cx="34.45" cy="24.11" r="2.59" fill="#231f20"/><path d="M32.52,27.27a3.62,3.62,0,0,0,1.93.54,3.66,3.66,0,0,0,1.77-.45l4.16,7.21A.88.88,0,0,1,40,35.81a12.59,12.59,0,0,1-11.26-.17.89.89,0,0,1-.35-1.23Z" fill="#231f20"/><path d="M30.75,24.11H22.91a.89.89,0,0,1-.88-1,12.59,12.59,0,0,1,5.43-9.07.87.87,0,0,1,1.25.29L32.52,21A3.7,3.7,0,0,0,30.75,24.11Z" fill="#231f20"/><path d="M46.19,24.11h-8a3.7,3.7,0,0,0-1.93-3.25l3.87-6.7a.88.88,0,0,1,1.23-.3,12.58,12.58,0,0,1,5.75,9.28A.89.89,0,0,1,46.19,24.11Z" fill="#231f20"/><path d="M31.58,55.78a1.29,1.29,0,0,0-.48-.1l-7.6-.16a.85.85,0,0,0-.32,0,1.24,1.24,0,0,0-1,1.19l0,2A1.25,1.25,0,0,0,23.41,60l7.6.16h.21A1.25,1.25,0,0,0,32.29,59l.05-2a1.32,1.32,0,0,0-.35-.9A1.42,1.42,0,0,0,31.58,55.78Z" fill="#fff"/><path d="M7.17,36.24h0l.26,1.16h0l.07.27,1.07,4.73a2.2,2.2,0,0,0,.69,1.17l4.45,4a2.12,2.12,0,0,0,1,.52L21,49.65a2.47,2.47,0,0,1,1.88,2.18l.29,3.26.08,0h0l.29,0,7.6.16a2.21,2.21,0,0,1,.46.08l-.09-7.94a3.51,3.51,0,0,0-.63-2L29.92,44a3,3,0,0,0-1.15-1L26.47,42a5.45,5.45,0,0,0-1.82-.48l-6.27-.93a1.5,1.5,0,0,1-.59-.18,9.65,9.65,0,0,1-1.22-.67L14,37.81l-.25-.12a1,1,0,0,0-.44-.06h0l1.09.93a.7.7,0,0,1,.07,1l-.06.07a.7.7,0,0,1-1,.07l-.39-.33-.7-.6-.11-.12a.72.72,0,0,1,0-.76l0-.07h0l-.33-.39a.69.69,0,0,0-.66-.23l-.26-.32a.71.71,0,0,0-.92-.13l-.06-.11h0l-.33-.39a.69.69,0,0,0-.86-.16l-.25-.36a.67.67,0,0,0-.57-.3.57.57,0,0,0-.18,0c-.25-.17-.76-.13-.69.22Zm8.24,6h0a1.72,1.72,0,0,0,.64.49l2.52,1.13-1,.13a1.13,1.13,0,0,1-.41,0L15,42.81l-1.35-2.39Z" fill="#fff"/><path d="M37.27,55.78a1.29,1.29,0,0,1,.48-.1l7.6-.16a.93.93,0,0,1,.33,0,1.24,1.24,0,0,1,1,1.19l0,2A1.26,1.26,0,0,1,45.44,60l-7.59.16h-.22A1.25,1.25,0,0,1,36.56,59l0-2a1.28,1.28,0,0,1,.35-.9A1.38,1.38,0,0,1,37.27,55.78Z" fill="#fff"/><path d="M61.8,35.67c.07-.35-.43-.39-.69-.22a.57.57,0,0,0-.18,0,.69.69,0,0,0-.57.3l-.25.36a.69.69,0,0,0-.86.16l-.33.39h0l-.06.11a.71.71,0,0,0-.92.13l-.27.32a.69.69,0,0,0-.66.23l-.33.39h0l0,.07a.7.7,0,0,1,0,.76l-.11.12-.69.6-.4.33a.7.7,0,0,1-1-.07l-.06-.07a.7.7,0,0,1,.08-1l1.08-.93h0a.94.94,0,0,0-.44.06l-.26.12-2.55,1.94a10.52,10.52,0,0,1-1.23.67,1.5,1.5,0,0,1-.59.18l-6.27.93a5.39,5.39,0,0,0-1.81.48l-2.31,1.07a3,3,0,0,0-1.14,1L38,45.39a3.37,3.37,0,0,0-.63,2l-.1,7.94a2.33,2.33,0,0,1,.46-.08l7.6-.16.29,0h0l.09,0L46,51.83a2.46,2.46,0,0,1,1.87-2.18l6.28-1.52a2,2,0,0,0,1-.52l4.46-4a2.25,2.25,0,0,0,.68-1.17l1.08-4.73.06-.27h0l.26-1.16h0Zm-6.59,4.75-1.36,2.39L51.7,44a1.19,1.19,0,0,1-.42,0l-1-.13,2.53-1.13a1.68,1.68,0,0,0,.63-.49h0Z" fill="#fff"/></g></g></svg>