<?xml version="1.0" encoding="utf-8"?>
<!-- Generator: Adobe Illustrator 24.3.0, SVG Export Plug-In . SVG Version: 6.00 Build 0)  -->
<svg version="1.1" id="Layer_1" xmlns="http://www.w3.org/2000/svg" xmlns:xlink="http://www.w3.org/1999/xlink" x="0px" y="0px"
	 viewBox="0 0 512 512" style="enable-background:new 0 0 512 512;" xml:space="preserve">
<style type="text/css">
	.st0{fill:#7F7F7F;}
</style>
<g>
	<g>
		<path class="st0" d="M196.2,53.2c-75.2,0-136.3,61.1-136.3,136.3S121,325.8,196.2,325.8s136.3-61.1,136.3-136.3
			S271.3,53.2,196.2,53.2z M196.2,299.2c-60.5,0-109.7-49.2-109.7-109.7S135.7,79.8,196.2,79.8S305.9,129,305.9,189.5
			S256.7,299.2,196.2,299.2z"/>
	</g>
</g>
<g>
	<g>
		<path class="st0" d="M493.7,443.9L349.9,300.1c23.1-32.1,35.7-71,35.7-110.6C385.7,85,300.7,0,196.2,0S6.7,85,6.7,189.5
			S91.7,379,196.2,379c33.3,0,65.8-8.7,94.5-25.3l146.6,146.6c7.5,7.5,17.6,11.7,28.2,11.7s20.7-4.2,28.2-11.7
			C509.2,484.8,509.2,459.4,493.7,443.9z M474.9,481.5c-2.5,2.5-5.9,3.9-9.4,3.9c-3.6,0-6.9-1.4-9.4-3.9l-154-154
			c-2.6-2.6-6-3.9-9.4-3.9c-2.5,0-5.1,0.7-7.3,2.2c-26.5,17.4-57.4,26.6-89.2,26.6c-89.8,0-162.9-73.1-162.9-162.9
			S106.3,26.6,196.2,26.6s162.9,73.1,162.9,162.9c0,37.6-13.2,74.3-37.1,103.3c-4.4,5.3-4,13,0.9,17.9l152,152
			C480.1,467.9,480.1,476.3,474.9,481.5z"/>
	</g>
</g>
</svg>
