<?xml version="1.0" ?><svg fill="white" opacity="0.3" viewBox="0 0 20 19.84" xmlns="http://www.w3.org/2000/svg"><path d="M17.78,3.72a1.13,1.13,0,0,0-1.13-1.13h0l-6.77,0A1.14,1.14,0,0,0,8.74,3.77l0,2.63a.38.38,0,0,0,.37.37h0a.38.38,0,0,0,.38-.38l0-2.62a.4.4,0,0,1,.39-.39l6.77,0h0a.38.38,0,0,1,.38.38l0,7A4.07,4.07,0,0,0,15,9.55H13.23a.37.37,0,0,0-.37.38.38.38,0,0,0,.37.37H15c.47,0,1.56.9,2.19,1.54a.36.36,0,0,0,.27.12.35.35,0,0,0,.14,0,.38.38,0,0,0,.23-.35Z"/><path d="M9,9.74,6.81,12.26,6,11.59a.37.37,0,1,0-.46.59l1.13.89a.4.4,0,0,0,.23.08A.35.35,0,0,0,7.13,13L9.6,10.24A.38.38,0,0,0,9,9.74Z"/><path d="M13.12,7.17l1,1a.38.38,0,0,0,.26.11.4.4,0,0,0,.27-.11.39.39,0,0,0,0-.53l-1-1,1-.95a.39.39,0,0,0,0-.53.37.37,0,0,0-.53,0l-1,1-.95-1a.37.37,0,0,0-.53.53l.95.95-.66.67a1.22,1.22,0,0,0-.61-.19l-7.86,0h0A1.23,1.23,0,0,0,2.22,8.29l-.05,8.59a.38.38,0,0,0,.23.35.35.35,0,0,0,.14,0,.36.36,0,0,0,.27-.12c.71-.72,1.94-1.74,2.48-1.74h0l6,0h0a1.23,1.23,0,0,0,1.22-1.23l0-5.85a1.35,1.35,0,0,0-.1-.5Zm-1.37,7a.48.48,0,0,1-.47.48h0l-6,0h0A4.73,4.73,0,0,0,2.92,16L3,8.3a.48.48,0,0,1,.48-.48h0l7.87,0a.48.48,0,0,1,.47.48Z"/></svg>