<svg xmlns="http://www.w3.org/2000/svg" xmlns:xlink="http://www.w3.org/1999/xlink" viewBox="0 0 26.51 34.74"><defs><clipPath id="clip-path" transform="translate(-731.02 -508.47)"><rect width="1190.55" height="841.89" fill="none"/></clipPath></defs><g id="Layer_2" data-name="Layer 2"><g id="radionuc"><g clip-path="url(#clip-path)"><path d="M756,542.19h-23.4a.54.54,0,0,1,0-1.08H756a.54.54,0,0,1,0,1.08M732,510a.55.55,0,0,1,.54-.55H756a.55.55,0,0,1,0,1.09h-3.27a.51.51,0,1,0,0,1h2.52V514h-21.9V511.6h17a.51.51,0,1,0,0-1H732.58A.54.54,0,0,1,732,510M755.53,515l.38.38v2l-.38.38h-6.24a9.52,9.52,0,0,0-7.59-1.07,9.4,9.4,0,0,0-2.45,1.07H733l-.38-.38v-2L733,515ZM736,528.14a8.6,8.6,0,0,1,.51-6,.5.5,0,0,0-.24-.68.5.5,0,0,0-.67.24A9.55,9.55,0,0,0,737.9,533h-4.57V518.72h4.56a9.66,9.66,0,0,0-.9.91.52.52,0,0,0,.06.72.51.51,0,0,0,.72-.06,8.55,8.55,0,1,1-1.73,7.85M750.68,533a9.8,9.8,0,0,0,1.94-2.43,9.55,9.55,0,0,0-2-11.82h4.57V533Zm-17.35,7.12v-2.38h6.74a.51.51,0,0,0,.51-.51.5.5,0,0,0-.51-.5h-7l-.38-.37v-2l.38-.4h6.24a9.55,9.55,0,0,0,5,1.43,9.76,9.76,0,0,0,5-1.43h6.2l.39.4v2l-.38.37H742.45a.51.51,0,1,0,0,1h12.78v2.38Zm22.92,0v-2.69l.42-.41a.86.86,0,0,0,.25-.61v-2.09a.83.83,0,0,0-.24-.6l-.43-.44V518.42l.43-.43a.83.83,0,0,0,.24-.6V515.3a.82.82,0,0,0-.25-.6l-.42-.43v-2.7a1.56,1.56,0,0,0-.27-3.1h-23.4a1.56,1.56,0,0,0-.27,3.1v2.7l-.43.43a.84.84,0,0,0-.25.6v2.09a.84.84,0,0,0,.25.6l.43.43v14.85l-.43.45a.82.82,0,0,0-.25.59v2.09a.87.87,0,0,0,.26.61l.42.41v2.69a1.56,1.56,0,0,0,.27,3.1H756a1.56,1.56,0,0,0,.27-3.1" transform="translate(-731.02 -508.47)" fill="#0c9eda"/><path d="M744.27,519.31a6.59,6.59,0,0,1,2.84.66l-1.31,2.27a4,4,0,0,0-1.52-.31,3.86,3.86,0,0,0-1.5.3L741.47,520a6.45,6.45,0,0,1,2.8-.64m-2.13,3.84a.51.51,0,0,0,.66.21,3.09,3.09,0,0,1,1.48-.41,2.89,2.89,0,0,1,1.46.4.48.48,0,0,0,.26.07l.13,0a.52.52,0,0,0,.31-.23l1.81-3.15a.51.51,0,0,0-.18-.69,7.52,7.52,0,0,0-3.78-1,7.61,7.61,0,0,0-3.77,1,.54.54,0,0,0-.2.7Z" transform="translate(-731.02 -508.47)" fill="#cea052"/><path d="M747.16,525.86a2.91,2.91,0,0,1-1.44,2.48h0a.5.5,0,0,0-.22.29.47.47,0,0,0,0,.4l1.82,3.15a.53.53,0,0,0,.31.24h.13a.51.51,0,0,0,.25-.06,7.51,7.51,0,0,0,1.85-1.51.51.51,0,0,0-.76-.67,6.69,6.69,0,0,1-1.17,1l-1.31-2.28a3.9,3.9,0,0,0,1.49-2.55h2.62a6.61,6.61,0,0,1-.46,1.94.5.5,0,0,0,.27.66.52.52,0,0,0,.67-.28,7.4,7.4,0,0,0,.56-2.83.51.51,0,0,0-.14-.36.51.51,0,0,0-.37-.15h-3.62a.5.5,0,0,0-.51.5" transform="translate(-731.02 -508.47)" fill="#cea052"/><path d="M740.62,531.22a6.47,6.47,0,0,1-2.83-4.84h2.63a4,4,0,0,0,.48,1.41,3.93,3.93,0,0,0,1,1.16Zm2.24-2.88a2.89,2.89,0,0,1-1.08-1.06,2.82,2.82,0,0,1-.38-1.42.5.5,0,0,0-.51-.5h-3.63a.5.5,0,0,0-.5.51,7.47,7.47,0,0,0,1,3.74,7.66,7.66,0,0,0,2.77,2.77.57.57,0,0,0,.25.06.5.5,0,0,0,.44-.25l1.82-3.15a.51.51,0,0,0-.19-.7" transform="translate(-731.02 -508.47)" fill="#cea052"/><path d="M744.7,526.57a.86.86,0,0,1-1.15-.31.84.84,0,0,1,.31-1.16.87.87,0,0,1,1.15.31.84.84,0,0,1-.31,1.16m1.19-1.67a1.87,1.87,0,1,0-.68,2.55A1.87,1.87,0,0,0,745.89,524.9Z" transform="translate(-731.02 -508.47)" fill="#cea052"/></g></g></g></svg>