<svg xmlns="http://www.w3.org/2000/svg" viewBox="0 0 39.41 37.66"><g id="Layer_2" data-name="Layer 2"><g id="usersw"><path d="M4.71,17.66a2.5,2.5,0,1,0,2.47,2.5,2.48,2.48,0,0,0-2.47-2.5m0,6.07a3.58,3.58,0,0,1,0-7.15,3.58,3.58,0,0,1,0,7.15" fill="#ca9e43"/><rect x="1.71" y="28.28" width="1.06" height="9.38" fill="#1d9cd7"/><rect x="6.65" y="28.28" width="1.06" height="9.38" fill="#1d9cd7"/><path d="M2.27,34A2.29,2.29,0,0,1,0,31.74V26.35a2.29,2.29,0,0,1,2.27-2.3H4.71v1.07H2.27a1.22,1.22,0,0,0-1.21,1.23v5.39A1.22,1.22,0,0,0,2.27,33Z" fill="#1d9cd7"/><path d="M7.14,34V33a1.22,1.22,0,0,0,1.21-1.23V26.35a1.22,1.22,0,0,0-1.21-1.23H4.71V24.05H7.14a2.29,2.29,0,0,1,2.27,2.3v5.39A2.29,2.29,0,0,1,7.14,34" fill="#1d9cd7"/><rect x="4.18" y="33.5" width="1.06" height="4.15" fill="#1d9cd7"/><path d="M14.6,17.66a2.5,2.5,0,1,0,2.47,2.5,2.49,2.49,0,0,0-2.47-2.5m0,6.07a3.58,3.58,0,1,1,3.53-3.57,3.55,3.55,0,0,1-3.53,3.57" fill="#ca9e43"/><rect x="11.6" y="28.28" width="1.06" height="9.38" fill="#1d9cd7"/><rect x="16.54" y="28.28" width="1.06" height="9.38" fill="#1d9cd7"/><path d="M12.16,34a2.29,2.29,0,0,1-2.27-2.3V26.35a2.29,2.29,0,0,1,2.27-2.3H14.6v1.07H12.16A1.22,1.22,0,0,0,11,26.35v5.39A1.22,1.22,0,0,0,12.16,33Z" fill="#1d9cd7"/><path d="M17,34V33a1.23,1.23,0,0,0,1.22-1.23V26.35A1.23,1.23,0,0,0,17,25.12H14.6V24.05H17a2.28,2.28,0,0,1,2.27,2.3v5.39A2.28,2.28,0,0,1,17,34" fill="#1d9cd7"/><rect x="14.07" y="33.5" width="1.06" height="4.15" fill="#1d9cd7"/><path d="M24.49,17.66A2.5,2.5,0,1,0,27,20.16a2.49,2.49,0,0,0-2.47-2.5m0,6.07A3.58,3.58,0,1,1,28,20.16a3.55,3.55,0,0,1-3.53,3.57" fill="#ca9e43"/><rect x="21.49" y="28.28" width="1.06" height="9.38" fill="#1d9cd7"/><rect x="26.43" y="28.28" width="1.06" height="9.38" fill="#1d9cd7"/><path d="M22.05,34a2.29,2.29,0,0,1-2.27-2.3V26.35a2.29,2.29,0,0,1,2.27-2.3h2.44v1.07H22.05a1.23,1.23,0,0,0-1.21,1.23v5.39A1.23,1.23,0,0,0,22.05,33Z" fill="#1d9cd7"/><path d="M26.92,34V33a1.23,1.23,0,0,0,1.22-1.23V26.35a1.23,1.23,0,0,0-1.22-1.23H24.49V24.05h2.43a2.29,2.29,0,0,1,2.28,2.3v5.39A2.29,2.29,0,0,1,26.92,34" fill="#1d9cd7"/><rect x="23.96" y="33.5" width="1.06" height="4.15" fill="#1d9cd7"/><path d="M34.7,17.66a2.5,2.5,0,1,0,2.47,2.5,2.49,2.49,0,0,0-2.47-2.5m0,6.07a3.58,3.58,0,1,1,3.53-3.57,3.56,3.56,0,0,1-3.53,3.57" fill="#ca9e43"/><rect x="31.71" y="28.28" width="1.06" height="9.38" fill="#1d9cd7"/><rect x="36.65" y="28.28" width="1.06" height="9.38" fill="#1d9cd7"/><path d="M32.27,34A2.28,2.28,0,0,1,30,31.74V26.35a2.28,2.28,0,0,1,2.27-2.3H34.7v1.07H32.27a1.23,1.23,0,0,0-1.22,1.23v5.39A1.23,1.23,0,0,0,32.27,33Z" fill="#1d9cd7"/><path d="M37.14,34V33a1.22,1.22,0,0,0,1.21-1.23V26.35a1.22,1.22,0,0,0-1.21-1.23H34.7V24.05h2.44a2.29,2.29,0,0,1,2.27,2.3v5.39A2.29,2.29,0,0,1,37.14,34" fill="#1d9cd7"/><rect x="34.17" y="33.5" width="1.06" height="4.15" fill="#1d9cd7"/><path d="M19.68,9.62a2.24,2.24,0,1,0,2.21,2.24,2.23,2.23,0,0,0-2.21-2.24m0,5.54A3.31,3.31,0,1,1,23,11.86a3.28,3.28,0,0,1-3.27,3.3" fill="#ca9e43"/><path d="M16.66,16.82l-.81-.7a2.11,2.11,0,0,1,1.61-.75h2.22v1.07H17.46a1,1,0,0,0-.8.38" fill="#1d9cd7"/><path d="M22.69,16.79a1.05,1.05,0,0,0-.79-.35H19.68V15.37H21.9a2.14,2.14,0,0,1,1.57.69Z" fill="#1d9cd7"/><path d="M30,9.62a2.24,2.24,0,1,0,2.21,2.24A2.23,2.23,0,0,0,30,9.62m0,5.54a3.31,3.31,0,1,1,3.27-3.3A3.29,3.29,0,0,1,30,15.16" fill="#ca9e43"/><path d="M27,16.82l-.8-.7a2.09,2.09,0,0,1,1.61-.75H30v1.07H27.8a1,1,0,0,0-.81.38" fill="#1d9cd7"/><path d="M33,16.79a1,1,0,0,0-.78-.35H30V15.37h2.22a2.11,2.11,0,0,1,1.56.69Z" fill="#1d9cd7"/><path d="M14.62,1.07A2.24,2.24,0,1,0,16.83,3.3a2.22,2.22,0,0,0-2.21-2.23m0,5.54A3.28,3.28,0,0,1,11.36,3.3a3.27,3.27,0,1,1,6.53,0,3.29,3.29,0,0,1-3.27,3.31" fill="#ca9e43"/><path d="M11.6,8.26l-.81-.69a2.1,2.1,0,0,1,1.61-.76h2.22V7.88H12.4a1,1,0,0,0-.8.38" fill="#1d9cd7"/><path d="M17.62,8.23a1.05,1.05,0,0,0-.78-.35H14.62V6.81h2.22a2.16,2.16,0,0,1,1.57.7Z" fill="#1d9cd7"/><path d="M24.74,1.36a2.24,2.24,0,1,0,2.2,2.24,2.22,2.22,0,0,0-2.2-2.24m0,5.54a3.28,3.28,0,0,1-3.27-3.3A3.27,3.27,0,1,1,28,3.6a3.28,3.28,0,0,1-3.26,3.3" fill="#ca9e43"/><path d="M21.71,8.55l-.81-.69a2.13,2.13,0,0,1,1.61-.76h2.23V8.17H22.51a1.06,1.06,0,0,0-.8.38" fill="#1d9cd7"/><path d="M27.74,8.53A1,1,0,0,0,27,8.18H24.74V7.1H27a2.12,2.12,0,0,1,1.56.7Z" fill="#1d9cd7"/><path d="M9.53,9.62a2.24,2.24,0,1,0,2.21,2.24A2.23,2.23,0,0,0,9.53,9.62m0,5.54a3.31,3.31,0,1,1,3.26-3.3,3.29,3.29,0,0,1-3.26,3.3" fill="#ca9e43"/><path d="M6.5,16.82l-.8-.7a2.09,2.09,0,0,1,1.61-.75H9.53v1.07H7.31a1,1,0,0,0-.81.38" fill="#1d9cd7"/><path d="M12.53,16.79a1,1,0,0,0-.78-.35H9.53V15.37h2.22a2.11,2.11,0,0,1,1.56.69Z" fill="#1d9cd7"/></g></g></svg>